<svg xmlns="http://www.w3.org/2000/svg" xmlns:xlink="http://www.w3.org/1999/xlink" width="288.933" height="461.716" viewBox="0 0 288.933 461.716">
  <defs>
    <clipPath id="clip-path">
      <path id="Path_160" data-name="Path 160" d="M285.361,231.606s15.771,33.66,15.771,35.437-13.994,9.389-16.66,10.988a64.741,64.741,0,0,1-6.383,3.184l1.6,15.594s24.094-5.494,34.193-10.988,9.744-11.7,7.4-20.91-17.9-44.811-17.9-44.811Z" transform="translate(-278.09 -220.1)" fill="#fff" stroke="#263238" stroke-linecap="round" stroke-linejoin="round" stroke-width="1"/>
    </clipPath>
    <clipPath id="clip-path-2">
      <path id="Path_164" data-name="Path 164" d="M210.008,222.85s-11.506,42.16-11.847,49.609,22.85,22.139,23.694,23.028-1.318-25.619-1.318-25.619l7.863-38.5Z" transform="translate(-198.157 -222.85)" fill="#fff" stroke="#263238" stroke-linecap="round" stroke-linejoin="round" stroke-width="1"/>
    </clipPath>
    <clipPath id="clip-path-3">
      <path id="Path_183" data-name="Path 183" d="M231.329,188.492s4.605,16.29,13.328,25.871,11.847,11.847,16.482,11.151,9.566-6.723,16.467-19.251,7.4-22.139,7.982-23.027-1.481-18.6-11.343-26.226-20.91-10.973-30.476-2.651S228.131,176.261,231.329,188.492Z" transform="translate(-230.469 -149.497)" fill="#fff" stroke="#263238" stroke-linecap="round" stroke-linejoin="round" stroke-width="1"/>
    </clipPath>
  </defs>
  <g id="Blog_post-bro" data-name="Blog post-bro" transform="translate(0.5)">
    <g id="freepik--Character--inject-1--inject-19" transform="translate(0 0)">
      <path id="Path_158" data-name="Path 158" d="M285.361,231.606s15.771,33.66,15.771,35.437-13.994,9.389-16.66,10.988a64.741,64.741,0,0,1-6.383,3.184l1.6,15.594s24.094-5.494,34.193-10.988,9.744-11.7,7.4-20.91-17.9-44.811-17.9-44.811Z" transform="translate(-91.56 -77.033)" fill="#fff"/>
      <g id="Group_104" data-name="Group 104" transform="translate(186.53 143.067)" clip-path="url(#clip-path)">
        <path id="Path_159" data-name="Path 159" d="M310.188,285.821c10.1-5.494,9.744-11.7,7.4-20.91s-17.9-44.811-17.9-44.811l-2.517,1.6-.8,1.481s14.527,35.659,15.4,47.536c.592,7.982-15.475,17.933-26.093,23.62C293.558,292.248,304.28,289.034,310.188,285.821Z" transform="translate(-274.44 -220.1)" fill="#3874f2" opacity="0.5" style="mix-blend-mode: multiply;isolation: isolate"/>
      </g>
      <path id="Path_161" data-name="Path 161" d="M285.361,231.606s15.771,33.66,15.771,35.437-13.994,9.389-16.66,10.988a64.741,64.741,0,0,1-6.383,3.184l1.6,15.594s24.094-5.494,34.193-10.988,9.744-11.7,7.4-20.91-17.9-44.811-17.9-44.811Z" transform="translate(-91.56 -77.033)" fill="none" stroke="#263238" stroke-linecap="round" stroke-linejoin="round" stroke-width="1"/>
      <path id="Path_162" data-name="Path 162" d="M210.008,222.85s-11.506,42.16-11.847,49.609,22.85,22.139,23.694,23.028-1.318-25.619-1.318-25.619l7.863-38.5Z" transform="translate(-129.997 -75.711)" fill="#fff"/>
      <g id="Group_105" data-name="Group 105" transform="translate(68.161 147.139)" clip-path="url(#clip-path-2)">
        <path id="Path_163" data-name="Path 163" d="M215.28,226.3l-.252-1.14-5.02-2.31s-11.506,42.16-11.847,49.609,22.85,22.139,23.694,23.027c.341.355.207-3.613-.074-8.515-6.9-5.849-16.808-14.083-17.963-17.548" transform="translate(-198.157 -222.85)" fill="#3874f2" opacity="0.5" style="mix-blend-mode: multiply;isolation: isolate"/>
      </g>
      <path id="Path_165" data-name="Path 165" d="M210.008,222.85s-11.506,42.16-11.847,49.609,22.85,22.139,23.694,23.028-1.318-25.619-1.318-25.619l7.863-38.5Z" transform="translate(-129.997 -75.711)" fill="none" stroke="#263238" stroke-linecap="round" stroke-linejoin="round" stroke-width="1"/>
      <path id="Path_166" data-name="Path 166" d="M262.9,195.314s-4.443,3.2-13.106,3.554-9.078-5.923-19.844-5.923c-13.046,0-29.41,41.272-29.41,41.272s8.145,7.982,16.127,11.343a57.189,57.189,0,0,0,13.816,4.072l1.244,27.115H319.6l1.051-27.115,27.47-17.815S334.647,207.724,328.1,198.69s-17.548-5.672-20.91-3.376-13.328,2.843-17,2.31A146.831,146.831,0,0,1,276,193.729S270.348,189.02,262.9,195.314Z" transform="translate(-128.851 -90.528)" fill="#3874f2" stroke="#263238" stroke-linecap="round" stroke-linejoin="round" stroke-width="1"/>
      <line id="Line_57" data-name="Line 57" x1="0.355" y2="45.004" transform="translate(102.165 114.353)" fill="none" stroke="#263238" stroke-linecap="round" stroke-linejoin="round" stroke-width="0.5"/>
      <path id="Path_167" data-name="Path 167" d="M223.51,203.47s1.244,21.961,5.923,34.193" transform="translate(-117.806 -85.03)" fill="none" stroke="#263238" stroke-linecap="round" stroke-linejoin="round" stroke-width="0.5"/>
      <path id="Path_168" data-name="Path 168" d="M228.06,227.75a60.41,60.41,0,0,0,3.717,8.678" transform="translate(-115.618 -73.355)" fill="none" stroke="#263238" stroke-linecap="round" stroke-linejoin="round" stroke-width="0.5"/>
      <path id="Path_169" data-name="Path 169" d="M225.42,201.79a140.548,140.548,0,0,0,7.093,23.383" transform="translate(-116.887 -85.838)" fill="none" stroke="#263238" stroke-linecap="round" stroke-linejoin="round" stroke-width="0.5"/>
      <path id="Path_170" data-name="Path 170" d="M279.592,204.42s-4.25,17.371-7.982,25.175" transform="translate(-94.676 -84.573)" fill="none" stroke="#263238" stroke-linecap="round" stroke-linejoin="round" stroke-width="0.5"/>
      <line id="Line_58" data-name="Line 58" x1="0.178" y1="35.082" transform="translate(191.624 124.097)" fill="none" stroke="#263238" stroke-linecap="round" stroke-linejoin="round" stroke-width="0.5"/>
      <path id="Path_171" data-name="Path 171" d="M283.908,207.77s-3.2,22.213-10.988,33.838" transform="translate(-94.046 -82.962)" fill="none" stroke="#263238" stroke-linecap="round" stroke-linejoin="round" stroke-width="0.5"/>
      <path id="Path_172" data-name="Path 172" d="M279.667,227.63s-3.554,6.738-6.027,10.277" transform="translate(-93.7 -73.412)" fill="none" stroke="#263238" stroke-linecap="round" stroke-linejoin="round" stroke-width="0.5"/>
      <path id="Path_173" data-name="Path 173" d="M239.3,196.05s2.488,15.238,6.027,23.027,9.744,9.389,15.06,7.093,9.211-13.654,8.885-28.136" transform="translate(-110.213 -88.598)" fill="none" stroke="#263238" stroke-linecap="round" stroke-linejoin="round" stroke-width="0.5"/>
      <path id="Path_174" data-name="Path 174" d="M233.019,175.708s-3.376-5.835-6.027-2.828,2.132,9.922,4.783,12.217,4.606.889,4.443-1.585S233.019,175.708,233.019,175.708Z" transform="translate(-116.504 -100.154)" fill="#3874f2" stroke="#263238" stroke-linecap="round" stroke-linejoin="round" stroke-width="1"/>
      <path id="Path_175" data-name="Path 175" d="M233.019,175.708s-3.376-5.835-6.027-2.828,2.132,9.922,4.783,12.217,4.606.889,4.443-1.585S233.019,175.708,233.019,175.708Z" transform="translate(-116.504 -100.154)" fill="#fff" opacity="0.5"/>
      <path id="Path_176" data-name="Path 176" d="M233.019,175.708s-3.376-5.835-6.027-2.828,2.132,9.922,4.783,12.217,4.606.889,4.443-1.585S233.019,175.708,233.019,175.708Z" transform="translate(-116.504 -100.154)" fill="none" stroke="#263238" stroke-linecap="round" stroke-linejoin="round" stroke-width="1"/>
      <path id="Path_177" data-name="Path 177" d="M268.042,175.708s3.362-5.835,6.027-2.828-2.132,9.922-4.783,12.217-4.62.889-4.443-1.585S268.042,175.708,268.042,175.708Z" transform="translate(-97.935 -100.154)" fill="#3874f2" stroke="#263238" stroke-linecap="round" stroke-linejoin="round" stroke-width="1"/>
      <path id="Path_178" data-name="Path 178" d="M268.042,175.708s3.362-5.835,6.027-2.828-2.132,9.922-4.783,12.217-4.62.889-4.443-1.585S268.042,175.708,268.042,175.708Z" transform="translate(-97.935 -100.154)" fill="#fff" opacity="0.5"/>
      <path id="Path_179" data-name="Path 179" d="M268.042,175.708s3.362-5.835,6.027-2.828-2.132,9.922-4.783,12.217-4.62.889-4.443-1.585S268.042,175.708,268.042,175.708Z" transform="translate(-97.935 -100.154)" fill="none" stroke="#263238" stroke-linecap="round" stroke-linejoin="round" stroke-width="1"/>
      <path id="Path_180" data-name="Path 180" d="M241.57,193.42a190.814,190.814,0,0,0,6.383,22.317c3.2,7.967,9.211,7.967,11.7,2.828s4.072-24.286,4.072-24.286S247.064,196.6,241.57,193.42Z" transform="translate(-109.121 -89.863)" fill="#fff" stroke="#263238" stroke-linecap="round" stroke-linejoin="round" stroke-width="1"/>
      <path id="Path_181" data-name="Path 181" d="M231.329,188.492s4.605,16.29,13.328,25.871,11.847,11.847,16.482,11.151,9.566-6.723,16.467-19.251,7.4-22.139,7.982-23.027-1.481-18.6-11.343-26.226-20.91-10.973-30.476-2.651S228.131,176.261,231.329,188.492Z" transform="translate(-114.459 -110.984)" fill="#fff"/>
      <g id="Group_106" data-name="Group 106" transform="translate(116.01 38.513)" clip-path="url(#clip-path-3)">
        <path id="Path_182" data-name="Path 182" d="M274.2,156.968c-9.922-7.612-20.91-10.973-30.476-2.651s-15.594,21.961-12.395,34.193a76.006,76.006,0,0,0,2.606,7.4,5.6,5.6,0,0,1,.222-1.614c2.118-6.708,8.367-19.7,29.4-13.742,16.7,4.709,14.661,19.4,13.106,27.233l.9-1.629c6.916-12.573,7.4-22.139,7.982-23.027S284.123,164.594,274.2,156.968Z" transform="translate(-230.47 -149.515)" fill="#3874f2" opacity="0.5" style="mix-blend-mode: multiply;isolation: isolate"/>
      </g>
      <path id="Path_184" data-name="Path 184" d="M231.329,188.492s4.605,16.29,13.328,25.871,11.847,11.847,16.482,11.151,9.566-6.723,16.467-19.251,7.4-22.139,7.982-23.027-1.481-18.6-11.343-26.226-20.91-10.973-30.476-2.651S228.131,176.261,231.329,188.492Z" transform="translate(-114.459 -110.984)" fill="none" stroke="#263238" stroke-linecap="round" stroke-linejoin="round" stroke-width="1"/>
      <path id="Path_185" data-name="Path 185" d="M252.645,181.57a72.232,72.232,0,0,0-.889,10.455c.178,3.539,1.244,4.606-.355,4.961s-3.362-2.132-3.362-2.132" transform="translate(-106.01 -95.561)" fill="none" stroke="#263238" stroke-linecap="round" stroke-linejoin="round" stroke-width="1"/>
      <path id="Path_186" data-name="Path 186" d="M239.18,183.49a6.279,6.279,0,0,0,7.093.178" transform="translate(-110.271 -94.638)" fill="none" stroke="#263238" stroke-linecap="round" stroke-linejoin="round" stroke-width="1"/>
      <path id="Path_187" data-name="Path 187" d="M254.38,183.49a6.264,6.264,0,0,0,7.079.178" transform="translate(-102.961 -94.638)" fill="none" stroke="#263238" stroke-linecap="round" stroke-linejoin="round" stroke-width="1"/>
      <path id="Path_188" data-name="Path 188" d="M251.537,181.239s-3.376-8.337-14.527-4.443" transform="translate(-111.314 -98.355)" fill="none" stroke="#263238" stroke-linecap="round" stroke-linejoin="round" stroke-width="1"/>
      <path id="Path_189" data-name="Path 189" d="M253.09,180.355s2.828-8.16,12.928-3.376" transform="translate(-103.582 -98.492)" fill="none" stroke="#263238" stroke-linecap="round" stroke-linejoin="round" stroke-width="1"/>
      <path id="Path_190" data-name="Path 190" d="M255.863,186c0,4.561-5.227,8.248-11.684,8.248s-11.7-3.687-11.7-8.248,4.887-6.457,11.343-6.457S255.863,181.45,255.863,186Z" transform="translate(-113.492 -96.537)" fill="none" stroke="#263238" stroke-linecap="round" stroke-linejoin="round" stroke-width="1"/>
      <path id="Path_191" data-name="Path 191" d="M274.053,186c0,4.561-5.242,8.248-11.7,8.248S250.67,190.558,250.67,186s4.872-6.457,11.329-6.457S274.053,181.45,274.053,186Z" transform="translate(-104.745 -96.537)" fill="none" stroke="#263238" stroke-linecap="round" stroke-linejoin="round" stroke-width="1"/>
      <path id="Path_192" data-name="Path 192" d="M165.866,279.83l-.726,179.526a2.132,2.132,0,0,0,2.132,2.132h0a2.118,2.118,0,0,0,2.118-2.058l5.124-179.348Z" transform="translate(-145.874 -48.311)" fill="#fff" stroke="#263238" stroke-linecap="round" stroke-linejoin="round" stroke-width="1"/>
      <path id="Path_193" data-name="Path 193" d="M157.7,308.17l-.7,185.6a2.118,2.118,0,0,0,2.132,2.132h0a2.132,2.132,0,0,0,2.132-2.044l5.109-185.449Z" transform="translate(-149.788 -34.683)" fill="#fff" stroke="#263238" stroke-linecap="round" stroke-linejoin="round" stroke-width="1"/>
      <path id="Path_194" data-name="Path 194" d="M336.033,279.83l.726,179.526a2.118,2.118,0,0,1-2.118,2.132h0a2.132,2.132,0,0,1-2.132-2.058L327.4,280.082Z" transform="translate(-67.848 -48.311)" fill="#fff" stroke="#263238" stroke-linecap="round" stroke-linejoin="round" stroke-width="1"/>
      <path id="Path_195" data-name="Path 195" d="M344.208,308.17l.726,185.6A2.118,2.118,0,0,1,342.8,495.9h0a2.118,2.118,0,0,1-2.118-2.044L335.56,308.407Z" transform="translate(-63.925 -34.683)" fill="#fff" stroke="#263238" stroke-linecap="round" stroke-linejoin="round" stroke-width="1"/>
      <path id="Path_196" data-name="Path 196" d="M214.433,313.38,214,478.112a1.6,1.6,0,0,0,1.348,1.762h0a1.585,1.585,0,0,0,1.362-1.688l3.213-164.613Z" transform="translate(-122.382 -32.178)" fill="#fff" stroke="#263238" stroke-linecap="round" stroke-linejoin="round" stroke-width="1"/>
      <path id="Path_197" data-name="Path 197" d="M286.205,309.8l.4,143.763a1.362,1.362,0,0,1-1.155,1.481h0a1.348,1.348,0,0,1-1.14-1.481l-2.74-143.644Z" transform="translate(-89.887 -33.9)" fill="#fff" stroke="#263238" stroke-linecap="round" stroke-linejoin="round" stroke-width="1"/>
      <path id="Path_198" data-name="Path 198" d="M214.705,309.8l.4,143.763a1.362,1.362,0,0,1-1.155,1.481h0a1.348,1.348,0,0,1-1.14-1.481l-2.74-143.644Z" transform="translate(-124.269 -33.9)" fill="#fff" stroke="#263238" stroke-linecap="round" stroke-linejoin="round" stroke-width="1"/>
      <path id="Path_199" data-name="Path 199" d="M284.464,313.38l.459,164.732a1.6,1.6,0,0,1-1.348,1.762h0a1.6,1.6,0,0,1-1.362-1.688L279,313.572Z" transform="translate(-91.122 -32.178)" fill="#fff" stroke="#263238" stroke-linecap="round" stroke-linejoin="round" stroke-width="1"/>
      <ellipse id="Ellipse_14" data-name="Ellipse 14" cx="65.899" cy="15.06" rx="65.899" ry="15.06" transform="translate(76.072 262.617)" fill="#fff" stroke="#263238" stroke-linecap="round" stroke-linejoin="round" stroke-width="1"/>
      <path id="Path_200" data-name="Path 200" d="M227.9,398.554s-3.45,4.946-.977,7.4,4.931,1.481,4.68,3.954-4.191,10.855-7.641,19.74,3.7,17.77,10.366,15.312,5.923-27.159,6.9-31.6,1.733-5.183,1.481-9.374-.489-8.633-3.7-9.137S229.381,396.836,227.9,398.554Z" transform="translate(-118.02 6.967)" fill="#fff" stroke="#263238" stroke-linecap="round" stroke-linejoin="round" stroke-width="1"/>
      <path id="Path_201" data-name="Path 201" d="M238.38,424.485c-4.443-1.688-11.255-1.348-15.09-.963,1.288,5.583,6.22,9.507,10.929,7.775C236.188,430.571,237.477,427.935,238.38,424.485Z" transform="translate(-117.911 20.634)" fill="#3874f2" stroke="#263238" stroke-linecap="round" stroke-linejoin="round" stroke-width="1"/>
      <path id="Path_202" data-name="Path 202" d="M221.17,391.2s7.153,12.1,9.122,15.3,8.648,2.221,9.389-2.221-2.725-16.778-2.725-16.778l-14.809,3.7Z" transform="translate(-118.931 3.464)" fill="#fff" stroke="#263238" stroke-linecap="round" stroke-linejoin="round" stroke-width="1"/>
      <path id="Path_203" data-name="Path 203" d="M210.082,379.8s-1.984,3.213-.992,5.435,3.7,8.633,5.435,11.847,9.626,5.183,18.748,3.7,14.32-5.687,14.572-9.389-1.481-8.633-2.725-14.557-4.443-5.672-8.885-5.672S213.785,376.353,210.082,379.8Z" transform="translate(-124.873 -4.389)" fill="#3874f2" stroke="#263238" stroke-linecap="round" stroke-linejoin="round" stroke-width="1"/>
      <path id="Path_204" data-name="Path 204" d="M242.75,340.613c.133-6.072,3.643-9.063,3.91-13.224A52.336,52.336,0,0,0,245.312,311l-6.753-9.226c-19.429.252-33.349.578-33.571.652-.74.237-1.244,4.443-1.733,7.893,0,0-8.248,1.051-6.768,24,.207,3.2,8.53,40.206,9.137,44.426,3.7,25.782,11.951,38.7,11.951,38.7s.74,3.214,10.366,2.473,19.251-7.153,19.251-7.153S242.247,362.574,242.75,340.613Z" transform="translate(-130.885 -37.761)" fill="#04102e" stroke="#263238" stroke-linecap="round" stroke-linejoin="round" stroke-width="1"/>
      <path id="Path_205" data-name="Path 205" d="M206.3,305.391s-10.2,1.481-16.452,8.619-.948,11.847,11.2,10.573,26.152-13.7,26.744-14.364S215.125,301.112,206.3,305.391Z" transform="translate(-135.262 -36.599)" fill="#fff" stroke="#263238" stroke-linecap="round" stroke-linejoin="round" stroke-width="1"/>
      <path id="Path_206" data-name="Path 206" d="M213.487,310.885a96.358,96.358,0,0,1,19.251,2.962c8.4,2.473,23.205,7.4,26.656,7.4s2.473-12.839,2.473-15.3S217.441,302,212.006,302,213.487,310.885,213.487,310.885Z" transform="translate(-124.339 -37.65)" fill="#fff" stroke="#263238" stroke-linecap="round" stroke-linejoin="round" stroke-width="1"/>
      <path id="Path_207" data-name="Path 207" d="M247.423,304.673s-3.954,1.97-5.435,9.374-3.45,11.358-.489,13.328,15.8,3.45,17.77,1.481,7.4-11.847,8.4-18.259S247.423,304.673,247.423,304.673Z" transform="translate(-109.895 -36.369)" fill="#3874f2" stroke="#263238" stroke-linecap="round" stroke-linejoin="round" stroke-width="1"/>
      <path id="Path_208" data-name="Path 208" d="M258.893,310.588a30.935,30.935,0,0,0-5.42,8.885A82.569,82.569,0,0,0,251,329.839a96.335,96.335,0,0,1,13.817,4.946c7.908,3.45,21.236,5.923,34.06,8.885s16.29,5.923,20.732,5.923,9.877-3.465,16.793-11.847.977-26.167-5.923-31.6-43.937-9.863-48.869-8.382S258.893,310.588,258.893,310.588Z" transform="translate(-104.587 -39.826)" fill="#04102e" stroke="#263238" stroke-linecap="round" stroke-linejoin="round" stroke-width="1"/>
      <path id="Path_209" data-name="Path 209" d="M196.954,321.988a29.751,29.751,0,0,0-5.775-12.128c-.459.429-.9.874-1.333,1.362C184.352,317.472,187.788,321.914,196.954,321.988Z" transform="translate(-135.261 -33.871)" fill="#3874f2" stroke="#263238" stroke-linecap="round" stroke-linejoin="round" stroke-width="1"/>
      <path id="Path_210" data-name="Path 210" d="M232.19,320.69s-5.094,54.511-15.49,63" transform="translate(-121.08 -28.663)" fill="none" stroke="#fff" stroke-linecap="round" stroke-linejoin="round" stroke-width="0.5"/>
      <path id="Path_211" data-name="Path 211" d="M229.486,355.63s-4.043,17.77-14.646,24.834" transform="translate(-121.975 -11.861)" fill="none" stroke="#fff" stroke-linecap="round" stroke-linejoin="round" stroke-width="0.5"/>
      <path id="Path_212" data-name="Path 212" d="M271.909,314s-15.8.992-5.435,7.893S295.6,333.251,295.6,333.251" transform="translate(-98.84 -31.88)" fill="none" stroke="#fff" stroke-linecap="round" stroke-linejoin="round" stroke-width="0.5"/>
      <path id="Path_213" data-name="Path 213" d="M439.907,312.907l-5.331-4.8-12.321-26.656a7.094,7.094,0,0,0-6.457-4.013H176.49a7.093,7.093,0,0,0-6.471,4.013l-15.357,33.2-2.532-.933v7.6l.118-.089a4.221,4.221,0,0,0,4.25,3.6H435.775a4.161,4.161,0,0,0,4.25-3.924Z" transform="translate(-152.13 -49.461)" fill="#263238" stroke="#263238" stroke-linecap="round" stroke-linejoin="round" stroke-width="1"/>
      <path id="Path_214" data-name="Path 214" d="M435.737,320.138H156.46a4.087,4.087,0,0,1-3.909-5.716l17.43-37.658a7.064,7.064,0,0,1,6.471-4.013H415.76a7.064,7.064,0,0,1,6.457,4.013l17.43,37.658a4.087,4.087,0,0,1-3.909,5.716Z" transform="translate(-152.091 -51.716)" fill="#fff" stroke="#263238" stroke-linecap="round" stroke-linejoin="round" stroke-width="1"/>
      <path id="Path_215" data-name="Path 215" d="M165.822,293.529s-6.323,4.339-2.369,5.923,49.4.4,54.94-1.185,11.847-16.2,11.847-18.57-7.967-4.072-10.9-4.206-41.672,2.221-41.672,2.221Z" transform="translate(-147.311 -50.4)" fill="#3874f2" opacity="0.5" style="mix-blend-mode: multiply;isolation: isolate"/>
      <ellipse id="Ellipse_15" data-name="Ellipse 15" cx="16.201" cy="6.723" rx="16.201" ry="6.723" transform="translate(228.379 237.191)" fill="#3874f2" opacity="0.5" style="mix-blend-mode: multiply;isolation: isolate"/>
      <ellipse id="Ellipse_16" data-name="Ellipse 16" cx="58.094" cy="10.87" rx="58.094" ry="10.87" transform="translate(83.343 237.205)" fill="#3874f2" opacity="0.5" style="mix-blend-mode: multiply;isolation: isolate"/>
      <path id="Path_216" data-name="Path 216" d="M311.741,271.353s-1.066-4.25-4.605-2.828-3.184,10.81-2.488,16.127,5.494,2.829,5.494,2.829V284.3s-1.762,1.407-2.651-.533-.711-11.7.178-11.521,2.651,3.184,2.651,3.184S310.852,275.085,311.741,271.353Z" transform="translate(-79.008 -53.888)" fill="#3874f2" stroke="#263238" stroke-linecap="round" stroke-linejoin="round" stroke-width="1"/>
      <path id="Path_217" data-name="Path 217" d="M307.57,270.82V294.1c0,2.74,6.294,4.961,14.068,4.961s14.053-2.221,14.053-4.961V270.82Z" transform="translate(-77.384 -52.644)" fill="#3874f2" stroke="#263238" stroke-linecap="round" stroke-linejoin="round" stroke-width="1"/>
      <path id="Path_218" data-name="Path 218" d="M335.692,272.21c0,2.369-6.294,4.28-14.053,4.28s-14.068-1.91-14.068-4.28,6.294-4.28,14.068-4.28S335.692,269.855,335.692,272.21Z" transform="translate(-77.384 -54.034)" fill="#fff" stroke="#263238" stroke-linecap="round" stroke-linejoin="round" stroke-width="1"/>
      <path id="Path_219" data-name="Path 219" d="M333.259,272.027c0,2.058-5.479,3.717-12.217,3.717s-12.232-1.659-12.232-3.717,5.479-3.717,12.232-3.717S333.259,269.969,333.259,272.027Z" transform="translate(-76.788 -53.851)" fill="#fff" stroke="#263238" stroke-linecap="round" stroke-linejoin="round" stroke-width="1"/>
      <path id="Path_220" data-name="Path 220" d="M310.7,272.857a33.645,33.645,0,0,0,18.851,0A33.645,33.645,0,0,0,310.7,272.857Z" transform="translate(-75.879 -52.312)" fill="#263238" stroke="#263238" stroke-linecap="round" stroke-linejoin="round" stroke-width="1"/>
      <path id="Path_221" data-name="Path 221" d="M163.45,278.231l.178,7.967,53.681.533V277.52Z" transform="translate(-146.687 -49.422)" fill="#fff" stroke="#263238" stroke-linecap="round" stroke-linejoin="round" stroke-width="1"/>
      <path id="Path_222" data-name="Path 222" d="M199.935,290.813l7.8-16.823V269.03L199.58,283.2Z" transform="translate(-129.313 -53.505)" fill="#fff" stroke="#263238" stroke-linecap="round" stroke-linejoin="round" stroke-width="1"/>
      <path id="Path_223" data-name="Path 223" d="M163.45,283.126l.178,7.982,53.681.533V282.43Z" transform="translate(-146.687 -47.061)" fill="#fff" stroke="#263238" stroke-linecap="round" stroke-linejoin="round" stroke-width="1"/>
      <path id="Path_224" data-name="Path 224" d="M199.935,295.728l7.8-16.837V273.93L199.58,288.1Z" transform="translate(-129.313 -51.148)" fill="#fff" stroke="#263238" stroke-linecap="round" stroke-linejoin="round" stroke-width="1"/>
      <path id="Path_225" data-name="Path 225" d="M187.076,265.593s1.244-2.473-.533-3.539-3.717,1.481-4.783,2.3-23.383,15.594-24.094,17.9,0,7.4,4.783,7.967,9.033-2.651,11.166-3.184,2.962-.711,2.962-.711l14.705-19.844Z" transform="translate(-149.581 -56.983)" fill="#fff" stroke="#263238" stroke-linecap="round" stroke-linejoin="round" stroke-width="1"/>
      <path id="Path_226" data-name="Path 226" d="M162.457,283.823c4.783.533,9.033-2.651,11.166-3.184s2.962-.711,2.962-.711l.533-.726L163.3,276.389a4.635,4.635,0,0,0-5.672-.533C156.963,278.137,157.674,283.275,162.457,283.823Z" transform="translate(-149.588 -50.572)" fill="#fff" stroke="#263238" stroke-linecap="round" stroke-linejoin="round" stroke-width="1"/>
      <path id="Path_227" data-name="Path 227" d="M161.42,281.583h41.464c12.943,0,16.837-.711,16.837-.711l7.967-16.482s-25.175,1.6-32.949,1.066a58.626,58.626,0,0,1-9.566-1.066Z" transform="translate(-147.663 -55.736)" fill="#fff" stroke="#263238" stroke-linecap="round" stroke-linejoin="round" stroke-width="1"/>
      <path id="Path_228" data-name="Path 228" d="M161.42,276.236l.711,3.184s33.66.178,42.516.178,15.594.355,15.594.355l-.533-4.443Z" transform="translate(-147.663 -50.389)" fill="#fff" stroke="#263238" stroke-linecap="round" stroke-linejoin="round" stroke-width="1"/>
      <path id="Path_229" data-name="Path 229" d="M201.313,285.27l7.434-17.015V264.36l-7.967,16.482Z" transform="translate(-128.736 -55.75)" fill="#fff" stroke="#263238" stroke-linecap="round" stroke-linejoin="round" stroke-width="1"/>
      <path id="Path_230" data-name="Path 230" d="M315.421,293.026H213.908a1.7,1.7,0,0,1-1.718-1.7h0a1.7,1.7,0,0,1,1.718-1.7H315.421a1.688,1.688,0,0,1,1.7,1.7h0a1.688,1.688,0,0,1-1.7,1.7Z" transform="translate(-123.249 -43.603)" fill="#fff" stroke="#263238" stroke-linecap="round" stroke-linejoin="round" stroke-width="1"/>
      <path id="Path_231" data-name="Path 231" d="M318.313,312.494H215.067a1.481,1.481,0,0,1-1.481-1.392l-5.612-67.453a1.481,1.481,0,0,1,1.481-1.659H323.94a1.481,1.481,0,0,1,1.481,1.659L319.809,311.1A1.481,1.481,0,0,1,318.313,312.494Z" transform="translate(-125.282 -66.507)" fill="#fff" stroke="#263238" stroke-linecap="round" stroke-linejoin="round" stroke-width="1"/>
      <path id="Path_232" data-name="Path 232" d="M260.533,268.941c0,4.028-4.369,7.286-9.744,7.286s-9.759-3.258-9.759-7.286,4.369-7.271,9.759-7.271S260.533,264.928,260.533,268.941Z" transform="translate(-109.381 -57.044)" fill="#fff" stroke="#263238" stroke-linecap="round" stroke-linejoin="round" stroke-width="1"/>
      <path id="Path_233" data-name="Path 233" d="M322.33,234.044a8.8,8.8,0,0,0,3.154-4.931,9.107,9.107,0,0,0-.1-4.443" transform="translate(-70.286 -74.836)" fill="none" stroke="#263238" stroke-linecap="round" stroke-linejoin="round" stroke-width="1"/>
      <path id="Path_234" data-name="Path 234" d="M316.769,283.086s9.848-5.923,6.634-12.691-14.083-11.255-14.083-21.8c0-9.093,9.67-12.454,15.979-16.1" transform="translate(-76.542 -71.071)" fill="none" stroke="#263238" stroke-linecap="round" stroke-linejoin="round" stroke-width="1"/>
      <path id="Path_235" data-name="Path 235" d="M321.841,273.729s5.494-3.658,5.494-9.463c0-3.895-4.161-6.442-9.655-12.706" transform="translate(-72.522 -61.905)" fill="none" stroke="#263238" stroke-linecap="round" stroke-linejoin="round" stroke-width="1"/>
      <path id="Path_236" data-name="Path 236" d="M316.254,251.645s-3.6-2.828-.948-8.145" transform="translate(-74.132 -65.781)" fill="none" stroke="#263238" stroke-linecap="round" stroke-linejoin="round" stroke-width="1"/>
      <path id="Path_237" data-name="Path 237" d="M275.1,154.233c1.762-.37,5.538-1.821,8.085-7.73a.74.74,0,0,0-.385-.977.755.755,0,0,0-.977.385c-2.34,5.42-5.687,6.619-7.079,6.886a17,17,0,0,0,3.895-10.707c0-10.277-9.522-18.6-21.265-18.6s-21.265,8.322-21.265,18.6a17,17,0,0,0,3.554,10.366c-2.236-.118-6.012.829-10.8,6.412a.755.755,0,0,0,0,1.051.77.77,0,0,0,.489.178.726.726,0,0,0,.563-.267c6.116-7.123,10.159-5.923,10.973-5.6a21.77,21.77,0,0,0-3.865,2.71c-6.827,6.146-10.988,17.77-10.455,27.455a35.7,35.7,0,0,0,6.738,17.77,41.317,41.317,0,0,0,12.039-13.476,113.166,113.166,0,0,0,5.923-12.1c0,4.339.563,9.581,2.843,13.328a18.9,18.9,0,0,0,16.615,9.714,15.653,15.653,0,0,0,3.48-.341.74.74,0,0,0,.474-.37c5.716,1.214,11.4,1.111,12.276-.1,1.407-1.94,3.406-8,4.072-15.4C292.251,170.863,284.343,159.964,275.1,154.233ZM255.5,189.018c-2.873-4.694-2.784-12.35-2.443-16.749l.193-.5a30.15,30.15,0,0,0,12.039,23.205,21.694,21.694,0,0,0,6.56,3.065c-3.628.252-11.092-.444-16.349-9.019Z" transform="translate(-116.354 -123.49)" fill="#04102e"/>
      <path id="Path_238" data-name="Path 238" d="M246.272,152s-1.214,8.974,10.188,17.77,22.213,5.331,22.213,5.331" transform="translate(-106.878 -109.78)" fill="none" stroke="#fff" stroke-linecap="round" stroke-linejoin="round" stroke-width="0.5"/>
      <path id="Path_239" data-name="Path 239" d="M247.39,150s12.01,17.489,28.6,12.928" transform="translate(-106.323 -110.742)" fill="none" stroke="#fff" stroke-linecap="round" stroke-linejoin="round" stroke-width="0.5"/>
      <path id="Path_240" data-name="Path 240" d="M250.391,146.478a11.6,11.6,0,0,0-12.01.918c-6.383,4.25-9.581,14.29-9.581,14.29" transform="translate(-115.262 -113.04)" fill="none" stroke="#fff" stroke-linecap="round" stroke-linejoin="round" stroke-width="0.5"/>
      <path id="Path_241" data-name="Path 241" d="M247.591,149.456s-5.168-1.377-8.367,1.821a20.613,20.613,0,0,0-3.954,4.872" transform="translate(-112.151 -111.146)" fill="none" stroke="#fff" stroke-linecap="round" stroke-linejoin="round" stroke-width="0.5"/>
    </g>
  </g>
</svg>
