<svg xmlns="http://www.w3.org/2000/svg" xmlns:xlink="http://www.w3.org/1999/xlink" width="443.359" height="387.221" viewBox="0 0 443.359 387.221">
  <defs>
    <clipPath id="clip-path">
      <path id="Path_607" data-name="Path 607" d="M376.42,313.24l27.85,60.78-17.52,4.94-20.66-25.72Z" transform="translate(-366.09 -313.24)" fill="#3874f2" stroke="#263238" stroke-linecap="round" stroke-linejoin="round" stroke-width="1"/>
    </clipPath>
    <clipPath id="clip-path-2">
      <path id="Path_617" data-name="Path 617" d="M321.03,296.31l-36.27,16.71,19.34,78.47-6.16,33.01h68.81l-6.81-35.87,16.7-75.39-38.03-15.61Z" transform="translate(-284.76 -296.31)" fill="#3874f2" stroke="#263238" stroke-linecap="round" stroke-linejoin="round" stroke-width="1"/>
    </clipPath>
    <clipPath id="clip-path-3">
      <path id="Path_624" data-name="Path 624" d="M284.76,313.02l-28.57,61.87,18.24,3.85,20.66-25.72Z" transform="translate(-256.19 -313.02)" fill="#3874f2" stroke="#263238" stroke-linecap="round" stroke-linejoin="round" stroke-width="1"/>
    </clipPath>
    <clipPath id="clip-path-4">
      <path id="Path_629" data-name="Path 629" d="M275.74,369.51l36.05,41.11-7,7.91-45.43-36.18s-6.23-3-2.49-9.1" transform="translate(-255.675 -369.51)" fill="#3874f2" stroke="#263238" stroke-linecap="round" stroke-linejoin="round" stroke-width="1"/>
    </clipPath>
    <clipPath id="clip-path-5">
      <path id="Path_640" data-name="Path 640" d="M383.68,370.83l-12,40.83,8.68,6.06,19.61-31.52s8.06-9.1,3-14.22" transform="translate(-371.68 -370.83)" fill="#3874f2" stroke="#263238" stroke-linecap="round" stroke-linejoin="round" stroke-width="1"/>
    </clipPath>
    <clipPath id="clip-path-6">
      <path id="Path_660" data-name="Path 660" d="M342.92,232s-20.08,18.54-25.68,32.05-.58,27.62,2.51,31.68,5,4.63,5,4.63-10.62,4.06-17.57-6.56-5.22-22.6-3.09-30.9,1.54-32.64,6.37-40.75,11.78-14.1,23.37-12.75,17.76,7.34,21.43,14.87,1.93,20.28,3.09,25.88,6.18,22.4,7.34,32.44S353.16,299.78,351,300.75a12.851,12.851,0,0,1-4.63,1s4.63-23.17,5.6-36.5S353,244,353,244,343.89,232.58,342.92,232Z" transform="translate(-302.21 -209.209)" fill="#263238" stroke="#263238" stroke-linecap="round" stroke-linejoin="round" stroke-width="1"/>
    </clipPath>
  </defs>
  <g id="Call_center-bro" data-name="Call center-bro" transform="translate(-27.257 -59.724)">
    <g id="freepik--background-simple--inject-136" transform="translate(29.935 59.724)">
      <path id="Path_598" data-name="Path 598" d="M124.15,435.32s52.15,27.11,111.75-1.47,79-84,109.88-125.58c16.2-21.79,42.7-33.93,62.92-52.25C473.34,197.43,450,99.48,390.88,72.6,339.67,49.33,280.52,57.67,207.23,97.06S81.13,161.88,42.65,240.38,59.31,397.33,124.15,435.32Z" transform="translate(-29.935 -59.724)" fill="#3874f2"/>
      <path id="Path_599" data-name="Path 599" d="M124.15,435.32s52.15,27.11,111.75-1.47,79-84,109.88-125.58c16.2-21.79,42.7-33.93,62.92-52.25C473.34,197.43,450,99.48,390.88,72.6,339.67,49.33,280.52,57.67,207.23,97.06S81.13,161.88,42.65,240.38,59.31,397.33,124.15,435.32Z" transform="translate(-29.935 -59.724)" fill="#fff" opacity="0.8"/>
    </g>
    <g id="freepik--Window--inject-136" transform="translate(27.62 77.91)">
      <line id="Line_136" data-name="Line 136" x2="403.05" transform="translate(9.04 290.35)" fill="none" stroke="#263238" stroke-miterlimit="10" stroke-width="1"/>
      <line id="Line_137" data-name="Line 137" x2="403.05" transform="translate(9.04 214.04)" fill="none" stroke="#263238" stroke-miterlimit="10" stroke-width="1"/>
      <line id="Line_138" data-name="Line 138" x2="403.05" transform="translate(9.04 137.73)" fill="none" stroke="#263238" stroke-miterlimit="10" stroke-width="1"/>
      <line id="Line_139" data-name="Line 139" x2="403.05" transform="translate(9.04 61.42)" fill="none" stroke="#263238" stroke-miterlimit="10" stroke-width="1"/>
      <line id="Line_140" data-name="Line 140" y2="272.44" transform="translate(100.68 18.09)" fill="none" stroke="#263238" stroke-miterlimit="10" stroke-width="1"/>
      <line id="Line_141" data-name="Line 141" y2="272.44" transform="translate(342.94 18.09)" fill="none" stroke="#263238" stroke-miterlimit="10" stroke-width="1"/>
      <line id="Line_142" data-name="Line 142" x1="3" y2="3.16" transform="translate(106.68 119.08)" fill="none" stroke="#263238" stroke-miterlimit="10" stroke-width="1"/>
      <line id="Line_143" data-name="Line 143" x1="47.48" y2="50.07" transform="translate(113.29 65.2)" fill="none" stroke="#263238" stroke-miterlimit="10" stroke-width="1"/>
      <line id="Line_144" data-name="Line 144" x1="26.67" y2="27.41" transform="translate(137.06 73.35)" fill="none" stroke="#263238" stroke-miterlimit="10" stroke-width="1"/>
      <line id="Line_145" data-name="Line 145" x1="3" y2="3.16" transform="translate(350.31 119.08)" fill="none" stroke="#263238" stroke-miterlimit="10" stroke-width="1"/>
      <line id="Line_146" data-name="Line 146" x1="47.47" y2="50.07" transform="translate(356.92 65.2)" fill="none" stroke="#263238" stroke-miterlimit="10" stroke-width="1"/>
      <line id="Line_147" data-name="Line 147" x1="26.67" y2="27.41" transform="translate(380.69 73.35)" fill="none" stroke="#263238" stroke-miterlimit="10" stroke-width="1"/>
      <line id="Line_148" data-name="Line 148" x1="3" y2="3.16" transform="translate(0 273.18)" fill="none" stroke="#263238" stroke-miterlimit="10" stroke-width="1"/>
      <line id="Line_149" data-name="Line 149" x1="47.47" y2="50.08" transform="translate(6.61 219.29)" fill="none" stroke="#263238" stroke-miterlimit="10" stroke-width="1"/>
      <line id="Line_150" data-name="Line 150" x1="26.68" y2="27.42" transform="translate(30.37 227.44)" fill="none" stroke="#263238" stroke-miterlimit="10" stroke-width="1"/>
      <line id="Line_151" data-name="Line 151" x1="2.99" y2="3.16" transform="translate(39.27 53.89)" fill="none" stroke="#263238" stroke-miterlimit="10" stroke-width="1"/>
      <line id="Line_152" data-name="Line 152" x1="47.47" y2="50.07" transform="translate(45.88)" fill="none" stroke="#263238" stroke-miterlimit="10" stroke-width="1"/>
      <line id="Line_153" data-name="Line 153" x1="26.67" y2="27.41" transform="translate(69.64 8.15)" fill="none" stroke="#263238" stroke-miterlimit="10" stroke-width="1"/>
      <line id="Line_154" data-name="Line 154" x1="2.99" y2="3.16" transform="translate(261.27 53.89)" fill="none" stroke="#263238" stroke-miterlimit="10" stroke-width="1"/>
      <line id="Line_155" data-name="Line 155" x1="47.47" y2="50.07" transform="translate(267.88)" fill="none" stroke="#263238" stroke-miterlimit="10" stroke-width="1"/>
      <line id="Line_156" data-name="Line 156" x1="26.67" y2="27.41" transform="translate(291.64 8.15)" fill="none" stroke="#263238" stroke-miterlimit="10" stroke-width="1"/>
      <line id="Line_157" data-name="Line 157" x1="3" y2="3.16" transform="translate(192.62 198.35)" fill="none" stroke="#263238" stroke-miterlimit="10" stroke-width="1"/>
      <line id="Line_158" data-name="Line 158" x1="47.47" y2="50.07" transform="translate(199.23 144.47)" fill="none" stroke="#263238" stroke-miterlimit="10" stroke-width="1"/>
      <line id="Line_159" data-name="Line 159" x1="26.67" y2="27.41" transform="translate(223 152.62)" fill="none" stroke="#263238" stroke-miterlimit="10" stroke-width="1"/>
    </g>
    <g id="freepik--Plants--inject-136" transform="translate(399.253 156.119)">
      <path id="Path_600" data-name="Path 600" d="M427.92,424.65s-24.76-52.76-19.38-54.28,16.66,6.88,16.66,6.88-33.1-88.7-24.53-95.58S425.24,310,425.24,310s-17.09-54.33-15.08-75,23.72-.76,23.72-.76-17.39-74.17-1.24-78,15.61,84.87,15.61,84.87,5.3-63.47,11.77-45.88-7.13,76.46-7.13,76.46,8.87-19.88,13.8-1.53-9.8,92.52-9.8,92.52,12.52-12.23,13.69,3.06-25.92,62.7-25.92,62.7L429.33,430Z" transform="translate(-399.253 -156.119)" fill="#3874f2"/>
      <path id="Path_601" data-name="Path 601" d="M427.92,424.65s-24.76-52.76-19.38-54.28,16.66,6.88,16.66,6.88-33.1-88.7-24.53-95.58S425.24,310,425.24,310s-17.09-54.33-15.08-75,23.72-.76,23.72-.76-17.39-74.17-1.24-78,15.61,84.87,15.61,84.87,5.3-63.47,11.77-45.88-7.13,76.46-7.13,76.46,8.87-19.88,13.8-1.53-9.8,92.52-9.8,92.52,12.52-12.23,13.69,3.06-25.92,62.7-25.92,62.7L429.33,430Z" transform="translate(-399.253 -156.119)" fill="#fff" opacity="0.6"/>
      <path id="Path_602" data-name="Path 602" d="M433.21,427s-20.64-36.7-16.82-43.59,15.29,9.18,15.29,9.18-26-65-22.17-71.11,16.06,20.65,16.06,20.65-4.59-89.46,3.05-86.41S437,301.55,437,301.55s-4.58-101.69,2.3-98.63,6.12,116.22,6.12,116.22,13.76-43.59,16.05-23.71-17.58,73.41-17.58,73.41S463,326.78,465.33,349,450,412.42,450,412.42s6.88-16.82,6.88-7.65-5.35,20.65-5.35,20.65" transform="translate(-399.253 -156.12)" fill="none" stroke="#263238" stroke-linecap="round" stroke-linejoin="round" stroke-width="1"/>
    </g>
    <g id="freepik--character-2--inject-136" transform="translate(255.674 207.09)">
      <path id="Path_603" data-name="Path 603" d="M376.42,313.24l27.85,60.78-17.52,4.94-20.66-25.72Z" transform="translate(-255.675 -207.09)" fill="#3874f2"/>
      <g id="Group_138" data-name="Group 138" transform="translate(110.415 106.15)" clip-path="url(#clip-path)">
        <g id="Group_137" data-name="Group 137" transform="translate(1.46 8.39)" opacity="0.1">
          <path id="Path_604" data-name="Path 604" d="M371.39,332.7l-1.18,4.59,23.13,39.81,3.32-.93Z" transform="translate(-367.55 -321.63)"/>
          <path id="Path_605" data-name="Path 605" d="M386.88,378.93l3.34-.94L368.7,343.12l-1.15,4.47Z" transform="translate(-367.55 -321.63)"/>
          <path id="Path_606" data-name="Path 606" d="M374.25,321.63l-1.22,4.74,26.56,48.97,3.28-.93Z" transform="translate(-367.55 -321.63)"/>
        </g>
      </g>
      <path id="Path_608" data-name="Path 608" d="M376.42,313.24l27.85,60.78-17.52,4.94-20.66-25.72Z" transform="translate(-255.675 -207.09)" fill="none" stroke="#263238" stroke-linecap="round" stroke-linejoin="round" stroke-width="1"/>
      <path id="Path_609" data-name="Path 609" d="M321.03,296.31l-36.27,16.71,19.34,78.47-6.16,33.01h68.81l-6.81-35.87,16.7-75.39-38.03-15.61Z" transform="translate(-255.675 -207.09)" fill="#3874f2"/>
      <g id="Group_140" data-name="Group 140" transform="translate(29.085 89.22)" clip-path="url(#clip-path-2)">
        <g id="Group_139" data-name="Group 139" transform="translate(8.6 1.21)" opacity="0.1">
          <path id="Path_610" data-name="Path 610" d="M321.36,424.5l1.39-31.26a2.2,2.2,0,0,0,0-.44L308.5,302.09l-4.2,1.93,14,89.25-1.39,31.23Z" transform="translate(-293.36 -297.52)"/>
          <path id="Path_611" data-name="Path 611" d="M329.7,385.76v-.12l-11.3-88.12-4.23,2,11.1,86.67,2.86,38.36h4.46Z" transform="translate(-293.36 -297.52)"/>
          <path id="Path_612" data-name="Path 612" d="M308.78,424.5l4-30.51a2.218,2.218,0,0,0,0-.68l-15.25-86.15-4.17,1.92,15,84.67-4,30.75Z" transform="translate(-293.36 -297.52)"/>
          <path id="Path_613" data-name="Path 613" d="M375.06,312.59l-4.19-1.72-15.29,79.07a2.27,2.27,0,0,0,0,.78l5.5,33.78h4.51L360,390.4l.13-.65-.22-1.12,3.35-15.09Z" transform="translate(-293.36 -297.52)"/>
          <path id="Path_614" data-name="Path 614" d="M334.98,305.29l-4.44.13,3.69,119.08h4.44Z" transform="translate(-293.36 -297.52)"/>
          <path id="Path_615" data-name="Path 615" d="M350.57,389.82l14.77-81.22-4.2-1.73-15,82.54a2,2,0,0,0,0,.77L352,424.5h4.51Z" transform="translate(-293.36 -297.52)"/>
          <path id="Path_616" data-name="Path 616" d="M342.5,387.06l11.23-83.23-4.25-1.74-11.42,84.65a2,2,0,0,0,0,.54l4.14,37.22h4.47Z" transform="translate(-293.36 -297.52)"/>
        </g>
      </g>
      <path id="Path_618" data-name="Path 618" d="M321.03,296.31l-36.27,16.71,19.34,78.47-6.16,33.01h68.81l-6.81-35.87,16.7-75.39-38.03-15.61Z" transform="translate(-255.675 -207.09)" fill="none" stroke="#263238" stroke-linecap="round" stroke-linejoin="round" stroke-width="1"/>
      <path id="Path_619" data-name="Path 619" d="M284.76,313.02l-28.57,61.87,18.24,3.85,20.66-25.72Z" transform="translate(-255.675 -207.09)" fill="#3874f2"/>
      <g id="Group_142" data-name="Group 142" transform="translate(0.515 105.93)" clip-path="url(#clip-path-3)">
        <g id="Group_141" data-name="Group 141" transform="translate(3.53 6.09)" opacity="0.1">
          <path id="Path_620" data-name="Path 620" d="M292.27,342.1l-19.9,36.21,2.06.43,4.76-5.93,14.29-26Z" transform="translate(-259.72 -319.11)"/>
          <path id="Path_621" data-name="Path 621" d="M290.48,335.18l-1.3-5.04-22.21,47.03,3.35.71Z" transform="translate(-259.72 -319.11)"/>
          <path id="Path_622" data-name="Path 622" d="M259.72,375.63l3.35.71,24.57-52.17-1.31-5.06Z" transform="translate(-259.72 -319.11)"/>
        </g>
        <path id="Path_623" data-name="Path 623" d="M284.01,323.32l10.08,27.05-10.12-15.49" transform="translate(-256.19 -313.02)" fill="none" stroke="#263238" stroke-miterlimit="10" stroke-width="1"/>
      </g>
      <path id="Path_625" data-name="Path 625" d="M284.76,313.02l-28.57,61.87,18.24,3.85,20.66-25.72Z" transform="translate(-255.675 -207.09)" fill="none" stroke="#263238" stroke-linecap="round" stroke-linejoin="round" stroke-width="1"/>
      <path id="Path_626" data-name="Path 626" d="M275.74,369.51l36.05,41.11-7,7.91-45.43-36.18s-6.23-3-2.49-9.1" transform="translate(-255.675 -207.09)" fill="#3874f2"/>
      <g id="Group_144" data-name="Group 144" transform="translate(0 162.42)" clip-path="url(#clip-path-4)">
        <g id="Group_143" data-name="Group 143" transform="translate(7.055)" opacity="0.1">
          <path id="Path_627" data-name="Path 627" d="M308.01,413.48l3.38-2.89-18.18-21.16-17.47-19.92-4.7.93Z" transform="translate(-262.73 -369.51)"/>
          <path id="Path_628" data-name="Path 628" d="M300.81,415.38l3.01,2.4,2.83-2.49-38.88-44.2-5.04.99Z" transform="translate(-262.73 -369.51)"/>
        </g>
      </g>
      <path id="Path_630" data-name="Path 630" d="M275.74,369.51l36.05,41.11-7,7.91-45.43-36.18s-6.23-3-2.49-9.1" transform="translate(-255.675 -207.09)" fill="none" stroke="#263238" stroke-linecap="round" stroke-linejoin="round" stroke-width="1"/>
      <path id="Path_631" data-name="Path 631" d="M306,409.07c1-.56,18.39-4.72,18.63-2.59s5.42,4.48,7.78,4.48,4.72-1.89,5.19.94-2.12,3.07-4.24,3.3-9.44-2.12-9.44-2.12-6.84,5.66-9.67,7.07-8,1-9.9-.47S299.88,412.37,306,409.07Z" transform="translate(-255.674 -207.09)" fill="#fff" stroke="#263238" stroke-linecap="round" stroke-linejoin="round" stroke-width="1"/>
      <path id="Path_632" data-name="Path 632" d="M322.05,406.24s6.6-1.89,8-1.18,2.13,14.86,2.13,14.86-.71,1.41-2.13,0-6.13-12-6.13-12" transform="translate(-255.675 -207.09)" fill="#fff" stroke="#263238" stroke-linecap="round" stroke-linejoin="round" stroke-width="1"/>
      <path id="Path_633" data-name="Path 633" d="M318.74,406.71s6.84-1.65,8.26.94,4.95,14.15,2.12,14.63-3.77-3.31-3.77-3.31l-4.48-8.25-3.07-.47" transform="translate(-255.675 -207.09)" fill="#fff" stroke="#263238" stroke-linecap="round" stroke-linejoin="round" stroke-width="1"/>
      <path id="Path_634" data-name="Path 634" d="M316.39,408.83s3.3-1.41,4.95-.23,9.2,13.2,7.78,13.68-4.72.23-5.19-.71-6.6-9-6.6-9" transform="translate(-255.675 -207.09)" fill="#fff" stroke="#263238" stroke-linecap="round" stroke-linejoin="round" stroke-width="1"/>
      <path id="Path_635" data-name="Path 635" d="M314,412.84s3.06-2.83,4.71-1.88,8.49,9.9,7.08,10.84-2.36,0-3.77-1.88a16.5,16.5,0,0,0-3.54-3.3l-2.83.94" transform="translate(-255.675 -207.09)" fill="#fff" stroke="#263238" stroke-linecap="round" stroke-linejoin="round" stroke-width="1"/>
      <path id="Path_636" data-name="Path 636" d="M383.68,370.83l-12,40.83,8.68,6.06,19.61-31.52s8.06-9.1,3-14.22" transform="translate(-255.675 -207.09)" fill="#3874f2"/>
      <g id="Group_146" data-name="Group 146" transform="translate(116.005 163.74)" clip-path="url(#clip-path-5)">
        <g id="Group_145" data-name="Group 145" transform="translate(0.02 0.16)" opacity="0.1">
          <path id="Path_637" data-name="Path 637" d="M380.63,417.23l.15-.25,16.61-45.33-4.64-.28L376.7,415.19l1.8,1.25Z" transform="translate(-371.7 -370.99)"/>
          <path id="Path_638" data-name="Path 638" d="M371.7,411.69l3.77,2.64,15.5-42.94-.43-.15-4.15-.25Z" transform="translate(-371.7 -370.99)"/>
          <path id="Path_639" data-name="Path 639" d="M404.34,374.37a5.62,5.62,0,0,0-1.42-2.39l-2.38-.14L388,405.43l11.92-19.18Z" transform="translate(-371.7 -370.99)"/>
        </g>
      </g>
      <path id="Path_641" data-name="Path 641" d="M383.68,370.83l-12,40.83,8.68,6.06,19.61-31.52s8.06-9.1,3-14.22" transform="translate(-255.675 -207.09)" fill="none" stroke="#263238" stroke-linecap="round" stroke-linejoin="round" stroke-width="1"/>
      <path id="Path_642" data-name="Path 642" d="M377.72,409.07c-1-.56-18.4-4.72-18.63-2.59s-5.43,4.48-7.78,4.48-4.72-1.89-5.19.94,2.12,3.07,4.24,3.3,9.44-2.12,9.44-2.12,6.84,5.66,9.67,7.07,8,1,9.9-.47S383.85,412.37,377.72,409.07Z" transform="translate(-255.675 -207.09)" fill="#fff" stroke="#263238" stroke-linecap="round" stroke-linejoin="round" stroke-width="1"/>
      <path id="Path_643" data-name="Path 643" d="M361.68,406.24s-6.6-1.89-8-1.18-2.12,14.86-2.12,14.86.71,1.41,2.12,0,6.14-12,6.14-12" transform="translate(-255.675 -207.09)" fill="#fff" stroke="#263238" stroke-linecap="round" stroke-linejoin="round" stroke-width="1"/>
      <path id="Path_644" data-name="Path 644" d="M365,406.71s-6.83-1.65-8.25.94-5,14.15-2.12,14.63,3.77-3.31,3.77-3.31l4.48-8.25,3.07-.47" transform="translate(-255.675 -207.09)" fill="#fff" stroke="#263238" stroke-linecap="round" stroke-linejoin="round" stroke-width="1"/>
      <path id="Path_645" data-name="Path 645" d="M367.34,408.83s-3.3-1.41-4.95-.23-9.2,13.2-7.78,13.68,4.71.23,5.19-.71,6.6-9,6.6-9" transform="translate(-255.675 -207.09)" fill="#fff" stroke="#263238" stroke-linecap="round" stroke-linejoin="round" stroke-width="1"/>
      <path id="Path_646" data-name="Path 646" d="M369.7,412.84S366.64,410,365,411s-8.49,9.9-7.07,10.84,2.36,0,3.77-1.88a16.5,16.5,0,0,1,3.54-3.3l2.83.94" transform="translate(-255.675 -207.09)" fill="#fff" stroke="#263238" stroke-linecap="round" stroke-linejoin="round" stroke-width="1"/>
      <path id="Path_647" data-name="Path 647" d="M323.66,292.13s-5.71,1.76-8.13,5.28.44,30.77.44,30.77l18.25-10.11,19.12,12.09s-1.76-27.91-3.3-31.87-11.21-8.57-14.51-8.13S323.66,292.13,323.66,292.13Z" transform="translate(-255.675 -207.09)" fill="#3874f2" stroke="#263238" stroke-linecap="round" stroke-linejoin="round" stroke-width="1"/>
      <path id="Path_648" data-name="Path 648" d="M321.03,276.97v25.28l12.09,32.53,10.33-33.19V276.75Z" transform="translate(-255.675 -207.09)" fill="#fff" stroke="#263238" stroke-linecap="round" stroke-linejoin="round" stroke-width="1"/>
      <path id="Path_649" data-name="Path 649" d="M321,286.05a20.23,20.23,0,0,0,11.65,3.67h0a20.2,20.2,0,0,0,10.77-3.1v-9.87L321,277Z" transform="translate(-255.675 -207.09)" fill="#263238" stroke="#263238" stroke-linecap="round" stroke-linejoin="round" stroke-width="1"/>
      <path id="Path_650" data-name="Path 650" d="M332.68,284h0a20.37,20.37,0,0,1-20.37-20.36L308.72,235a24,24,0,0,1,24-24h0a24,24,0,0,1,24,24L353,263.6A20.36,20.36,0,0,1,332.68,284Z" transform="translate(-255.675 -207.09)" fill="#fff" stroke="#263238" stroke-linecap="round" stroke-linejoin="round" stroke-width="1"/>
      <path id="Path_651" data-name="Path 651" d="M337.91,255.8s5.19-4.35,11.39.34" transform="translate(-255.675 -207.09)" fill="none" stroke="#263238" stroke-linecap="round" stroke-linejoin="round" stroke-width="1"/>
      <path id="Path_652" data-name="Path 652" d="M328.53,255.3a7.86,7.86,0,0,0-5.19-1.17" transform="translate(-255.675 -207.09)" fill="none" stroke="#263238" stroke-linecap="round" stroke-linejoin="round" stroke-width="1"/>
      <path id="Path_653" data-name="Path 653" d="M339.92,245.42s5.53-2.68,8.88,2.51" transform="translate(-255.675 -207.09)" fill="none" stroke="#263238" stroke-linecap="round" stroke-linejoin="round" stroke-width="1"/>
      <path id="Path_654" data-name="Path 654" d="M331,267.36s2.35,1.84,4.36,0" transform="translate(-255.675 -207.09)" fill="none" stroke="#263238" stroke-linecap="round" stroke-linejoin="round" stroke-width="1"/>
      <path id="Path_655" data-name="Path 655" d="M328.7,271.38s4.86,3,7.7,0" transform="translate(-255.675 -207.09)" fill="none" stroke="#263238" stroke-linecap="round" stroke-linejoin="round" stroke-width="1"/>
      <path id="Path_656" data-name="Path 656" d="M342.92,232s-20.08,18.54-25.68,32.05-.58,27.62,2.51,31.68,5,4.63,5,4.63-10.62,4.06-17.57-6.56-5.22-22.6-3.09-30.9,1.54-32.64,6.37-40.75,11.78-14.1,23.37-12.75,17.76,7.34,21.43,14.87,1.93,20.28,3.09,25.88,6.18,22.4,7.34,32.44S353.16,299.78,351,300.75a12.851,12.851,0,0,1-4.63,1s4.63-23.17,5.6-36.5S353,244,353,244,343.89,232.58,342.92,232Z" transform="translate(-255.675 -207.09)" fill="#263238"/>
      <g id="Group_147" data-name="Group 147" transform="translate(46.536 2.12)" clip-path="url(#clip-path-6)">
        <path id="Path_657" data-name="Path 657" d="M340.57,219s-2.37,6.53-19.42,25.24-21.68,36.56-16.5,54" transform="translate(-302.21 -209.21)" fill="none" stroke="#707070" stroke-miterlimit="10" stroke-width="1"/>
        <path id="Path_658" data-name="Path 658" d="M336.36,212.48s-9.38,7.77-21,19.41a108.812,108.812,0,0,0-18.12,24.27" transform="translate(-302.21 -209.209)" fill="none" stroke="#707070" stroke-miterlimit="10" stroke-width="1"/>
        <path id="Path_659" data-name="Path 659" d="M344.77,220.57s7.12,12.94,11,20.71,8.42,51.44-5.17,67" transform="translate(-302.21 -209.21)" fill="none" stroke="#707070" stroke-miterlimit="10" stroke-width="1"/>
        <line id="Line_160" data-name="Line 160" x2="3" y2="22.11" transform="translate(37.71 0.68)" fill="none" stroke="#707070" stroke-miterlimit="10" stroke-width="1"/>
      </g>
      <path id="Path_661" data-name="Path 661" d="M342.92,232s-20.08,18.54-25.68,32.05-.58,27.62,2.51,31.68,5,4.63,5,4.63-10.62,4.06-17.57-6.56-5.22-22.6-3.09-30.9,1.54-32.64,6.37-40.75,11.78-14.1,23.37-12.75,17.76,7.34,21.43,14.87,1.93,20.28,3.09,25.88,6.18,22.4,7.34,32.44S353.16,299.78,351,300.75a12.851,12.851,0,0,1-4.63,1s4.63-23.17,5.6-36.5S353,244,353,244,343.89,232.58,342.92,232Z" transform="translate(-255.675 -207.09)" fill="none" stroke="#263238" stroke-linecap="round" stroke-linejoin="round" stroke-width="1"/>
      <rect id="Rectangle_80" data-name="Rectangle 80" width="8.88" height="17.77" rx="2.96" transform="translate(45.145 37.85)" fill="#fff" stroke="#263238" stroke-linecap="round" stroke-linejoin="round" stroke-width="1"/>
      <rect id="Rectangle_81" data-name="Rectangle 81" width="8.88" height="17.77" rx="2.96" transform="translate(99.415 37.85)" fill="#fff" stroke="#263238" stroke-linecap="round" stroke-linejoin="round" stroke-width="1"/>
      <path id="Path_662" data-name="Path 662" d="M360.3,244.94v-9.66a28.19,28.19,0,0,0-28.19-28.19h0a28.2,28.2,0,0,0-28.2,28.19v9.66" transform="translate(-255.675 -207.09)" fill="none" stroke="#263238" stroke-linejoin="round" stroke-width="2"/>
      <path id="Path_663" data-name="Path 663" d="M359.53,262.62s-1.25,9.67-13.08,13.61" transform="translate(-255.675 -207.09)" fill="none" stroke="#263238" stroke-linecap="round" stroke-linejoin="round" stroke-width="1"/>
      <path id="Path_664" data-name="Path 664" d="M346,275.81c.5,1.45-.91,3.25-3.16,4s-4.46.24-5-1.21.91-3.25,3.15-4S345.53,274.36,346,275.81Z" transform="translate(-255.675 -207.09)" fill="none" stroke="#263238" stroke-linecap="round" stroke-linejoin="round" stroke-width="1"/>
    </g>
    <g id="freepik--character-1--inject-136" transform="translate(64.28 205.89)">
      <path id="Path_665" data-name="Path 665" d="M143.6,288.28l-41.32,19.69L114.2,424.74h82.37l11.65-118.71L169.39,288Z" transform="translate(-64.28 -205.89)" fill="#3874f2" stroke="#263238" stroke-linecap="round" stroke-linejoin="round" stroke-width="1"/>
      <circle id="Ellipse_60" data-name="Ellipse 60" cx="1.4" cy="1.4" r="1.4" transform="translate(94.48 115.22)" fill="#263238"/>
      <path id="Path_666" data-name="Path 666" d="M161.56,330.91a1.4,1.4,0,1,1-1.4-1.4A1.4,1.4,0,0,1,161.56,330.91Z" transform="translate(-64.28 -205.89)" fill="#263238"/>
      <path id="Path_667" data-name="Path 667" d="M174.49,294.24,163.2,306.83l-4.82,12.23-5.19-12.41-10.92-12.41V272.2h32.22Z" transform="translate(-64.28 -205.89)" fill="#fff" stroke="#263238" stroke-linecap="round" stroke-linejoin="round" stroke-width="1"/>
      <path id="Path_668" data-name="Path 668" d="M142.27,282a22.62,22.62,0,0,0,17.5,8.25h0a22.56,22.56,0,0,0,14.72-5.44V272.2H142.27Z" transform="translate(-64.28 -205.89)" fill="#263238" stroke="#263238" stroke-linecap="round" stroke-linejoin="round" stroke-width="1"/>
      <rect id="Rectangle_82" data-name="Rectangle 82" width="45.38" height="73.53" rx="20.42" transform="translate(72.8 4.63)" fill="#fff" stroke="#263238" stroke-linecap="round" stroke-linejoin="round" stroke-width="1"/>
      <path id="Path_669" data-name="Path 669" d="M164.12,243.12l-.67,16.07a3.4,3.4,0,0,1-2.29,3.15c-1.21.37-2.59,0-3.34-2.73" transform="translate(-64.28 -205.89)" fill="none" stroke="#263238" stroke-linecap="round" stroke-linejoin="round" stroke-width="1"/>
      <path id="Path_670" data-name="Path 670" d="M151,265.53h18s-3.15,6.86-9.26,6.86S151,265.53,151,265.53Z" transform="translate(-64.28 -205.89)" fill="#263238" stroke="#263238" stroke-linecap="round" stroke-linejoin="round" stroke-width="1"/>
      <path id="Path_671" data-name="Path 671" d="M152.28,267.94h15.16a14.768,14.768,0,0,0,1.5-2.41H151A13.111,13.111,0,0,0,152.28,267.94Z" transform="translate(-64.28 -205.89)" fill="#fff" stroke="#263238" stroke-linecap="round" stroke-linejoin="round" stroke-width="1"/>
      <ellipse id="Ellipse_61" data-name="Ellipse 61" cx="1.3" cy="3.06" rx="1.3" ry="3.06" transform="translate(85.21 38.34)" fill="#263238"/>
      <ellipse id="Ellipse_62" data-name="Ellipse 62" cx="1.3" cy="3.06" rx="1.3" ry="3.06" transform="translate(104.65 38.34)" fill="#263238"/>
      <path id="Path_672" data-name="Path 672" d="M166.16,239.23s4.44-2.78,9.45,1.67" transform="translate(-64.28 -205.89)" fill="none" stroke="#263238" stroke-linecap="round" stroke-linejoin="round" stroke-width="1"/>
      <path id="Path_673" data-name="Path 673" d="M159.77,210.52h0a22.69,22.69,0,0,0-22.69,22.69v20.67h2.04v-8.52s9.26,0,20.19-5.92S173,223.86,173,223.86s2.41,11.67,5,13.89l2.6,2.22v14.08h1.85V233.21A22.69,22.69,0,0,0,159.77,210.52Z" transform="translate(-64.28 -205.89)" fill="#263238" stroke="#263238" stroke-linecap="round" stroke-linejoin="round" stroke-width="1"/>
      <path id="Path_674" data-name="Path 674" d="M132.83,242.94h4.25v16.85h-4.25a4.08,4.08,0,0,1-4.08-4.08V247a4.08,4.08,0,0,1,4.08-4.06Z" transform="translate(-64.28 -205.89)" fill="#fff" stroke="#263238" stroke-linecap="round" stroke-linejoin="round" stroke-width="1"/>
      <path id="Path_675" data-name="Path 675" d="M4.08,0H8.33V16.85H4.08A4.08,4.08,0,0,1,0,12.77V4.06A4.08,4.08,0,0,1,4.08,0Z" transform="translate(126.24 53.9) rotate(180)" fill="#fff" stroke="#263238" stroke-linecap="round" stroke-linejoin="round" stroke-width="1"/>
      <path id="Path_676" data-name="Path 676" d="M133.38,242.94V232.19a26.3,26.3,0,0,1,26.3-26.3h0a26.31,26.31,0,0,1,26.3,26.3v10.75" transform="translate(-64.28 -205.89)" fill="none" stroke="#263238" stroke-linejoin="round" stroke-width="2"/>
      <path id="Path_677" data-name="Path 677" d="M186,259.79s-1.3,10-13.52,14.08" transform="translate(-64.28 -205.89)" fill="none" stroke="#263238" stroke-linecap="round" stroke-linejoin="round" stroke-width="1"/>
      <path id="Path_678" data-name="Path 678" d="M172,273.43c.52,1.5-.94,3.36-3.26,4.17s-4.62.24-5.14-1.26.94-3.36,3.26-4.17S171.51,271.93,172,273.43Z" transform="translate(-64.28 -205.89)" fill="none" stroke="#263238" stroke-linecap="round" stroke-linejoin="round" stroke-width="1"/>
      <path id="Path_679" data-name="Path 679" d="M102.28,307.97,67.33,381.92,81.75,394.5l26.07-32.72Z" transform="translate(-64.28 -205.89)" fill="#3874f2" stroke="#263238" stroke-linecap="round" stroke-linejoin="round" stroke-width="1"/>
      <path id="Path_680" data-name="Path 680" d="M99.41,330.64l8.49,28.64L97.82,342.83" transform="translate(-64.28 -205.89)" fill="none" stroke="#263238" stroke-miterlimit="10" stroke-width="1"/>
      <path id="Path_681" data-name="Path 681" d="M208.22,306.03l33.28,74.33-20.52,8.88-18.31-29.4Z" transform="translate(-64.28 -205.89)" fill="#3874f2" stroke="#263238" stroke-linecap="round" stroke-linejoin="round" stroke-width="1"/>
      <path id="Path_682" data-name="Path 682" d="M86.19,380.08l29.95,28.01-8.32,9.71L64.28,390.79l5-13.31" transform="translate(-64.28 -205.89)" fill="#3874f2" stroke="#263238" stroke-linecap="round" stroke-linejoin="round" stroke-width="1"/>
      <path id="Path_683" data-name="Path 683" d="M111.15,406.43c1.22-.66,21.63-5.55,21.91-3.05s6.38,5.27,9.15,5.27,5.55-2.22,6.1,1.11-2.49,3.6-5,3.88-11.09-2.5-11.09-2.5-8,6.66-11.37,8.33-9.43,1.1-11.65-.56S103.94,410.31,111.15,406.43Z" transform="translate(-64.28 -205.89)" fill="#fff" stroke="#263238" stroke-linecap="round" stroke-linejoin="round" stroke-width="1"/>
      <path id="Path_684" data-name="Path 684" d="M130,403.1s7.77-2.22,9.43-1.38,2.5,17.47,2.5,17.47-.84,1.66-2.5,0-7.2-14.19-7.2-14.19" transform="translate(-64.28 -205.89)" fill="#fff" stroke="#263238" stroke-linecap="round" stroke-linejoin="round" stroke-width="1"/>
      <path id="Path_685" data-name="Path 685" d="M126.13,403.66s8-1.94,9.7,1.11,5.83,16.64,2.5,17.19-4.44-3.88-4.44-3.88l-5.27-9.71-3.6-.55" transform="translate(-64.28 -205.89)" fill="#fff" stroke="#263238" stroke-linecap="round" stroke-linejoin="round" stroke-width="1"/>
      <path id="Path_686" data-name="Path 686" d="M123.35,406.15s3.89-1.66,5.83-.27S140,421.41,138.33,422s-5.55.28-6.1-.83-7.77-10.54-7.77-10.54" transform="translate(-64.28 -205.89)" fill="#fff" stroke="#263238" stroke-linecap="round" stroke-linejoin="round" stroke-width="1"/>
      <path id="Path_687" data-name="Path 687" d="M120.58,410.87s3.61-3.33,5.55-2.22,10,11.65,8.32,12.76-2.78,0-4.44-2.22a19.43,19.43,0,0,0-4.16-3.89l-3.33,1.11" transform="translate(-64.28 -205.89)" fill="#fff" stroke="#263238" stroke-linecap="round" stroke-linejoin="round" stroke-width="1"/>
      <path id="Path_688" data-name="Path 688" d="M215.95,373l-17.56,37.06,11.3,5.97,33.21-35.19-9.53-10.55" transform="translate(-64.28 -205.89)" fill="#3874f2" stroke="#263238" stroke-linecap="round" stroke-linejoin="round" stroke-width="1"/>
      <path id="Path_689" data-name="Path 689" d="M207.18,406.43c-1.22-.66-21.64-5.55-21.91-3.05s-6.38,5.27-9.16,5.27-5.54-2.22-6.1,1.11,2.5,3.6,5,3.88,11.09-2.5,11.09-2.5,8,6.66,11.37,8.33,9.43,1.1,11.65-.56S214.39,410.31,207.18,406.43Z" transform="translate(-64.28 -205.89)" fill="#fff" stroke="#263238" stroke-linecap="round" stroke-linejoin="round" stroke-width="1"/>
      <path id="Path_690" data-name="Path 690" d="M188.32,403.1s-7.77-2.22-9.43-1.38-2.5,17.47-2.5,17.47.83,1.66,2.5,0S186.1,405,186.1,405" transform="translate(-64.28 -205.89)" fill="#fff" stroke="#263238" stroke-linecap="round" stroke-linejoin="round" stroke-width="1"/>
      <path id="Path_691" data-name="Path 691" d="M192.2,403.66s-8-1.94-9.71,1.11S176.67,421.41,180,422s4.43-3.88,4.43-3.88l5.27-9.71,3.61-.55" transform="translate(-64.28 -205.89)" fill="#fff" stroke="#263238" stroke-linecap="round" stroke-linejoin="round" stroke-width="1"/>
      <path id="Path_692" data-name="Path 692" d="M195,406.15s-3.88-1.66-5.82-.27S178.33,421.41,180,422s5.54.28,6.1-.83,7.76-10.54,7.76-10.54" transform="translate(-64.28 -205.89)" fill="#fff" stroke="#263238" stroke-linecap="round" stroke-linejoin="round" stroke-width="1"/>
      <path id="Path_693" data-name="Path 693" d="M197.75,410.87s-3.61-3.33-5.55-2.22-10,11.65-8.32,12.76,2.77,0,4.44-2.22a19.43,19.43,0,0,1,4.16-3.89l3.33,1.11" transform="translate(-64.28 -205.89)" fill="#fff" stroke="#263238" stroke-linecap="round" stroke-linejoin="round" stroke-width="1"/>
    </g>
    <g id="freepik--text-balloon--inject-136" transform="translate(183.29 168.21)">
      <path id="Path_694" data-name="Path 694" d="M259.66,168.21h-65a11.37,11.37,0,0,0-11.37,11.36v19A11.37,11.37,0,0,0,194.64,210h8l-10.91,14.27L216.26,210h43.4A11.37,11.37,0,0,0,271,198.6v-19A11.37,11.37,0,0,0,259.66,168.21Z" transform="translate(-183.29 -168.21)" fill="#fff" stroke="#263238" stroke-miterlimit="10" stroke-width="1"/>
      <path id="Path_695" data-name="Path 695" d="M218.23,190.41a2.65,2.65,0,1,1-2.65-2.64,2.65,2.65,0,0,1,2.65,2.64Z" transform="translate(-183.29 -168.21)" fill="#263238"/>
      <path id="Path_696" data-name="Path 696" d="M229.79,190.41a2.65,2.65,0,1,1-2.64-2.64,2.65,2.65,0,0,1,2.64,2.64Z" transform="translate(-183.29 -168.21)" fill="#263238"/>
      <path id="Path_697" data-name="Path 697" d="M241.35,190.41a2.64,2.64,0,1,1-2.64-2.64A2.64,2.64,0,0,1,241.35,190.41Z" transform="translate(-183.29 -168.21)" fill="#263238"/>
    </g>
    <g id="freepik--device-2--inject-136" transform="translate(271.31 335.91)">
      <rect id="Rectangle_83" data-name="Rectangle 83" width="121.14" height="4.89" transform="translate(0 85.82)" fill="#fff" stroke="#263238" stroke-linecap="round" stroke-linejoin="round" stroke-width="1"/>
      <rect id="Rectangle_84" data-name="Rectangle 84" width="105.59" height="4.89" transform="translate(34.16 85.82)" fill="#fff" stroke="#263238" stroke-linecap="round" stroke-linejoin="round" stroke-width="1"/>
      <path id="Path_698" data-name="Path 698" d="M413.11,413.04H312.09l10.89-77.13H424Z" transform="translate(-271.31 -335.91)" fill="#fff" stroke="#263238" stroke-linecap="round" stroke-linejoin="round" stroke-width="1"/>
      <path id="Path_699" data-name="Path 699" d="M417.29,413.04H316.27l10.89-77.13H428.18Z" transform="translate(-271.31 -335.91)" fill="#263238" stroke="#263238" stroke-linecap="round" stroke-linejoin="round" stroke-width="1"/>
      <path id="Path_700" data-name="Path 700" d="M386.33,377.19l10.14,49.42H370.4l-10.13-49.42Zm-17.68,14.67a.92.92,0,0,0,.9.7l14.77-.14a.92.92,0,0,0,.88-1.14l-1.33-5.54a.93.93,0,0,0-.9-.71l-14.77.14a.93.93,0,0,0-.89,1.14Z" transform="translate(-271.31 -335.91)" fill="#fff" stroke="#263238" stroke-linecap="round" stroke-linejoin="round" stroke-width="1"/>
    </g>
    <g id="freepik--device-1--inject-136" transform="translate(92.13 335.91)">
      <rect id="Rectangle_85" data-name="Rectangle 85" width="121.14" height="4.89" transform="translate(0 85.82)" fill="#fff" stroke="#263238" stroke-linecap="round" stroke-linejoin="round" stroke-width="1"/>
      <rect id="Rectangle_86" data-name="Rectangle 86" width="105.59" height="4.89" transform="translate(34.16 85.82)" fill="#fff" stroke="#263238" stroke-linecap="round" stroke-linejoin="round" stroke-width="1"/>
      <path id="Path_701" data-name="Path 701" d="M233.93,413.04H132.91l10.89-77.13H244.82Z" transform="translate(-92.13 -335.91)" fill="#fff" stroke="#263238" stroke-linecap="round" stroke-linejoin="round" stroke-width="1"/>
      <path id="Path_702" data-name="Path 702" d="M238.11,413.04H137.09l10.89-77.13H249Z" transform="translate(-92.13 -335.91)" fill="#263238" stroke="#263238" stroke-linecap="round" stroke-linejoin="round" stroke-width="1"/>
      <path id="Path_703" data-name="Path 703" d="M207.16,377.19l10.13,49.42H191.22l-10.13-49.42Zm-17.69,14.67a.93.93,0,0,0,.9.7l14.77-.14a.93.93,0,0,0,.89-1.14l-1.34-5.54a.92.92,0,0,0-.9-.71l-14.77.14a.92.92,0,0,0-.88,1.14Z" transform="translate(-92.13 -335.91)" fill="#fff" stroke="#263238" stroke-linecap="round" stroke-linejoin="round" stroke-width="1"/>
    </g>
    <g id="freepik--Table--inject-136" transform="translate(29.83 426.61)">
      <rect id="Rectangle_87" data-name="Rectangle 87" width="430.92" height="4.84" transform="translate(0 0)" fill="#263238" stroke="#263238" stroke-linecap="round" stroke-linejoin="round" stroke-width="1"/>
    </g>
  </g>
</svg>
