<svg xmlns="http://www.w3.org/2000/svg" xmlns:xlink="http://www.w3.org/1999/xlink" width="589.966" height="386.263" viewBox="0 0 589.966 386.263">
  <defs>
    <clipPath id="clip-path">
      <path id="Path_464" data-name="Path 464" d="M93.38,244.81l7.385,59.932c0,9.6,17.927,17.4,40.048,17.4s40.048-7.8,40.048-17.4l7.385-59.932Z" transform="translate(-93.38 -244.81)" fill="#fff" stroke="#263238" stroke-linecap="round" stroke-linejoin="round" stroke-width="1"/>
    </clipPath>
  </defs>
  <g id="Group_179" data-name="Group 179" transform="translate(-723.346 -3234.925)">
    <g id="freepik--Plant--inject-46" transform="translate(723.346 3281.689)">
      <ellipse id="Ellipse_57" data-name="Ellipse 57" cx="52.958" cy="19.654" rx="52.958" ry="19.654" transform="translate(15.032 206.011)" fill="#263238"/>
      <path id="Path_461" data-name="Path 461" d="M93.38,244.81l7.385,59.932c0,9.6,17.927,17.4,40.048,17.4s40.048-7.8,40.048-17.4l7.385-59.932Z" transform="translate(-56.309 -81.067)" fill="#fff"/>
      <g id="Group_126" data-name="Group 126" transform="translate(37.071 163.743)" clip-path="url(#clip-path)">
        <path id="Path_462" data-name="Path 462" d="M133.872,244.81H93.38l7.385,59.932c0,9.6,17.927,17.4,40.048,17.4q2.154,0,4.243-.1C132.441,299.676,132.227,266.849,133.872,244.81Z" transform="translate(-93.38 -244.81)" fill="#3874f2"/>
        <path id="Path_463" data-name="Path 463" d="M133.872,244.81H93.38l7.385,59.932c0,9.6,17.927,17.4,40.048,17.4q2.154,0,4.243-.1C132.441,299.676,132.227,266.849,133.872,244.81Z" transform="translate(-93.38 -244.81)" fill="#fff" opacity="0.4"/>
      </g>
      <path id="Path_465" data-name="Path 465" d="M93.38,244.81l7.385,59.932c0,9.6,17.927,17.4,40.048,17.4s40.048-7.8,40.048-17.4l7.385-59.932Z" transform="translate(-56.309 -81.067)" fill="none" stroke="#263238" stroke-linecap="round" stroke-linejoin="round" stroke-width="1"/>
      <ellipse id="Ellipse_58" data-name="Ellipse 58" cx="47.432" cy="20.608" rx="47.432" ry="20.608" transform="translate(37.071 143.135)" fill="#fff" stroke="#263238" stroke-linecap="round" stroke-linejoin="round" stroke-width="1"/>
      <ellipse id="Ellipse_59" data-name="Ellipse 59" cx="42.383" cy="17.927" rx="42.383" ry="17.927" transform="translate(42.12 145.274)" fill="#263238" stroke="#263238" stroke-linecap="round" stroke-linejoin="round" stroke-width="1"/>
      <path id="Path_466" data-name="Path 466" d="M142.121,278.776s-3.783-34.9-27.351-61.313-17.8-23.173-17.8-23.173" transform="translate(-54.394 -113.717)" fill="none" stroke="#263238" stroke-linecap="round" stroke-linejoin="round" stroke-width="1"/>
      <path id="Path_467" data-name="Path 467" d="M163.969,182.52s-28.288,28.3-33.009,60.376-1.645,37.252-1.645,37.252" transform="translate(-33.777 -121.223)" fill="none" stroke="#263238" stroke-linecap="round" stroke-linejoin="round" stroke-width="1"/>
      <path id="Path_468" data-name="Path 468" d="M132.77,291.378s-5.526-19.736-11.184-59.389-2.829-60.359-2.829-60.359" transform="translate(-40.405 -128.244)" fill="none" stroke="#263238" stroke-linecap="round" stroke-linejoin="round" stroke-width="1"/>
      <path id="Path_469" data-name="Path 469" d="M109.529,218.3s-7.911,8.585-20.081-8.223-8.125-36.413-8.125-36.413,6.2,9.457,15.591,13.437S120.022,213.691,109.529,218.3Z" transform="translate(-64.498 -126.935)" fill="#3874f2"/>
      <path id="Path_470" data-name="Path 470" d="M123.26,198.06s-11.315,2.829-12.253-17.91,13.157-34.9,13.157-34.9,0,11.315,5.658,19.736S134.592,199.952,123.26,198.06Z" transform="translate(-44.974 -145.25)" fill="#3874f2"/>
      <path id="Path_471" data-name="Path 471" d="M148.8,206.006s-11.019-3.832-.444-21.693,30.163-21.973,30.163-21.973-6.2,9.473-6.118,19.736S157.305,213.785,148.8,206.006Z" transform="translate(-23.824 -134.233)" fill="#3874f2"/>
      <path id="Path_472" data-name="Path 472" d="M162.333,268.25s7.549-33.962,23.585-49.981a51.478,51.478,0,0,1,35.837-15.1s-18.864,7.549-24.522,22.631S182.1,273.907,182.1,273.907H135s-5.674-12.253-21.71-26.413S70.84,223.926,70.84,223.926s29.242-10.378,50-1.891,35.837,44.406,35.837,44.406Z" transform="translate(-70.84 -107.911)" fill="#3874f2"/>
      <path id="Path_473" data-name="Path 473" d="M155.587,246.981s-18.716-12.845-39.143-10.707-22.121,18.733-23.025,23.552a55.525,55.525,0,0,0-.839,8.569s26.315-8.026,42.531-10.707S158.136,262.507,155.587,246.981Z" transform="translate(-56.825 -86.724)" fill="#3874f2"/>
      <path id="Path_474" data-name="Path 474" d="M126.778,246.981s11.776-12.845,24.67-10.707,13.914,18.733,14.44,23.552a85.177,85.177,0,0,1,.543,8.569s-16.595-8.026-26.759-10.707S125.167,262.507,126.778,246.981Z" transform="translate(-34.989 -86.724)" fill="#3874f2"/>
    </g>
    <g id="freepik--Device--inject-46" transform="translate(814.987 3235.425)">
      <path id="Path_475" data-name="Path 475" d="M174.858,117.12H530.863a13.388,13.388,0,0,1,13.388,13.388V379.379H161.47V130.491A13.388,13.388,0,0,1,174.858,117.12Z" transform="translate(-104.055 -117.12)" fill="#263238" stroke="#263238" stroke-linecap="round" stroke-linejoin="round" stroke-width="1"/>
      <path id="Path_476" data-name="Path 476" d="M624.155,392.513H126.56L183.975,276.58H566.739Z" transform="translate(-126.56 -14.321)" fill="#fff" stroke="#263238" stroke-linecap="round" stroke-linejoin="round" stroke-width="1"/>
      <rect id="Rectangle_68" data-name="Rectangle 68" width="336.401" height="220.731" transform="translate(80.605 20.756)" fill="#3874f2" stroke="#263238" stroke-linecap="round" stroke-linejoin="round" stroke-width="1"/>
      <rect id="Rectangle_70" data-name="Rectangle 70" width="324.839" height="26.413" transform="translate(85.819 27.269)" fill="#263238"/>
      <line id="Line_125" data-name="Line 125" x2="32.203" transform="translate(243.362 42.317)" fill="none" stroke="#fff" stroke-miterlimit="10" stroke-width="2"/>
      <line id="Line_126" data-name="Line 126" x2="32.203" transform="translate(312.816 42.317)" fill="none" stroke="#fff" stroke-miterlimit="10" stroke-width="2"/>
      <path id="Path_491" data-name="Path 491" d="M308.11,152.758H189.2a7.911,7.911,0,0,1-7.911-7.927h0a7.911,7.911,0,0,1,7.911-7.911h118.91a7.911,7.911,0,0,1,7.911,7.911h0a7.911,7.911,0,0,1-7.911,7.927Z" transform="translate(-91.277 -104.356)" fill="#fff"/>
      <line id="Line_127" data-name="Line 127" x2="48.682" transform="translate(116.031 205.649)" fill="none" stroke="#263238" stroke-linecap="round" stroke-linejoin="round" stroke-width="2"/>
      <line id="Line_128" data-name="Line 128" x2="48.682" transform="translate(116.031 214.876)" fill="none" stroke="#263238" stroke-linecap="round" stroke-linejoin="round" stroke-width="2"/>
      <line id="Line_129" data-name="Line 129" x2="48.699" transform="translate(225.977 205.649)" fill="none" stroke="#263238" stroke-linecap="round" stroke-linejoin="round" stroke-width="2"/>
      <line id="Line_130" data-name="Line 130" x2="48.699" transform="translate(225.977 214.876)" fill="none" stroke="#263238" stroke-linecap="round" stroke-linejoin="round" stroke-width="2"/>
      <line id="Line_131" data-name="Line 131" x2="48.682" transform="translate(335.94 205.649)" fill="none" stroke="#263238" stroke-linecap="round" stroke-linejoin="round" stroke-width="2"/>
      <line id="Line_132" data-name="Line 132" x2="48.682" transform="translate(335.94 214.876)" fill="none" stroke="#263238" stroke-linecap="round" stroke-linejoin="round" stroke-width="2"/>
      <path id="Path_492" data-name="Path 492" d="M276.324,304.438l.658-14.128H256.769l-1.349,14.128Z" transform="translate(-43.488 -5.47)" fill="#263238" stroke="#fff" stroke-linecap="round" stroke-linejoin="round" stroke-width="1"/>
      <path id="Path_493" data-name="Path 493" d="M301.75,304.438l-.691-14.128H280.83l.016,14.128Z" transform="translate(-27.107 -5.47)" fill="#263238" stroke="#fff" stroke-linecap="round" stroke-linejoin="round" stroke-width="1"/>
      <path id="Path_494" data-name="Path 494" d="M361.448,314h21.611l-5.066-15.1h-20.9Z" transform="translate(22.055 0.068)" fill="#263238" stroke="#fff" stroke-linecap="round" stroke-linejoin="round" stroke-width="1"/>
      <path id="Path_495" data-name="Path 495" d="M263.607,304.438l1.349-14.128H244.727l-2.007,14.128Z" transform="translate(-51.675 -5.47)" fill="#263238" stroke="#fff" stroke-linecap="round" stroke-linejoin="round" stroke-width="1"/>
      <path id="Path_496" data-name="Path 496" d="M238.2,304.438l2.681-14.128H220.672L217.3,304.438Z" transform="translate(-68.063 -5.47)" fill="#263238" stroke="#fff" stroke-linecap="round" stroke-linejoin="round" stroke-width="1"/>
      <path id="Path_497" data-name="Path 497" d="M353.637,304.438l-3.388-14.128H330.02l2.714,14.128Z" transform="translate(4.604 -5.47)" fill="#263238" stroke="#fff" stroke-linecap="round" stroke-linejoin="round" stroke-width="1"/>
      <path id="Path_498" data-name="Path 498" d="M366.612,304.438l-4.079-14.128H342.32l3.388,14.128Z" transform="translate(12.534 -5.47)" fill="#263238" stroke="#fff" stroke-linecap="round" stroke-linejoin="round" stroke-width="1"/>
      <path id="Path_499" data-name="Path 499" d="M225.494,304.438l3.372-14.128H208.636l-4.046,14.128Z" transform="translate(-76.257 -5.47)" fill="#263238" stroke="#fff" stroke-linecap="round" stroke-linejoin="round" stroke-width="1"/>
      <path id="Path_500" data-name="Path 500" d="M314.725,304.438l-1.365-14.128H293.13l.691,14.128Z" transform="translate(-19.178 -5.47)" fill="#263238" stroke="#fff" stroke-linecap="round" stroke-linejoin="round" stroke-width="1"/>
      <path id="Path_501" data-name="Path 501" d="M379.593,304.438l-4.753-14.128H354.61l4.079,14.128Z" transform="translate(20.457 -5.47)" fill="#263238" stroke="#fff" stroke-linecap="round" stroke-linejoin="round" stroke-width="1"/>
      <path id="Path_502" data-name="Path 502" d="M340.663,304.438l-2.714-14.128H317.72l2.039,14.128Z" transform="translate(-3.325 -5.47)" fill="#263238" stroke="#fff" stroke-linecap="round" stroke-linejoin="round" stroke-width="1"/>
      <path id="Path_503" data-name="Path 503" d="M327.682,304.438l-2.039-14.128H305.43l1.365,14.128Z" transform="translate(-11.248 -5.47)" fill="#263238" stroke="#fff" stroke-linecap="round" stroke-linejoin="round" stroke-width="1"/>
      <path id="Path_504" data-name="Path 504" d="M289.034,304.438l-.016-14.128H268.788l-.658,14.128Z" transform="translate(-35.294 -5.47)" fill="#263238" stroke="#fff" stroke-linecap="round" stroke-linejoin="round" stroke-width="1"/>
      <path id="Path_505" data-name="Path 505" d="M202.337,298.9h-20.9L175.66,314h21.627Z" transform="translate(-94.907 0.068)" fill="#263238" stroke="#fff" stroke-linecap="round" stroke-linejoin="round" stroke-width="1"/>
      <path id="Path_506" data-name="Path 506" d="M204.794,290.31H184.581l-5.411,14.128h20.9Z" transform="translate(-92.644 -5.47)" fill="#263238" stroke="#fff" stroke-linecap="round" stroke-linejoin="round" stroke-width="1"/>
      <path id="Path_507" data-name="Path 507" d="M212.784,304.438l4.046-14.128H196.6l-4.72,14.128Z" transform="translate(-84.45 -5.47)" fill="#263238" stroke="#fff" stroke-linecap="round" stroke-linejoin="round" stroke-width="1"/>
      <path id="Path_508" data-name="Path 508" d="M174.5,317.92l-6.644,17.4H191.1l5.806-17.4Z" transform="translate(-99.935 12.329)" fill="#263238" stroke="#fff" stroke-linecap="round" stroke-linejoin="round" stroke-width="1"/>
      <path id="Path_509" data-name="Path 509" d="M199.711,308.08H178.084L171.9,324.264h22.4Z" transform="translate(-97.331 5.986)" fill="#263238" stroke="#fff" stroke-linecap="round" stroke-linejoin="round" stroke-width="1"/>
      <path id="Path_510" data-name="Path 510" d="M187.8,317.92l-5.806,17.4h23.239l4.967-17.4Z" transform="translate(-90.826 12.329)" fill="#263238" stroke="#fff" stroke-linecap="round" stroke-linejoin="round" stroke-width="1"/>
      <path id="Path_511" data-name="Path 511" d="M250.914,304.438l2.007-14.128H232.691l-2.681,14.128Z" transform="translate(-59.869 -5.47)" fill="#263238" stroke="#fff" stroke-linecap="round" stroke-linejoin="round" stroke-width="1"/>
      <path id="Path_512" data-name="Path 512" d="M249.871,314l2.171-15.1h-20.9L228.26,314Z" transform="translate(-60.997 0.068)" fill="#263238" stroke="#fff" stroke-linecap="round" stroke-linejoin="round" stroke-width="1"/>
      <path id="Path_513" data-name="Path 513" d="M236.737,314l2.878-15.1h-20.9l-3.6,15.1Z" transform="translate(-69.475 0.068)" fill="#263238" stroke="#fff" stroke-linecap="round" stroke-linejoin="round" stroke-width="1"/>
      <path id="Path_514" data-name="Path 514" d="M263.027,314l1.431-15.1H243.571L241.4,314Z" transform="translate(-52.526 0.068)" fill="#263238" stroke="#fff" stroke-linecap="round" stroke-linejoin="round" stroke-width="1"/>
      <path id="Path_515" data-name="Path 515" d="M214.763,298.9h-20.9L188.81,314h21.627Z" transform="translate(-86.429 0.068)" fill="#263238" stroke="#fff" stroke-linecap="round" stroke-linejoin="round" stroke-width="1"/>
      <path id="Path_516" data-name="Path 516" d="M364.394,324.264h22.4l-5.444-16.184H359.74Z" transform="translate(23.764 5.986)" fill="#263238" stroke="#fff" stroke-linecap="round" stroke-linejoin="round" stroke-width="1"/>
      <path id="Path_517" data-name="Path 517" d="M223.587,314l3.6-15.1h-20.9L201.96,314Z" transform="translate(-77.952 0.068)" fill="#263238" stroke="#fff" stroke-linecap="round" stroke-linejoin="round" stroke-width="1"/>
      <path id="Path_518" data-name="Path 518" d="M190.931,308.08l-5.411,16.184h22.4l4.638-16.184Z" transform="translate(-88.55 5.986)" fill="#263238" stroke="#fff" stroke-linecap="round" stroke-linejoin="round" stroke-width="1"/>
      <path id="Path_519" data-name="Path 519" d="M342.775,314l-2.911-15.1h-20.9l2.187,15.1Z" transform="translate(-2.526 0.068)" fill="#263238" stroke="#fff" stroke-linecap="round" stroke-linejoin="round" stroke-width="1"/>
      <path id="Path_520" data-name="Path 520" d="M329.335,314l-2.187-15.1H306.26l1.447,15.1Z" transform="translate(-10.713 0.068)" fill="#263238" stroke="#fff" stroke-linecap="round" stroke-linejoin="round" stroke-width="1"/>
      <path id="Path_521" data-name="Path 521" d="M369.642,314l-4.358-15.1h-20.9l3.635,15.1Z" transform="translate(13.862 0.068)" fill="#263238" stroke="#fff" stroke-linecap="round" stroke-linejoin="round" stroke-width="1"/>
      <path id="Path_522" data-name="Path 522" d="M289.327,314l-.016-15.1h-20.9L267.7,314Z" transform="translate(-35.571 0.068)" fill="#263238" stroke="#fff" stroke-linecap="round" stroke-linejoin="round" stroke-width="1"/>
      <path id="Path_523" data-name="Path 523" d="M315.9,314l-1.447-15.1h-20.9l.74,15.1Z" transform="translate(-18.907 0.068)" fill="#263238" stroke="#fff" stroke-linecap="round" stroke-linejoin="round" stroke-width="1"/>
      <path id="Path_524" data-name="Path 524" d="M302.484,314l-.74-15.1h-20.9l.016,15.1Z" transform="translate(-27.101 0.068)" fill="#263238" stroke="#fff" stroke-linecap="round" stroke-linejoin="round" stroke-width="1"/>
      <path id="Path_525" data-name="Path 525" d="M276.177,314l.707-15.1h-20.9L254.55,314Z" transform="translate(-44.049 0.068)" fill="#263238" stroke="#fff" stroke-linecap="round" stroke-linejoin="round" stroke-width="1"/>
      <path id="Path_526" data-name="Path 526" d="M307.14,308.08l1.579,16.184H331.1l-2.335-16.184Z" transform="translate(-10.146 5.986)" fill="#263238" stroke="#fff" stroke-linecap="round" stroke-linejoin="round" stroke-width="1"/>
      <path id="Path_527" data-name="Path 527" d="M320.29,308.08l2.335,16.184h22.4l-3.108-16.184Z" transform="translate(-1.668 5.986)" fill="#263238" stroke="#fff" stroke-linecap="round" stroke-linejoin="round" stroke-width="1"/>
      <path id="Path_528" data-name="Path 528" d="M203.778,308.08l-4.638,16.184h22.4l3.865-16.184Z" transform="translate(-79.77 5.986)" fill="#263238" stroke="#fff" stroke-linecap="round" stroke-linejoin="round" stroke-width="1"/>
      <path id="Path_529" data-name="Path 529" d="M333.44,308.08l3.108,16.184h22.4l-3.881-16.184Z" transform="translate(6.809 5.986)" fill="#263238" stroke="#fff" stroke-linecap="round" stroke-linejoin="round" stroke-width="1"/>
      <path id="Path_530" data-name="Path 530" d="M280.85,308.08l.016,16.184h22.4l-.789-16.184Z" transform="translate(-27.094 5.986)" fill="#263238" stroke="#fff" stroke-linecap="round" stroke-linejoin="round" stroke-width="1"/>
      <path id="Path_531" data-name="Path 531" d="M346.59,308.08l3.881,16.184h22.4l-4.654-16.184Z" transform="translate(15.286 5.986)" fill="#263238" stroke="#fff" stroke-linecap="round" stroke-linejoin="round" stroke-width="1"/>
      <path id="Path_532" data-name="Path 532" d="M294,308.08l.789,16.184h22.4l-1.579-16.184Z" transform="translate(-18.617 5.986)" fill="#263238" stroke="#fff" stroke-linecap="round" stroke-linejoin="round" stroke-width="1"/>
      <path id="Path_533" data-name="Path 533" d="M229.472,308.08l-3.092,16.184h22.4l2.3-16.184Z" transform="translate(-62.209 5.986)" fill="#263238" stroke="#fff" stroke-linecap="round" stroke-linejoin="round" stroke-width="1"/>
      <path id="Path_534" data-name="Path 534" d="M216.625,308.08l-3.865,16.184h22.4l3.092-16.184Z" transform="translate(-70.99 5.986)" fill="#263238" stroke="#fff" stroke-linecap="round" stroke-linejoin="round" stroke-width="1"/>
      <path id="Path_535" data-name="Path 535" d="M268,308.08l-.757,16.184h22.4l-.016-16.184Z" transform="translate(-35.868 5.986)" fill="#263238" stroke="#fff" stroke-linecap="round" stroke-linejoin="round" stroke-width="1"/>
      <path id="Path_536" data-name="Path 536" d="M255.15,308.08l-1.53,16.184h22.4l.757-16.184Z" transform="translate(-44.648 5.986)" fill="#263238" stroke="#fff" stroke-linecap="round" stroke-linejoin="round" stroke-width="1"/>
      <path id="Path_537" data-name="Path 537" d="M242.3,308.08,240,324.264h22.4l1.53-16.184Z" transform="translate(-53.429 5.986)" fill="#263238" stroke="#fff" stroke-linecap="round" stroke-linejoin="round" stroke-width="1"/>
      <path id="Path_538" data-name="Path 538" d="M356.208,314l-3.635-15.1h-20.9l2.911,15.1Z" transform="translate(5.668 0.068)" fill="#263238" stroke="#fff" stroke-linecap="round" stroke-linejoin="round" stroke-width="1"/>
      <path id="Path_539" data-name="Path 539" d="M202.673,295.983l4.835-14.473H187.97l-5.51,14.473Z" transform="translate(-90.523 -11.143)" fill="#263238" stroke="#fff" stroke-linecap="round" stroke-linejoin="round" stroke-width="1"/>
      <path id="Path_540" data-name="Path 540" d="M192.143,290.31H173.459l-6.019,14.128h19.292Z" transform="translate(-100.206 -5.47)" fill="#263238" stroke="#fff" stroke-linecap="round" stroke-linejoin="round" stroke-width="1"/>
      <path id="Path_541" data-name="Path 541" d="M195.293,281.51H177.268L171.1,295.983h18.683Z" transform="translate(-97.846 -11.143)" fill="#263238" stroke="#fff" stroke-linecap="round" stroke-linejoin="round" stroke-width="1"/>
      <path id="Path_542" data-name="Path 542" d="M189.253,298.9H169.961L163.53,314h19.95Z" transform="translate(-102.727 0.068)" fill="#263238" stroke="#fff" stroke-linecap="round" stroke-linejoin="round" stroke-width="1"/>
      <path id="Path_543" data-name="Path 543" d="M186.187,308.08h-19.95l-6.908,16.184H180Z" transform="translate(-105.434 5.986)" fill="#263238" stroke="#fff" stroke-linecap="round" stroke-linejoin="round" stroke-width="1"/>
      <path id="Path_544" data-name="Path 544" d="M182.911,317.92H162.237l-7.417,17.4h21.446Z" transform="translate(-108.342 12.329)" fill="#263238" stroke="#fff" stroke-linecap="round" stroke-linejoin="round" stroke-width="1"/>
      <path id="Path_545" data-name="Path 545" d="M382.5,298.9l5.806,15.1h19.127L401,298.9Z" transform="translate(38.437 0.068)" fill="#263238" stroke="#fff" stroke-linecap="round" stroke-linejoin="round" stroke-width="1"/>
      <path id="Path_546" data-name="Path 546" d="M392.247,324.264h19.818l-6.908-16.184H386.03Z" transform="translate(40.712 5.986)" fill="#263238" stroke="#fff" stroke-linecap="round" stroke-linejoin="round" stroke-width="1"/>
      <path id="Path_547" data-name="Path 547" d="M396.487,335.321h20.558l-7.417-17.4H389.81Z" transform="translate(43.149 12.329)" fill="#263238" stroke="#fff" stroke-linecap="round" stroke-linejoin="round" stroke-width="1"/>
      <path id="Path_548" data-name="Path 548" d="M301.066,295.983l-.707-14.473H280.82l.016,14.473Z" transform="translate(-27.113 -11.143)" fill="#263238" stroke="#fff" stroke-linecap="round" stroke-linejoin="round" stroke-width="1"/>
      <path id="Path_549" data-name="Path 549" d="M384.621,304.438h18.5L397.1,290.31H379.21Z" transform="translate(36.315 -5.47)" fill="#263238" stroke="#fff" stroke-linecap="round" stroke-linejoin="round" stroke-width="1"/>
      <path id="Path_550" data-name="Path 550" d="M378.324,324.264h22.4l-6.217-16.184H372.88Z" transform="translate(32.235 5.986)" fill="#263238" stroke="#fff" stroke-linecap="round" stroke-linejoin="round" stroke-width="1"/>
      <path id="Path_551" data-name="Path 551" d="M214.979,295.983l4.145-14.473H199.585l-4.835,14.473Z" transform="translate(-82.6 -11.143)" fill="#263238" stroke="#fff" stroke-linecap="round" stroke-linejoin="round" stroke-width="1"/>
      <path id="Path_552" data-name="Path 552" d="M366.91,290.31l4.753,14.128H392.55l-5.411-14.128Z" transform="translate(28.386 -5.47)" fill="#263238" stroke="#fff" stroke-linecap="round" stroke-linejoin="round" stroke-width="1"/>
      <path id="Path_553" data-name="Path 553" d="M399.283,295.983l-6.168-14.473H375.83l5.559,14.473Z" transform="translate(34.137 -11.143)" fill="#263238" stroke="#fff" stroke-linecap="round" stroke-linejoin="round" stroke-width="1"/>
      <path id="Path_554" data-name="Path 554" d="M389.041,295.983l-5.559-14.473H363.96l4.852,14.473Z" transform="translate(26.484 -11.143)" fill="#263238" stroke="#fff" stroke-linecap="round" stroke-linejoin="round" stroke-width="1"/>
      <path id="Path_555" data-name="Path 555" d="M335.33,317.92l3.355,17.4h23.223l-4.177-17.4Z" transform="translate(8.027 12.329)" fill="#263238" stroke="#fff" stroke-linecap="round" stroke-linejoin="round" stroke-width="1"/>
      <path id="Path_556" data-name="Path 556" d="M382.029,335.321h23.239l-6.677-17.4h-22.4Z" transform="translate(34.369 12.329)" fill="#263238" stroke="#fff" stroke-linecap="round" stroke-linejoin="round" stroke-width="1"/>
      <path id="Path_557" data-name="Path 557" d="M376.47,295.983l-4.852-14.473H352.08l4.161,14.473Z" transform="translate(18.826 -11.143)" fill="#263238" stroke="#fff" stroke-linecap="round" stroke-linejoin="round" stroke-width="1"/>
      <path id="Path_558" data-name="Path 558" d="M362.57,317.92l5.016,17.4h23.223l-5.839-17.4Z" transform="translate(25.588 12.329)" fill="#263238" stroke="#fff" stroke-linecap="round" stroke-linejoin="round" stroke-width="1"/>
      <path id="Path_559" data-name="Path 559" d="M348.95,317.92l4.177,17.4h23.239l-5.016-17.4Z" transform="translate(16.808 12.329)" fill="#263238" stroke="#fff" stroke-linecap="round" stroke-linejoin="round" stroke-width="1"/>
      <path id="Path_560" data-name="Path 560" d="M374.866,314h21.627l-5.806-15.1H369.8Z" transform="translate(30.249 0.068)" fill="#263238" stroke="#fff" stroke-linecap="round" stroke-linejoin="round" stroke-width="1"/>
      <path id="Path_561" data-name="Path 561" d="M264.169,295.983l1.365-14.473H246l-2.056,14.473Z" transform="translate(-50.889 -11.143)" fill="#263238" stroke="#fff" stroke-linecap="round" stroke-linejoin="round" stroke-width="1"/>
      <path id="Path_562" data-name="Path 562" d="M363.9,295.983l-4.161-14.473H340.2l3.487,14.473Z" transform="translate(11.167 -11.143)" fill="#263238" stroke="#fff" stroke-linecap="round" stroke-linejoin="round" stroke-width="1"/>
      <path id="Path_563" data-name="Path 563" d="M251.869,295.983l2.056-14.473H234.4l-2.763,14.473Z" transform="translate(-58.818 -11.143)" fill="#263238" stroke="#fff" stroke-linecap="round" stroke-linejoin="round" stroke-width="1"/>
      <path id="Path_564" data-name="Path 564" d="M288.759,295.983l-.016-14.473H269.221l-.691,14.473Z" transform="translate(-35.036 -11.143)" fill="#263238" stroke="#fff" stroke-linecap="round" stroke-linejoin="round" stroke-width="1"/>
      <path id="Path_565" data-name="Path 565" d="M239.563,295.983l2.763-14.473H222.787l-3.437,14.473Z" transform="translate(-66.741 -11.143)" fill="#263238" stroke="#fff" stroke-linecap="round" stroke-linejoin="round" stroke-width="1"/>
      <path id="Path_566" data-name="Path 566" d="M227.279,295.983l3.437-14.473H211.195l-4.145,14.473Z" transform="translate(-74.671 -11.143)" fill="#263238" stroke="#fff" stroke-linecap="round" stroke-linejoin="round" stroke-width="1"/>
      <path id="Path_567" data-name="Path 567" d="M276.453,295.983l.691-14.473H257.605l-1.365,14.473Z" transform="translate(-42.959 -11.143)" fill="#263238" stroke="#fff" stroke-linecap="round" stroke-linejoin="round" stroke-width="1"/>
      <path id="Path_568" data-name="Path 568" d="M351.339,295.983l-3.487-14.473H328.33l2.779,14.473Z" transform="translate(3.515 -11.143)" fill="#263238" stroke="#fff" stroke-linecap="round" stroke-linejoin="round" stroke-width="1"/>
      <path id="Path_569" data-name="Path 569" d="M338.768,295.983l-2.78-14.473H316.45l2.089,14.473Z" transform="translate(-4.144 -11.143)" fill="#263238" stroke="#fff" stroke-linecap="round" stroke-linejoin="round" stroke-width="1"/>
      <path id="Path_570" data-name="Path 570" d="M313.637,295.983l-1.414-14.473H292.7l.707,14.473Z" transform="translate(-19.455 -11.143)" fill="#263238" stroke="#fff" stroke-linecap="round" stroke-linejoin="round" stroke-width="1"/>
      <path id="Path_571" data-name="Path 571" d="M425.074,317.92H201.087l-4.967,17.4H428.429Z" transform="translate(-81.717 12.329)" fill="#263238" stroke="#fff" stroke-linecap="round" stroke-linejoin="round" stroke-width="1"/>
      <path id="Path_572" data-name="Path 572" d="M326.2,295.983l-2.089-14.473H304.57l1.414,14.473Z" transform="translate(-11.803 -11.143)" fill="#263238" stroke="#fff" stroke-linecap="round" stroke-linejoin="round" stroke-width="1"/>
      <rect id="Rectangle_71" data-name="Rectangle 71" width="497.825" height="7.072" transform="translate(0 378.192)" fill="#263238" stroke="#263238" stroke-linecap="round" stroke-linejoin="round" stroke-width="1"/>
      <rect id="Rectangle_72" data-name="Rectangle 72" width="80.463" height="104.481" rx="7" transform="translate(99.782 82.907)" fill="#fff"/>
      <g id="Rectangle_73" data-name="Rectangle 73" transform="translate(199.46 67.295)" fill="#fff" stroke="#04102e" stroke-width="1">
        <rect width="100.878" height="127.299" rx="7" stroke="none"/>
        <rect x="0.5" y="0.5" width="99.878" height="126.299" rx="6.5" fill="none"/>
      </g>
      <rect id="Rectangle_74" data-name="Rectangle 74" width="80.463" height="104.481" rx="7" transform="translate(320.754 82.907)" fill="#fff"/>
    </g>
  </g>
</svg>
