<svg id="freepik--background-simple--inject-32" xmlns="http://www.w3.org/2000/svg" width="509.799" height="529.91" viewBox="0 0 509.799 529.91">
  <path id="Path_16" data-name="Path 16" d="M69.817,194.163S36.466,280.291,83.334,367.017,226.737,499.559,304,538.735s157.494,20.1,195.618-44.069S485.456,384.7,485.384,293.2s13.7-115.722-35.887-193.022S278.366,5.759,186.449,63.094,69.817,194.163,69.817,194.163Z" transform="translate(-38.842 -29.116)" fill="#fff" opacity="0.7"/>
  <path id="Path_17" data-name="Path 17" d="M67.939,158.238C99.89,96.226,159.223,49.31,233.089,42.707A205.176,205.176,0,0,1,375.116,83.8c20.168,15.551,38.088,35.348,49.99,57.945,13.661,25.958,17.644,55.887,31.7,81.726,17.477,32.119,50.3,45.373,72.347,73.125,18.147,22.86,24.379,53.495,22.3,82.611-3.8,53.148-34.942,103.6-80.745,130.843-38.722,23.027-85.4,29.379-130.388,27.286-69.381-3.218-138.451-26.1-193.094-68.962S53.309,362.146,44,293.327C37.675,246.567,46.873,199.113,67.939,158.238Z" transform="translate(-42.036 -26.601)" fill="#3874f2"/>
  <path id="Path_18" data-name="Path 18" d="M67.939,158.238C99.89,96.226,159.223,49.31,233.089,42.707A205.176,205.176,0,0,1,375.116,83.8c20.168,15.551,38.088,35.348,49.99,57.945,13.661,25.958,17.644,55.887,31.7,81.726,17.477,32.119,50.3,45.373,72.347,73.125,18.147,22.86,24.379,53.495,22.3,82.611-3.8,53.148-34.942,103.6-80.745,130.843-38.722,23.027-85.4,29.379-130.388,27.286-69.381-3.218-138.451-26.1-193.094-68.962S53.309,362.146,44,293.327C37.675,246.567,46.873,199.113,67.939,158.238Z" transform="translate(-42.036 -26.601)" fill="#fff" opacity="0.7"/>
</svg>
