<svg xmlns="http://www.w3.org/2000/svg" width="506.125" height="402.12" viewBox="0 0 506.125 402.12">
  <g id="freepik--Elements--inject-32" transform="translate(0.652 0.681)">
    <path id="Path_19" data-name="Path 19" d="M46.07,162.341c1.412,5.6.718-4.7,3.481-17.285s7.512-7.488,7.512-7.488" transform="translate(-45.209 -13.878)" fill="none" stroke="#263238" stroke-linecap="round" stroke-linejoin="round" stroke-width="1"/>
    <line id="Line_1" data-name="Line 1" y1="3.553" x2="8.673" transform="translate(0 132.051)" fill="none" stroke="#263238" stroke-linecap="round" stroke-linejoin="round" stroke-width="1"/>
    <path id="Path_20" data-name="Path 20" d="M58.866,140.82s-5.18,10.766,2.632,15.288" transform="translate(-43.028 -13.04)" fill="none" stroke="#263238" stroke-linecap="round" stroke-linejoin="round" stroke-width="1"/>
    <path id="Path_21" data-name="Path 21" d="M64.74,138.3s8.565,4.785,3.206,15.048" transform="translate(-41.545 -13.534)" fill="none" stroke="#263238" stroke-linecap="round" stroke-linejoin="round" stroke-width="1"/>
    <line id="Line_2" data-name="Line 2" x2="6.137" y2="4.474" transform="translate(17.333 131.417)" fill="none" stroke="#263238" stroke-linecap="round" stroke-linejoin="round" stroke-width="1"/>
    <line id="Line_3" data-name="Line 3" x1="4.797" y2="7.644" transform="translate(17.345 129.443)" fill="none" stroke="#263238" stroke-linecap="round" stroke-linejoin="round" stroke-width="1"/>
    <circle id="Ellipse_1" data-name="Ellipse 1" cx="13.051" cy="13.051" r="13.051" transform="translate(21.829 252.662) rotate(-80.68)" fill="none" stroke="#263238" stroke-linecap="round" stroke-linejoin="round" stroke-width="1"/>
    <circle id="Ellipse_2" data-name="Ellipse 2" cx="14.474" cy="14.474" r="14.474" transform="translate(37.447 235.729) rotate(-11.59)" fill="none" stroke="#263238" stroke-linecap="round" stroke-linejoin="round" stroke-width="1"/>
    <line id="Line_4" data-name="Line 4" x1="6.005" y2="2.141" transform="translate(42.705 236.505)" fill="none" stroke="#263238" stroke-linecap="round" stroke-linejoin="round" stroke-width="1"/>
    <line id="Line_5" data-name="Line 5" x1="8.637" y2="3.122" transform="translate(40.911 238.981)" fill="none" stroke="#263238" stroke-linecap="round" stroke-linejoin="round" stroke-width="1"/>
    <line id="Line_6" data-name="Line 6" x1="9.642" y2="3.708" transform="translate(40.229 241.971)" fill="none" stroke="#263238" stroke-linecap="round" stroke-linejoin="round" stroke-width="1"/>
    <line id="Line_7" data-name="Line 7" x1="8.792" y2="4.019" transform="translate(40.396 246.051)" fill="none" stroke="#263238" stroke-linecap="round" stroke-linejoin="round" stroke-width="1"/>
    <line id="Line_8" data-name="Line 8" x1="6.675" y2="2.775" transform="translate(40.959 249.185)" fill="none" stroke="#263238" stroke-linecap="round" stroke-linejoin="round" stroke-width="1"/>
    <path id="Path_22" data-name="Path 22" d="M82.186,219.759c-.371-1.2-4.605-1.938-4.785,1.2s4.462.526,5.778-1.2c0,0-2.392,3.218-1.388,3.852" transform="translate(-39.062 2.248)" fill="none" stroke="#263238" stroke-linecap="round" stroke-linejoin="round" stroke-width="1"/>
    <path id="Path_23" data-name="Path 23" d="M101.616,222.85l-3.756,7.811s1.878-3.912,3.888-3.589c2.476.443.825,4.5-2.165,3" transform="translate(-35.046 3.056)" fill="none" stroke="#263238" stroke-linecap="round" stroke-linejoin="round" stroke-width="1"/>
    <line id="Line_9" data-name="Line 9" x2="5.897" y2="5.574" transform="translate(475.33 353.447)" fill="none" stroke="#263238" stroke-linecap="round" stroke-linejoin="round" stroke-width="1"/>
    <line id="Line_10" data-name="Line 10" x1="4.94" y2="7.381" transform="translate(476.287 351.988)" fill="none" stroke="#263238" stroke-linecap="round" stroke-linejoin="round" stroke-width="1"/>
    <line id="Line_11" data-name="Line 11" y1="2.201" x2="5.909" transform="translate(487.029 351.904)" fill="none" stroke="#263238" stroke-linecap="round" stroke-linejoin="round" stroke-width="1"/>
    <line id="Line_12" data-name="Line 12" x2="3.589" y2="3.17" transform="translate(495.773 345.756)" fill="none" stroke="#263238" stroke-linecap="round" stroke-linejoin="round" stroke-width="1"/>
    <line id="Line_13" data-name="Line 13" x1="4.546" y2="15.599" transform="translate(497.568 341.94)" fill="none" stroke="#263238" stroke-linecap="round" stroke-linejoin="round" stroke-width="1"/>
    <path id="Path_24" data-name="Path 24" d="M234.97,258.012l15.874-10.921,21.018,1.471,1.316,26.652-15.431,11.029L238.7,284.855Z" transform="translate(-8.143 7.813)" fill="none" stroke="#263238" stroke-linecap="round" stroke-linejoin="round" stroke-width="1"/>
    <path id="Path_25" data-name="Path 25" d="M238.09,280.475l15.371-11.065,19.1,1.423" transform="translate(-7.53 12.192)" fill="none" stroke="#263238" stroke-linecap="round" stroke-linejoin="round" stroke-width="1"/>
    <line id="Line_14" data-name="Line 14" x1="3.23" y1="26.7" transform="translate(242.701 254.903)" fill="none" stroke="#263238" stroke-linecap="round" stroke-linejoin="round" stroke-width="1"/>
    <path id="Path_26" data-name="Path 26" d="M234.97,257.77l20.97,2.428,15.922-11.878" transform="translate(-8.143 8.054)" fill="none" stroke="#263238" stroke-linecap="round" stroke-linejoin="round" stroke-width="1"/>
    <line id="Line_15" data-name="Line 15" x2="1.806" y2="25.802" transform="translate(247.797 268.252)" fill="none" stroke="#263238" stroke-linecap="round" stroke-linejoin="round" stroke-width="1"/>
    <path id="Path_27" data-name="Path 27" d="M391,181.37l-7.034,21.855,21.891-2.955Z" transform="translate(21.094 -5.083)" fill="none" stroke="#263238" stroke-linecap="round" stroke-linejoin="round" stroke-width="1"/>
    <line id="Line_16" data-name="Line 16" x2="3.912" y2="20.252" transform="translate(412.098 176.287)" fill="none" stroke="#263238" stroke-linecap="round" stroke-linejoin="round" stroke-width="1"/>
    <path id="Path_28" data-name="Path 28" d="M392.6,195.657l2.56-.407.6,3.433" transform="translate(22.788 -2.359)" fill="none" stroke="#263238" stroke-linecap="round" stroke-linejoin="round" stroke-width="1"/>
    <line id="Line_17" data-name="Line 17" x2="10.933" y2="5.371" transform="translate(136.417 376.283)" fill="none" stroke="#263238" stroke-linecap="round" stroke-linejoin="round" stroke-width="1"/>
    <line id="Line_18" data-name="Line 18" x1="3.134" y2="11.424" transform="translate(140.688 372.18)" fill="none" stroke="#263238" stroke-linecap="round" stroke-linejoin="round" stroke-width="1"/>
    <path id="Path_29" data-name="Path 29" d="M166.85,340.553a1.651,1.651,0,0,1,2.632.347c1.1,1.723-1.053,5.335-1.053,5.335l4.39-1.675" transform="translate(-21.509 26.053)" fill="none" stroke="#263238" stroke-linecap="round" stroke-linejoin="round" stroke-width="1"/>
    <path id="Path_30" data-name="Path 30" d="M231.4,34c10.443,5.873-1.519,20.228-1.519,28.6s11.962,7.177,17.943,9.57c2.392,0,7.177,0,7.046,6.077" transform="translate(-9.141 -34)" fill="none" stroke="#263238" stroke-linecap="round" stroke-linejoin="round" stroke-width="1"/>
    <path id="Path_31" data-name="Path 31" d="M221.42,40.37c1.818,9.893,13.158,6.388,20.12,8.649,11.962,3.888,5.323,16.233,1.758,23.7-2.141,4.45-4.271,10.694-.443,14.917" transform="translate(-10.801 -32.75)" fill="none" stroke="#263238" stroke-linecap="round" stroke-linejoin="round" stroke-width="1"/>
    <line id="Line_19" data-name="Line 19" y1="10.347" x2="12.453" transform="translate(212.15 1.112)" fill="none" stroke="#263238" stroke-linecap="round" stroke-linejoin="round" stroke-width="1"/>
    <line id="Line_20" data-name="Line 20" y1="7.775" x2="9.378" transform="translate(217.03 6.771)" fill="none" stroke="#263238" stroke-linecap="round" stroke-linejoin="round" stroke-width="1"/>
    <line id="Line_21" data-name="Line 21" y1="6.22" x2="7.919" transform="translate(222.545 16.197)" fill="none" stroke="#263238" stroke-linecap="round" stroke-linejoin="round" stroke-width="1"/>
    <line id="Line_22" data-name="Line 22" y1="11.125" x2="15.479" transform="translate(220.906 20.599)" fill="none" stroke="#263238" stroke-linecap="round" stroke-linejoin="round" stroke-width="1"/>
    <line id="Line_23" data-name="Line 23" y1="7.919" x2="10.79" transform="translate(226.839 28.147)" fill="none" stroke="#263238" stroke-linecap="round" stroke-linejoin="round" stroke-width="1"/>
    <line id="Line_24" data-name="Line 24" y1="10.981" x2="13.481" transform="translate(231.433 41.916)" fill="none" stroke="#263238" stroke-linecap="round" stroke-linejoin="round" stroke-width="1"/>
    <line id="Line_25" data-name="Line 25" y1="6.184" x2="8.792" transform="translate(231.768 38.076)" fill="none" stroke="#263238" stroke-linecap="round" stroke-linejoin="round" stroke-width="1"/>
    <circle id="Ellipse_3" data-name="Ellipse 3" cx="25.049" cy="25.049" r="25.049" transform="translate(13.884 345.031) rotate(-21.8)" fill="none" stroke="#263238" stroke-linecap="round" stroke-linejoin="round" stroke-width="1"/>
    <path id="Path_32" data-name="Path 32" d="M94.826,316.221c8.732-10.252,16.161-16.053,19.02-14.163,4.354,2.859-3.457,22.381-17.441,43.59S67.552,381.738,63.2,378.867c-2.871-1.878-.455-10.993,5.527-23.063" transform="translate(-42.085 18.529)" fill="none" stroke="#263238" stroke-linecap="round" stroke-linejoin="round" stroke-width="1"/>
    <path id="Path_33" data-name="Path 33" d="M66.876,340.969c-12.178-3.5-19.953-7.6-19.463-10.862.706-5.168,21.747-6.364,46.88-2.6s44.894,10.91,44.141,16.053c-.538,3.589-10.766,5.227-25.3,4.677" transform="translate(-44.949 23.161)" fill="none" stroke="#263238" stroke-linecap="round" stroke-linejoin="round" stroke-width="1"/>
    <path id="Path_34" data-name="Path 34" d="M68.259,328.446c-9.187-16.58-13.78-29.511-10.67-31.532,4.091-2.644,19.905,14.51,35.324,38.279s24.594,45.253,20.515,47.909c-2.7,1.746-10.539-5.168-20-16.939" transform="translate(-43.139 17.536)" fill="none" stroke="#263238" stroke-linecap="round" stroke-linejoin="round" stroke-width="1"/>
    <path id="Path_35" data-name="Path 35" d="M109.529,312.105a4.115,4.115,0,1,1,.587-3.1,4.115,4.115,0,0,1-.587,3.1Z" transform="translate(-34.239 19.319)" fill="#263238"/>
    <path id="Path_36" data-name="Path 36" d="M98.139,364.8a4.115,4.115,0,1,1,.587-3.1,4.115,4.115,0,0,1-.587,3.1Z" transform="translate(-36.474 29.658)" fill="#263238"/>
    <path id="Path_37" data-name="Path 37" d="M79.759,329.045a4.115,4.115,0,1,1-1.2-5.706,4.115,4.115,0,0,1,1.2,5.706Z" transform="translate(-40.081 22.643)" fill="#263238"/>
    <path id="Path_38" data-name="Path 38" d="M298.986,182.323h14.091l7.046-12.2-7.046-12.2H298.986l-7.046,12.2Z" transform="translate(3.036 -9.684)" fill="none" stroke="#263238" stroke-linecap="round" stroke-linejoin="round" stroke-width="1"/>
    <path id="Path_39" data-name="Path 39" d="M299.587,202.711l-7.046-12.2H278.45" transform="translate(0.389 -3.29)" fill="none" stroke="#263238" stroke-linecap="round" stroke-linejoin="round" stroke-width="1"/>
    <path id="Path_40" data-name="Path 40" d="M281.186,172.125h14.091l7.046-12.2-7.046-12.213H281.186l-7.046,12.213Z" transform="translate(-0.457 -11.688)" fill="none" stroke="#263238" stroke-linecap="round" stroke-linejoin="round" stroke-width="1"/>
    <path id="Path_41" data-name="Path 41" d="M298.986,161.925h14.091l7.046-12.213-7.046-12.2H298.986l-7.046,12.2Z" transform="translate(3.036 -13.689)" fill="none" stroke="#263238" stroke-linecap="round" stroke-linejoin="round" stroke-width="1"/>
    <circle id="Ellipse_4" data-name="Ellipse 4" cx="1.89" cy="1.89" r="1.89" transform="translate(299.976 146.346)" fill="#263238"/>
    <circle id="Ellipse_5" data-name="Ellipse 5" cx="1.89" cy="1.89" r="1.89" transform="translate(270.549 120.723)" fill="#263238"/>
    <path id="Path_42" data-name="Path 42" d="M294.54,201.02a1.89,1.89,0,1,1,1.89,1.89,1.89,1.89,0,0,1-1.89-1.89Z" transform="translate(3.546 -1.598)" fill="#263238"/>
    <circle id="Ellipse_6" data-name="Ellipse 6" cx="1.89" cy="1.89" r="1.89" transform="translate(276.949 185.33)" fill="#263238"/>
    <path id="Path_43" data-name="Path 43" d="M326.9,148.312a1.89,1.89,0,1,1,.549,1.344A1.9,1.9,0,0,1,326.9,148.312Z" transform="translate(9.896 -11.943)" fill="#263238"/>
    <circle id="Ellipse_7" data-name="Ellipse 7" cx="1.89" cy="1.89" r="1.89" transform="translate(290.897 185.33)" fill="#263238"/>
    <path id="Path_44" data-name="Path 44" d="M313.92,148.312a1.9,1.9,0,1,1,1.9,1.9A1.9,1.9,0,0,1,313.92,148.312Z" transform="translate(7.349 -11.943)" fill="#263238"/>
    <path id="Path_45" data-name="Path 45" d="M296.12,178.644a1.9,1.9,0,1,1,1.89,1.89A1.9,1.9,0,0,1,296.12,178.644Z" transform="translate(3.856 -5.993)" fill="#263238"/>
    <line id="Line_26" data-name="Line 26" x2="15.515" transform="translate(323.171 136.345)" fill="none" stroke="#263238" stroke-linecap="round" stroke-linejoin="round" stroke-width="1"/>
    <line id="Line_27" data-name="Line 27" x1="9.079" y2="14.57" transform="translate(292.787 172.651)" fill="none" stroke="#263238" stroke-linecap="round" stroke-linejoin="round" stroke-width="1"/>
    <line id="Line_28" data-name="Line 28" x1="8.29" y1="13.41" transform="translate(272.439 122.613)" fill="none" stroke="#263238" stroke-linecap="round" stroke-linejoin="round" stroke-width="1"/>
    <path id="Path_46" data-name="Path 46" d="M363.58,110.567a26.1,26.1,0,0,1,50.361,1.112" transform="translate(17.093 -22.645)" fill="none" stroke="#263238" stroke-linecap="round" stroke-linejoin="round" stroke-width="1"/>
    <path id="Path_47" data-name="Path 47" d="M385.793,139.592A26.09,26.09,0,0,1,362.67,113.67" transform="translate(16.915 -18.367)" fill="none" stroke="#263238" stroke-linecap="round" stroke-linejoin="round" stroke-width="1"/>
    <path id="Path_48" data-name="Path 48" d="M410.588,113.67a26.09,26.09,0,0,1-26.078,26.09" transform="translate(21.2 -18.367)" fill="none" stroke="#263238" stroke-linecap="round" stroke-linejoin="round" stroke-width="1"/>
    <path id="Path_49" data-name="Path 49" d="M418.986,99.922c8.158-1.041,13.625-.478,14.474,1.962,1.687,4.857-15.766,15.324-38.985,23.386s-43.4,10.646-45.1,5.778c-.9-2.6,3.672-6.795,11.663-11.376" transform="translate(14.285 -21.162)" fill="none" stroke="#263238" stroke-linecap="round" stroke-linejoin="round" stroke-width="1"/>
    <path id="Path_50" data-name="Path 50" d="M291.436,84.9l2.5,5.06,5.586.813-4.043,3.948.957,5.562-5-2.632-5,2.632.957-5.562-4.043-3.948,5.586-.813Z" transform="translate(1.35 -24.012)" fill="none" stroke="#263238" stroke-linecap="round" stroke-linejoin="round" stroke-width="1"/>
    <path id="Path_51" data-name="Path 51" d="M148.039,76.414a16.986,16.986,0,0,1-16.962,16.974q-.825,0-1.615-.072a16.974,16.974,0,1,1,18.577-16.9Z" transform="translate(-31.862 -29.008)" fill="none" stroke="#263238" stroke-linecap="round" stroke-linejoin="round" stroke-width="1"/>
    <path id="Path_52" data-name="Path 52" d="M141.063,76.62A2.632,2.632,0,1,1,138.432,74a2.632,2.632,0,0,1,2.632,2.62Z" transform="translate(-27.602 -26.151)" fill="none" stroke="#263238" stroke-linecap="round" stroke-linejoin="round" stroke-width="1"/>
    <path id="Path_53" data-name="Path 53" d="M121.519,82.471a4.235,4.235,0,0,1-1.531,3.266A16.819,16.819,0,0,1,115,78.81a4.127,4.127,0,0,1,2.189-.61,4.271,4.271,0,0,1,4.33,4.271Z" transform="translate(-31.683 -25.327)" fill="none" stroke="#263238" stroke-linecap="round" stroke-linejoin="round" stroke-width="1"/>
    <path id="Path_54" data-name="Path 54" d="M140.194,84.641a16.855,16.855,0,0,1-11.615,4.617q-.825,0-1.615-.072a6.771,6.771,0,0,1-.144-1.4,7.058,7.058,0,0,1,13.374-3.146Z" transform="translate(-29.364 -24.83)" fill="none" stroke="#263238" stroke-linecap="round" stroke-linejoin="round" stroke-width="1"/>
    <circle id="Ellipse_8" data-name="Ellipse 8" cx="3.9" cy="3.9" r="3.9" transform="translate(91.2 32.872)" fill="none" stroke="#263238" stroke-linecap="round" stroke-linejoin="round" stroke-width="1"/>
    <path id="Path_55" data-name="Path 55" d="M128.463,74.3a1.806,1.806,0,1,1-1.806-1.806A1.806,1.806,0,0,1,128.463,74.3Z" transform="translate(-29.75 -26.447)" fill="none" stroke="#263238" stroke-linecap="round" stroke-linejoin="round" stroke-width="1"/>
    <path id="Path_56" data-name="Path 56" d="M140.857,66.231a4.57,4.57,0,0,1-1.471.227,4.964,4.964,0,0,1-4.964-4.976,5.277,5.277,0,0,1,0-.622,16.9,16.9,0,0,1,6.436,5.371Z" transform="translate(-27.874 -28.73)" fill="none" stroke="#263238" stroke-linecap="round" stroke-linejoin="round" stroke-width="1"/>
    <path id="Path_57" data-name="Path 57" d="M469.572,241.467l1.83-4.115-2.967-1.627a8.97,8.97,0,0,0,.06-2.189l3.038-1.483-1.615-4.2-3.254.933a8.949,8.949,0,0,0-1.507-1.579L466.271,224l-4.115-1.83-1.639,2.967a8.949,8.949,0,0,0-2.189,0l-1.471-3.038-4.211,1.615.945,3.242A9.571,9.571,0,0,0,452,228.476l-3.194-1.112-1.782,4.055,2.967,1.639a8.946,8.946,0,0,0-.06,2.189l-3.05,1.471,1.615,4.211,3.254-.945a9.469,9.469,0,0,0,1.507,1.591l-1.1,3.194,4.115,1.83,1.627-2.967a8.97,8.97,0,0,0,2.189.06l1.483,3.05,4.2-1.615-.933-3.254a9.4,9.4,0,0,0,1.579-1.507Zm-12.512-2.3a5.227,5.227,0,1,1,6.9-2.656A5.227,5.227,0,0,1,457.06,239.17Z" transform="translate(33.438 2.909)" fill="none" stroke="#263238" stroke-linecap="round" stroke-linejoin="round" stroke-width="1"/>
    <path id="Path_58" data-name="Path 58" d="M452.634,260.276l2.488-5.586-4.019-2.225a12.333,12.333,0,0,0,.072-2.967l4.139-2.01-2.165-5.706-4.414,1.28a11.962,11.962,0,0,0-2.046-2.153l1.507-4.354-5.634-2.524-2.213,4.019a13.006,13.006,0,0,0-2.967-.084l-2.01-4.127-5.718,2.2,1.28,4.4a12.952,12.952,0,0,0-2.153,2.057l-4.342-1.459-2.488,5.586,4.019,2.225a12.332,12.332,0,0,0-.072,2.967l-4.139,2.01,2.2,5.706,4.414-1.268a12.419,12.419,0,0,0,2.046,2.153l-1.507,4.342,5.6,2.488,2.213-4.031a12.358,12.358,0,0,0,2.967.084l2.01,4.127,5.718-2.189-1.28-4.414a12.878,12.878,0,0,0,2.153-2.046Zm-16.986-3.122a7.093,7.093,0,1,1,5.433.151A7.106,7.106,0,0,1,435.648,257.154Z" transform="translate(28.509 5.213)" fill="none" stroke="#263238" stroke-linecap="round" stroke-linejoin="round" stroke-width="1"/>
  </g>
</svg>
