<svg xmlns="http://www.w3.org/2000/svg" width="18" height="12" viewBox="0 0 18 12">
  <path id="FontAwsome_eye_" data-name="FontAwsome (eye)" d="M17.892,69.544A10.023,10.023,0,0,0,9,64,10.025,10.025,0,0,0,.109,69.544a1.011,1.011,0,0,0,0,.912A10.023,10.023,0,0,0,9,76a10.025,10.025,0,0,0,8.891-5.544,1.011,1.011,0,0,0,0-.912ZM9,74.5A4.5,4.5,0,1,1,13.5,70,4.5,4.5,0,0,1,9,74.5ZM9,67a2.978,2.978,0,0,0-.791.118,1.5,1.5,0,0,1-2.091,2.091A2.993,2.993,0,1,0,9,67Z" transform="translate(-0.001 -64)" fill="#3874f3"/>
</svg>
