<svg xmlns="http://www.w3.org/2000/svg" width="15.75" height="18" viewBox="0 0 15.75 18">
  <path id="FontAwsome_calendar-day_" data-name="FontAwsome (calendar-day)" d="M0,16.313A1.688,1.688,0,0,0,1.688,18H14.063a1.688,1.688,0,0,0,1.688-1.687V6.75H0Zm2.25-6.75A.564.564,0,0,1,2.813,9H6.188a.564.564,0,0,1,.563.563v3.375a.564.564,0,0,1-.562.563H2.813a.564.564,0,0,1-.562-.562ZM14.063,2.25H12.375V.563A.564.564,0,0,0,11.813,0H10.688a.564.564,0,0,0-.562.563V2.25h-4.5V.563A.564.564,0,0,0,5.063,0H3.938a.564.564,0,0,0-.562.563V2.25H1.688A1.688,1.688,0,0,0,0,3.938V5.625H15.75V3.938A1.688,1.688,0,0,0,14.063,2.25Z" fill="#3874f3"/>
</svg>
