<svg xmlns="http://www.w3.org/2000/svg" width="578.034" height="308.042" viewBox="0 0 578.034 308.042">
  <g id="freepik--Hands--inject-46" transform="translate(0.706 0.5)">
    <path id="Path_573" data-name="Path 573" d="M189.282,573.357s36.775-77.1,42.432-91.953,84.881-52.35,89.125-59.471,9.868-29,14.161-38.189.707-12.746,3.536-20.526,7.779-16.973.707-16.973-16.266,7.779-19.818,20.509-17.68,23.354-17.68,23.354l.707-8.486c.707-8.5,9.194-34.67,12.73-40.327s24.769-28.288,27.6-29,9.194,5.658,15.559,5.658,7.779-4.934,4.243-7.779-6.365-12.039-14.8-17.7-17.68,0-17.68,0a112.247,112.247,0,0,0-7.779-11.315c-3.553-4.243-10.625-11.315-19.818-13.437a18.42,18.42,0,0,0-15.559,3.536,79.711,79.711,0,0,0-9.868-1.414c-7.072-.707-12.022,3.536-19.095,14.8s-18.4,33.255-18.4,33.255S242.4,297.382,242.4,288.9s.707-17.68-2.829-21.216-7.072.707-8.486,13.437-17.68,57.3-19.736,69.323-24.752,78.516-36.791,95.506-77.1,91.246-77.1,91.246M291.136,322.957s9.868-28.3,12.73-28.3,13.437,7.779,13.437,7.779Z" transform="translate(-97.46 -266.482)" fill="#fff" stroke="#263238" stroke-linecap="round" stroke-linejoin="round" stroke-width="1"/>
    <path id="Path_574" data-name="Path 574" d="M185.772,356.314S197.827,318.6,199.834,308.9c1.431-6.842,6.5,1.135,6.5,1.135s9.868-7.056,9.868-1.135a17.91,17.91,0,0,0,3.7,10.378s-2.22-10.378,8.223-13.338,14.8,1.48,12.6,13.338,1.48,7.4,3.7,4.441-.74-10.378,12.6-15.559,20.756,0,18.519,11.118-5.921,20.739-5.921,37.038,2.96,31.117,5.921,31.117,19.275-17.039,22.236-5.921-2.96,11.118-18.519,24.44-56.313,24.456-62.974,37.827S205.162,465.257,200.722,466s-11.858-25.92-33.354-23.025-43.715,24.456-38.518,15.559,24.44-23.025,35.558-48.156S185.772,356.314,185.772,356.314Z" transform="translate(-77.717 -241.618)" fill="#3874f2"/>
    <path id="Path_575" data-name="Path 575" d="M185.772,356.314S197.827,318.6,199.834,308.9c1.431-6.842,6.5,1.135,6.5,1.135s9.868-7.056,9.868-1.135a17.91,17.91,0,0,0,3.7,10.378s-2.22-10.378,8.223-13.338,14.8,1.48,12.6,13.338,1.48,7.4,3.7,4.441-.74-10.378,12.6-15.559,20.756,0,18.519,11.118-5.921,20.739-5.921,37.038,2.96,31.117,5.921,31.117,19.275-17.039,22.236-5.921-2.96,11.118-18.519,24.44-56.313,24.456-62.974,37.827S205.162,465.257,200.722,466s-11.858-25.92-33.354-23.025-43.715,24.456-38.518,15.559,24.44-23.025,35.558-48.156S185.772,356.314,185.772,356.314Z" transform="translate(-77.717 -241.618)" fill="#fff" opacity="0.4"/>
    <path id="Path_576" data-name="Path 576" d="M229.957,269.42s-19.736,33.962-24.045,41.034-7.779,13.437-12.746,16.266-8.486,9.194-7.072,11.315" transform="translate(-40.524 -264.588)" fill="#fff" stroke="#263238" stroke-linecap="round" stroke-linejoin="round" stroke-width="1"/>
    <path id="Path_577" data-name="Path 577" d="M194.347,297.81a39.011,39.011,0,0,1-8.486,10.608c-5.658,4.934-12.023,9.194-13.437,14.8a27.8,27.8,0,0,1-4.934,9.868" transform="translate(-52.314 -246.286)" fill="#fff" stroke="#263238" stroke-linecap="round" stroke-linejoin="round" stroke-width="1"/>
    <path id="Path_578" data-name="Path 578" d="M224.084,300.82s-14.144,9.194-17.68,12.022-4.934,9.194-4.934,9.194" transform="translate(-30.408 -244.345)" fill="#fff" stroke="#263238" stroke-linecap="round" stroke-linejoin="round" stroke-width="1"/>
    <line id="Line_133" data-name="Line 133" x1="12.746" y2="9.901" transform="translate(219.843 26.048)" fill="#fff" stroke="#263238" stroke-linecap="round" stroke-linejoin="round" stroke-width="1"/>
    <path id="Path_579" data-name="Path 579" d="M545.485,526.621s-64.372-62.941-69.323-75.655-3.536-15.559-7.779-24.67-16.973-24.851-17.68-36.183-6.365-38.206-6.365-47.4-2.122-22.631-4.934-24.752-18.4-5.674-18.4-5.674S412.513,285.414,406.2,284s-19.16,5.608-19.16,5.608-2.829-4.934-6.365-12.73-9.868-7.779-17.68-4.934-23.354,9.194-23.354,9.194S321.958,267.7,316.3,276.2s-12.73,24.045-14.144,29.7,8.371,5.46,10.493,4.046,10.082-7.269,10.082-7.269,15.493,11.71,18.322,18.091,8.487,36.068,9.194,41.725-2.122,23.338-2.122,23.338-13.437-24.045-19.736-31.117S312.83,343.4,305.758,343.4s-12.023,7.779-6.365,11.315,12.022,7.779,13.437,12.73,15.559,30.426,16.973,39.62,11.315,27.581,20.509,33.239,43.156,12.73,49.521,19.111,51.643,96.2,51.643,96.2M352.368,294.542H363.7L375.722,317.9Z" transform="translate(31.136 -264.086)" fill="#fff" stroke="#263238" stroke-linecap="round" stroke-linejoin="round" stroke-width="1"/>
    <path id="Path_580" data-name="Path 580" d="M425.17,329.769s-8.223-23.025-17.779-18.519-11.118,6.677-11.118,6.677-5.2-8.223-14.078-5.2-11.858-2.96-11.858-2.96-11.858-7.4-19.259-1.48-1.48,22.219,1.48,35.558-3.7,39.275-5.181,41.5-21.5-6.661-23.716,1.48,6.661,25.936,24.456,31.857,31.117,8.9,37.827,15.559,23.716,54.833,38.535,58.534,31.117-17.779,46.676-16.3,35.558,12.6,27.417,2.96-42.235-44.406-44.406-57.037-10.378-21.5-14.078-27.417-10.394-41.495-12.7-51.149A71.55,71.55,0,0,1,425.17,329.769Z" transform="translate(48.149 -241.01)" fill="#3874f2"/>
    <path id="Path_581" data-name="Path 581" d="M425.17,329.769s-8.223-23.025-17.779-18.519-11.118,6.677-11.118,6.677-5.2-8.223-14.078-5.2-11.858-2.96-11.858-2.96-11.858-7.4-19.259-1.48-1.48,22.219,1.48,35.558-3.7,39.275-5.181,41.5-21.5-6.661-23.716,1.48,6.661,25.936,24.456,31.857,31.117,8.9,37.827,15.559,23.716,54.833,38.535,58.534,31.117-17.779,46.676-16.3,35.558,12.6,27.417,2.96-42.235-44.406-44.406-57.037-10.378-21.5-14.078-27.417-10.394-41.495-12.7-51.149A71.55,71.55,0,0,1,425.17,329.769Z" transform="translate(48.149 -241.01)" fill="#fff" opacity="0.4"/>
    <path id="Path_582" data-name="Path 582" d="M351.72,282l9.868,18.387s4.03,9.654,8.108,13.716,7.631,7.121,9.161,12.22,2.023,7.631,2.023,7.631" transform="translate(66.453 -256.478)" fill="#fff" stroke="#263238" stroke-linecap="round" stroke-linejoin="round" stroke-width="1"/>
    <line id="Line_134" data-name="Line 134" x2="9.917" y2="20.525" transform="translate(452.119 48.202)" fill="#fff" stroke="#263238" stroke-linecap="round" stroke-linejoin="round" stroke-width="1"/>
    <line id="Line_135" data-name="Line 135" x2="12.73" y2="13.437" transform="translate(370.774 17.085)" fill="#fff" stroke="#263238" stroke-linecap="round" stroke-linejoin="round" stroke-width="1"/>
    <path id="Path_583" data-name="Path 583" d="M380,311.14a93.111,93.111,0,0,0,1.53,12.73" transform="translate(84.685 -237.692)" fill="#fff" stroke="#263238" stroke-linecap="round" stroke-linejoin="round" stroke-width="1"/>
    <path id="Path_584" data-name="Path 584" d="M349.06,304s6.1,4.572,7.121,10.674" transform="translate(64.739 -242.295)" fill="#fff" stroke="#263238" stroke-linecap="round" stroke-linejoin="round" stroke-width="1"/>
    <path id="Path_585" data-name="Path 585" d="M314.812,292.63s-5.592-2.237-5.592-6.71" transform="translate(39.055 -253.951)" fill="#fff" stroke="#263238" stroke-linecap="round" stroke-linejoin="round" stroke-width="1"/>
    <path id="Path_586" data-name="Path 586" d="M339.116,287.753s-4.046-3.108-4.046-7.023" transform="translate(55.72 -257.297)" fill="#fff" stroke="#263238" stroke-linecap="round" stroke-linejoin="round" stroke-width="1"/>
  </g>
</svg>
