<svg xmlns="http://www.w3.org/2000/svg" width="22.864" height="17.104" viewBox="0 0 22.864 17.104">
  <g id="Group_81" data-name="Group 81" transform="translate(-595.783 -1375.662)">
    <path id="Path_8" data-name="Path 8" d="M727.9,1389.466c0-.888-.006-1.777,0-2.665a.617.617,0,0,0-.227-.5,8.256,8.256,0,0,1-2.492-3.815,5.12,5.12,0,0,1,.628-4.02,9.562,9.562,0,0,1,2.181-2.6c.292-.246.518-.275.778-.056a8.59,8.59,0,0,1,2.828,3.987,5.248,5.248,0,0,1-.771,4.515,9.025,9.025,0,0,1-1.67,1.985.609.609,0,0,0-.225.506c.007,1.766,0,3.533.005,5.3a.6.6,0,0,1-.23.574.509.509,0,0,1-.531.03.491.491,0,0,1-.276-.482q0-1.379,0-2.758Zm0-4.444v-.418c0-1.209,0-2.418,0-3.626a.574.574,0,0,1,.251-.561c.375-.225.782.039.784.522.006,1.229,0,2.459.006,3.688a.545.545,0,0,0,.042.327,7.5,7.5,0,0,0,1.148-1.563,4.078,4.078,0,0,0,.5-3.1,7.294,7.294,0,0,0-2.072-3.253c-.144-.144-.233-.051-.334.047a8.252,8.252,0,0,0-1.441,1.814,4.259,4.259,0,0,0-.647,2.929A6.508,6.508,0,0,0,727.9,1385.022Z" transform="translate(-121.196)" fill="#04102e"/>
    <path id="Path_9" data-name="Path 9" d="M597.318,1483.367a7.685,7.685,0,0,1,3.961.923,5.274,5.274,0,0,1,2.482,3.547,10.248,10.248,0,0,1,.241,3.013c-.022.465-.173.673-.581.7a8.206,8.206,0,0,1-5.127-1.044,5.414,5.414,0,0,1-2.308-3.6,10.637,10.637,0,0,1-.185-2.864c.017-.457.221-.642.681-.672.031,0,.062,0,.093,0Zm5.608,6.314a6.309,6.309,0,0,0-.262-1.831,4.123,4.123,0,0,0-2.155-2.77,8.2,8.2,0,0,0-3.4-.681c-.256-.011-.3.154-.275.344.058.492.043.988.108,1.481a4.4,4.4,0,0,0,3.52,4.058,6.084,6.084,0,0,0,1.7.21c-.112-.121-.177-.2-.247-.267l-2.28-2.277c-.1-.1-.206-.2-.3-.31a.537.537,0,0,1-.052-.774.517.517,0,0,1,.772.016c.869.854,1.725,1.721,2.589,2.58C602.713,1489.538,602.77,1489.645,602.926,1489.681Z" transform="translate(0 -101.012)" fill="#3874f2"/>
    <path id="Path_10" data-name="Path 10" d="M839.566,1484.693a8.075,8.075,0,0,1-.29,2.448,5.28,5.28,0,0,1-4.131,4.035,10.25,10.25,0,0,1-3.043.25c-.508-.027-.706-.193-.733-.658a9.449,9.449,0,0,1,.515-3.99,5.212,5.212,0,0,1,3.677-3.254,10.426,10.426,0,0,1,3.346-.3c.44.019.631.217.656.662C839.578,1484.156,839.566,1484.425,839.566,1484.693Zm-7.112,4.841a.576.576,0,0,0,.259-.2q1.174-1.17,2.345-2.343c.088-.088.173-.178.265-.261a.524.524,0,1,1,.731.748c-.062.069-.13.133-.2.2q-1.2,1.205-2.408,2.411c-.069.069-.17.119-.188.262a5.607,5.607,0,0,0,1.557-.2,4.164,4.164,0,0,0,3.077-2.307,8.331,8.331,0,0,0,.641-3.287c.007-.219-.091-.324-.318-.309a13.914,13.914,0,0,0-1.907.191C833.832,1484.949,832.512,1486.577,832.454,1489.534Z" transform="translate(-220.928 -100.864)" fill="#3874f2"/>
  </g>
</svg>
