<svg xmlns="http://www.w3.org/2000/svg" width="31.056" height="23.532" viewBox="0 0 31.056 23.532">
  <g id="Group_82" data-name="Group 82" transform="translate(755.4 27.773)">
    <path id="Path_11" data-name="Path 11" d="M-755.314-18.679c.86-.4,1.722-.8,2.578-1.21a.774.774,0,0,1,.669-.018c1.338.519,2.683,1.021,4.021,1.54a.731.731,0,0,0,.637-.027q1.911-.924,3.835-1.82c.252-.117.272-.188.073-.388q-2.5-2.512-4.982-5.039-.8-.815-1.6-1.637c-.061-.063-.178-.121-.145-.214.042-.12.176-.066.27-.07,1.535-.071,3.07-.137,4.6-.21a.9.9,0,0,1,.46.138q3.985,2,7.966,4.011a.658.658,0,0,0,.651,0q2.5-1.177,5.014-2.326a7.863,7.863,0,0,1,3.315-.732,4.968,4.968,0,0,1,2.6.7,1.793,1.793,0,0,1,.222,3.094,7.178,7.178,0,0,1-1.546.913c-5.425,2.53-10.858,5.043-16.273,7.595a17.236,17.236,0,0,1-5.146,1.662,10.888,10.888,0,0,1-3.554.029,2.466,2.466,0,0,1-.9-.353,1.15,1.15,0,0,1-.376-1.712.369.369,0,0,0-.039-.526c-.808-.982-1.6-1.977-2.4-2.967l-.031-.036Zm8.491-7.678a.193.193,0,0,0-.129.333l0,0q2.863,2.9,5.731,5.8c.159.16.269.268-.032.41q-3.081,1.448-6.152,2.919a.638.638,0,0,1-.551.01c-1.215-.47-2.449-.894-3.645-1.407a1.531,1.531,0,0,0-1.54.08c-.311.19-.327.164-.1.44q.949,1.177,1.9,2.354c.43.536.427.536-.091,1-.087.077-.245.141-.2.275s.2.119.317.138a11.325,11.325,0,0,0,3.341-.1,15.815,15.815,0,0,0,4.491-1.521c3.22-1.524,6.456-3.013,9.685-4.52q3.487-1.627,6.969-3.263A3.468,3.468,0,0,0-725.8-24.1c.247-.254.238-.388-.048-.589a3.539,3.539,0,0,0-1.465-.576,5.564,5.564,0,0,0-3.13.451c-1.99.834-3.92,1.8-5.879,2.708a.643.643,0,0,1-.626-.014c-2.516-1.274-5.043-2.525-7.55-3.815a3.124,3.124,0,0,0-1.943-.435A2.927,2.927,0,0,1-746.823-26.357Z" transform="translate(0 0)" fill="#3874f2"/>
    <rect id="Rectangle_19" data-name="Rectangle 19" width="29.727" height="1.554" rx="0.777" transform="translate(-754.594 -5.794)" fill="#04102e"/>
  </g>
</svg>
