<svg xmlns="http://www.w3.org/2000/svg" width="21.871" height="29.629" viewBox="0 0 21.871 29.629">
  <g id="Group_85" data-name="Group 85" transform="translate(2294.524 -504.879)">
    <g id="_7jca9J.tif" data-name="7jca9J.tif" transform="translate(-2294.524 512.081)">
      <g id="Group_84" data-name="Group 84" transform="translate(0 0)">
        <path id="Path_14" data-name="Path 14" d="M-2280.391,633.681q-3.22,0-6.44,0l-2.362,0c-.329.014-.659,0-.989,0a1.085,1.085,0,0,0-1.171,1.043c-.109,1.1-.2,2.212-.3,3.318q-.149,1.687-.3,3.374-.187,2.08-.376,4.161-.159,1.757-.32,3.514c-.083.928-.176,1.855-.238,2.784a.884.884,0,0,0,.838.952,3.914,3.914,0,0,0,.423.013h15.988c.132,0,.264,0,.4-.008a.915.915,0,0,0,.9-1.013c-.007-.141-.033-.28-.046-.421-.156-1.791-.307-3.581-.468-5.371-.179-2-.369-3.991-.548-5.988-.158-1.762-.307-3.525-.466-5.287a1.1,1.1,0,0,0-1.176-1.073c-.32,0-.64,0-.96,0Zm2.425-1.665c.348-.02.7-.005,1.045,0a2.6,2.6,0,0,1,2.674,2.2c.25,1.551.309,3.127.458,4.691.108,1.134.2,2.269.3,3.4q.159,1.772.322,3.543c.1,1.153.219,2.3.31,3.459.072.9.208,1.8.2,2.7a2.307,2.307,0,0,1-1.037,1.937,4.059,4.059,0,0,1-1.02.475h-17.744c-.1-.034-.2-.064-.293-.1a2.6,2.6,0,0,1-1.664-1.614,3.2,3.2,0,0,1-.084-1.317c.122-1.491.26-2.982.4-4.472.181-2,.367-3.992.548-5.989.194-2.146.38-4.294.574-6.44a2.712,2.712,0,0,1,2.227-2.452,10.389,10.389,0,0,1,1.523-.029l2.4,0c1.091-.012,2.183-.005,3.274-.005s2.2,0,3.3,0Z" transform="translate(2294.525 -631.997)" fill="#3874f2"/>
      </g>
    </g>
    <path id="Path_15" data-name="Path 15" d="M-2185.464,511.207a14.258,14.258,0,0,0-.042-1.578,3.633,3.633,0,0,0-3.569-3.115,3.632,3.632,0,0,0-3.6,3.118c-.071.489-.015.978-.045,1.465l-1.667-.006a12.232,12.232,0,0,1,.068-1.749,5.3,5.3,0,0,1,5.254-4.461,5.321,5.321,0,0,1,5.055,4.017,9.531,9.531,0,0,1,.154,2.309Z" transform="translate(-94.465)" fill="#04102e"/>
  </g>
</svg>
