<svg xmlns="http://www.w3.org/2000/svg" width="140" height="33.555" viewBox="0 0 140 33.555">
  <g id="Group_128" data-name="Group 128" transform="translate(-19.3 -58.73)">
    <path id="Path_587" data-name="Path 587" d="M19.3,61.6s8.786-8.658,15.73,4.11S45,94.944,56.541,87.195c0,0-2.66,6.576-9.53,4.78S37.209,81.859,34.69,76.1,29.169,58.795,19.3,61.6Z" transform="translate(0 0)" fill="#fff"/>
    <path id="Path_588" data-name="Path 588" d="M294.363,213.285c.254-3.711-1.473-9.261-6.231-9.183-2.412.04-5.222,2.544-8.009,5.169q-.528.495-1.049.991l-2.22-4.98L274.01,198.9l3.928,5.365c3.893-3.676,6.5-6.348,9.96-5.7C296.413,200.223,294.363,213.285,294.363,213.285Z" transform="translate(-236.038 -129.496)" fill="#fff"/>
    <path id="Path_589" data-name="Path 589" d="M130.112,271.123a6.067,6.067,0,0,1-1.173.471c-11.171,2.934-9.72-12.173-9.72-12.173.173,5.987,4.7,9.278,8.591,6.953Z" transform="translate(-92.537 -185.978)" fill="#fff"/>
    <path id="Path_590" data-name="Path 590" d="M779.75,209.2v14.814h-.4V209.2Z" transform="translate(-704.333 -139.439)" fill="#fff"/>
    <path id="Path_591" data-name="Path 591" d="M930.707,262.6a4.744,4.744,0,0,1,1.882,1.922,6.74,6.74,0,0,1,0,5.9,4.743,4.743,0,0,1-1.882,1.922,5.78,5.78,0,0,1-5.4,0,4.812,4.812,0,0,1-1.891-1.922,6.657,6.657,0,0,1,0-5.9A4.808,4.808,0,0,1,925.3,262.6a5.78,5.78,0,0,1,5.4,0Zm-5.115.26A4.375,4.375,0,0,0,923.8,264.6a6.4,6.4,0,0,0,0,5.743,4.363,4.363,0,0,0,1.792,1.742,5.2,5.2,0,0,0,2.413.572,5.146,5.146,0,0,0,2.4-.572,4.415,4.415,0,0,0,1.781-1.732,6.447,6.447,0,0,0,0-5.765,4.391,4.391,0,0,0-1.781-1.732,5.137,5.137,0,0,0-2.4-.572,5.205,5.205,0,0,0-2.412.572Z" transform="translate(-837.193 -188.304)" fill="#fff"/>
    <path id="Path_592" data-name="Path 592" d="M1209.2,260.54v.44h-.18a4.373,4.373,0,0,0-2.893.991,3.925,3.925,0,0,0-1.191,3.193v6.426h-.4V260.78h.4V263.4Q1205.58,260.54,1209.2,260.54Z" transform="translate(-1098.354 -187.016)" fill="#fff"/>
    <path id="Path_593" data-name="Path 593" d="M1396.568,271.756a3.763,3.763,0,0,0,1.5-2.522h.4a4.294,4.294,0,0,1-1.592,2.753,5.231,5.231,0,0,1-3.372,1.051,5.412,5.412,0,0,1-2.683-.66,4.617,4.617,0,0,1-1.85-1.92,6.878,6.878,0,0,1,0-5.925,4.64,4.64,0,0,1,1.852-1.922,5.407,5.407,0,0,1,2.683-.66,5.165,5.165,0,0,1,2.7.671,4.494,4.494,0,0,1,1.691,1.731,4.669,4.669,0,0,1,.572,2.243,6.588,6.588,0,0,1-.077,1.076H1388.7a5.488,5.488,0,0,0,.69,2.786,4.3,4.3,0,0,0,1.752,1.672,5.132,5.132,0,0,0,2.362.551A5.006,5.006,0,0,0,1396.568,271.756Zm-5.425-8.9a4.3,4.3,0,0,0-1.752,1.671,5.472,5.472,0,0,0-.69,2.786h9.409a4.989,4.989,0,0,0-.531-2.786,4.028,4.028,0,0,0-1.721-1.671A5.318,5.318,0,0,0,1391.144,262.858Z" transform="translate(-1268.643 -188.322)" fill="#fff"/>
    <path id="Path_594" data-name="Path 594" d="M1654.292,274.621l-3.3-5.147-3.3,5.147h-.44l3.5-5.505-3.423-5.305h.48l3.2,4.965,3.225-4.965h.44l-3.409,5.365,3.5,5.445Z" transform="translate(-1508.61 -190.046)" fill="#fff"/>
    <path id="Path_595" data-name="Path 595" d="M1797.074,165.845h1.277v.468h-1.871V162.62h.6Z" transform="translate(-1646.901 -96.274)" fill="#fff"/>
    <path id="Path_596" data-name="Path 596" d="M1835,163.4v3.636h-.6V164.31l-1.05,2.726h-.523l-1.056-2.723v2.723h-.6V163.4h.721l1.2,2.9,1.182-2.9Z" transform="translate(-1679.048 -96.997)" fill="#fff"/>
    <path id="Path_597" data-name="Path 597" d="M1896.76,165.244a.948.948,0,0,1-.4.375,1.388,1.388,0,0,1-.653.141,1.626,1.626,0,0,1-.674-.132,1.175,1.175,0,0,1-.476-.374,1.056,1.056,0,0,1-.2-.554h.638a.652.652,0,0,0,.206.413.668.668,0,0,0,.484.173.577.577,0,0,0,.422-.147.5.5,0,0,0,.147-.376.482.482,0,0,0-.109-.327.773.773,0,0,0-.272-.2,4.679,4.679,0,0,0-.444-.167,3.921,3.921,0,0,1-.562-.22,1.032,1.032,0,0,1-.367-.319.914.914,0,0,1-.152-.549.935.935,0,0,1,.147-.523.952.952,0,0,1,.418-.347,1.5,1.5,0,0,1,.628-.123,1.37,1.37,0,0,1,.9.272,1.026,1.026,0,0,1,.38.71h-.644a.627.627,0,0,0-.2-.358.621.621,0,0,0-.44-.147.6.6,0,0,0-.4.128.519.519,0,0,0-.047.68.733.733,0,0,0,.264.193c.106.048.251.1.44.165a3.829,3.829,0,0,1,.572.22,1.05,1.05,0,0,1,.376.327.947.947,0,0,1,.154.564A1.007,1.007,0,0,1,1896.76,165.244Z" transform="translate(-1737.593 -95.686)" fill="#fff"/>
  </g>
</svg>
