<svg xmlns="http://www.w3.org/2000/svg" width="33.966" height="34.085" viewBox="0 0 33.966 34.085">
  <g id="Group_83" data-name="Group 83" transform="translate(1022.35 -529.098)">
    <path id="Path_12" data-name="Path 12" d="M-988.457,714.7c-9.1-.006-18.339-.006-27.018-.006h-6.326a.991.991,0,0,1-.549-1.013c.011-1.648.01-3.323.009-4.943q0-1.114,0-2.229a.833.833,0,0,1,.952-.957h.668l1.351,0c.71,0,1.292,0,1.833.009h.019a.633.633,0,0,0,.467-.15.648.648,0,0,0,.147-.472c-.01-1.083-.009-2.185-.007-3.251q0-.669,0-1.338c0-.547-.1-.643-.661-.643h-3.82c-.647,0-.948-.306-.949-.961,0-2.694,0-5.073,0-7.271a.825.825,0,0,1,.94-.935h3.854l2.892,0c1.394,0,2.68-.005,3.935-.005,1.357,0,2.68,0,3.934.007l2.971-.005h6.7c2.11,0,4.893,0,7.714-.008a1,1,0,0,1,1.014.549v8.085a.976.976,0,0,1-.974.549h-.036c-.4-.007-.835-.01-1.4-.01h-1.441c-.366,0-.666,0-.946,0h-.016a.615.615,0,0,0-.454.147.627.627,0,0,0-.144.457c.012,1.543.012,3.108,0,4.651a.627.627,0,0,0,.144.457.615.615,0,0,0,.454.147h.016c.279,0,.579,0,.943,0h1.448c.561,0,.991,0,1.394-.01h.036a.974.974,0,0,1,.974.549V707.8c0,2.237,0,4.551.007,6.826,0,.032,0,.054,0,.07s-.038,0-.07,0Zm-14.781-1.643c.709,0,1.281,0,1.8.009h.018a.629.629,0,0,0,.458-.149.655.655,0,0,0,.147-.482c-.013-1.484-.013-2.995,0-4.617a.629.629,0,0,0-.145-.464.627.627,0,0,0-.456-.148c-1.314,0-2.638.007-3.94.007s-2.632,0-3.934-.007h0a.63.63,0,0,0-.459.147.632.632,0,0,0-.144.466c.012,1.64.012,3.151,0,4.617a.652.652,0,0,0,.147.48.631.631,0,0,0,.459.149h.019c.521-.006,1.093-.009,1.8-.009h4.227Zm4.652-5.85a.6.6,0,0,0-.435.144.617.617,0,0,0-.142.45c.01,1.645.01,3.167,0,4.651a.633.633,0,0,0,.145.467.623.623,0,0,0,.453.147c1.319,0,2.654-.007,3.973-.007s2.648,0,3.968.007h0a.623.623,0,0,0,.462-.147.628.628,0,0,0,.145-.463c-.012-1.591-.012-3.145,0-4.618a.657.657,0,0,0-.148-.483.627.627,0,0,0-.457-.149h-.018c-.52.006-1.092.009-1.8.009h-4.246c-.754,0-1.336,0-1.885-.007Zm-17.543,5.852c1.355,0,2.693,0,3.975.007h0a.633.633,0,0,0,.468-.148.628.628,0,0,0,.144-.457c-.012-1.551-.012-3.115,0-4.651a.625.625,0,0,0-.144-.456.618.618,0,0,0-.456-.147h-.016c-.538.005-1.107.007-1.845.007h-4.2c-.755,0-1.337,0-1.886-.006h-.012a.606.606,0,0,0-.442.144.607.607,0,0,0-.142.443c.01,1.569.01,3.145,0,4.685a.6.6,0,0,0,.141.44.612.612,0,0,0,.451.145C-1018.733,713.061-1017.4,713.059-1016.129,713.059Zm12.2-13.361a.621.621,0,0,0-.452.147.636.636,0,0,0-.145.468c.012,1.655.012,3.166,0,4.618a.65.65,0,0,0,.147.479.634.634,0,0,0,.461.149h.019c.52-.006,1.093-.009,1.8-.009h6c.543,0,.646-.1.646-.624q0-.7,0-1.395c0-1.057,0-2.15.006-3.225a.626.626,0,0,0-.145-.462.62.62,0,0,0-.457-.147c-1.321,0-2.648.007-3.947.007s-2.632,0-3.927-.007Zm-10.728,0a.621.621,0,0,0-.452.147.635.635,0,0,0-.145.468c.012,1.659.012,3.17,0,4.617a.648.648,0,0,0,.147.478.625.625,0,0,0,.461.149h.018c.52-.006,1.092-.009,1.8-.009h6c.543,0,.645-.1.646-.625q0-.7,0-1.4c0-1.056,0-2.148.006-3.221a.625.625,0,0,0-.144-.462.621.621,0,0,0-.458-.148c-1.322,0-2.648.007-3.947.007s-2.632,0-3.927-.007Zm16.074-7.508a.6.6,0,0,0-.435.144.618.618,0,0,0-.142.45c.01,1.645.01,3.167,0,4.652a.632.632,0,0,0,.145.466.624.624,0,0,0,.454.147c1.319,0,2.654-.007,3.973-.007s2.649,0,3.968.007h0a.633.633,0,0,0,.461-.147.628.628,0,0,0,.144-.464c-.012-1.6-.012-3.152,0-4.618a.656.656,0,0,0-.147-.482.627.627,0,0,0-.457-.149h-.018c-.52.006-1.092.009-1.8.009h-4.241c-.756,0-1.34,0-1.891-.007Zm-10.728,0a.6.6,0,0,0-.435.144.618.618,0,0,0-.143.45c.011,1.645.011,3.167,0,4.651a.633.633,0,0,0,.145.466.624.624,0,0,0,.453.147c1.308,0,2.632-.007,3.94-.007s2.626,0,3.934.007h0a.633.633,0,0,0,.461-.147.628.628,0,0,0,.145-.464c-.012-1.594-.012-3.148,0-4.617a.657.657,0,0,0-.147-.483.628.628,0,0,0-.457-.149h-.018c-.515.006-1.081.009-1.783.009h-4.208c-.75,0-1.329,0-1.875-.007Zm-6.817,5.852c1.349,0,2.687,0,3.975.006h0a.637.637,0,0,0,.47-.148.625.625,0,0,0,.144-.455c-.012-1.539-.012-3.1,0-4.651a.628.628,0,0,0-.145-.458.616.616,0,0,0-.455-.147h-.015c-.539.005-1.109.007-1.848.007h-4.2c-.757,0-1.34,0-1.89-.006h-.012a.6.6,0,0,0-.443.144.6.6,0,0,0-.142.441c.011,1.551.011,3.128,0,4.685a.6.6,0,0,0,.142.441.609.609,0,0,0,.449.145C-1018.743,698.044-1017.411,698.042-1016.132,698.042Z" transform="translate(0 -151.518)" fill="#3874f2"/>
    <path id="Path_13" data-name="Path 13" d="M-951.395,536.371h-5.295c-.666,0-.963-.3-.964-.979v-.621h0c0-.479,0-5.047,0-5.047v-.649c0-.674.3-.975.967-.975h10.456c.666,0,.963.3.964.979v.621h0c0,.441,0,5.035,0,5.035v.661c0,.674-.3.975-.967.975Zm2-1.662c.752,0,1.331,0,1.879.006h.012a.5.5,0,0,0,.576-.49v-.017q0-.653,0-1.306c0-.813,0-1.64,0-2.458v-.06c0-.525-.1-.625-.645-.625h-5.956c-.752,0-1.331,0-1.879-.007h-.012a.5.5,0,0,0-.576.49v.017q0,.653,0,1.306c0,.807,0,1.634,0,2.459v.061c0,.525.1.625.645.625h5.956Z" transform="translate(-60.35 1)" fill="#04102e"/>
  </g>
</svg>
