<svg width="20" height="20" viewBox="0 0 20 20" fill="none" xmlns="http://www.w3.org/2000/svg">
<path d="M15.0001 5.96663C14.9501 5.9583 14.8918 5.9583 14.8418 5.96663C13.6918 5.92496 12.7751 4.98329 12.7751 3.81663C12.7751 2.62496 13.7335 1.66663 14.9251 1.66663C16.1168 1.66663 17.0751 2.63329 17.0751 3.81663C17.0668 4.98329 16.1501 5.92496 15.0001 5.96663Z" stroke="#3874F2" stroke-width="1.2" stroke-linecap="round" stroke-linejoin="round"/>
<path d="M14.1417 12.0333C15.2834 12.225 16.5417 12.025 17.425 11.4333C18.6 10.65 18.6 9.36664 17.425 8.58331C16.5334 7.99164 15.2584 7.79163 14.1167 7.99163" stroke="#3874F2" stroke-width="1.2" stroke-linecap="round" stroke-linejoin="round"/>
<path d="M4.9749 5.96663C5.0249 5.9583 5.08324 5.9583 5.13324 5.96663C6.28324 5.92496 7.1999 4.98329 7.1999 3.81663C7.1999 2.62496 6.24157 1.66663 5.0499 1.66663C3.85824 1.66663 2.8999 2.63329 2.8999 3.81663C2.90824 4.98329 3.8249 5.92496 4.9749 5.96663Z" stroke="#3874F2" stroke-width="1.2" stroke-linecap="round" stroke-linejoin="round"/>
<path d="M5.83328 12.0333C4.69162 12.225 3.43328 12.025 2.54995 11.4333C1.37495 10.65 1.37495 9.36664 2.54995 8.58331C3.44162 7.99164 4.71662 7.79163 5.85828 7.99163" stroke="#3874F2" stroke-width="1.2" stroke-linecap="round" stroke-linejoin="round"/>
<path d="M10.0001 12.1916C9.95014 12.1833 9.89181 12.1833 9.84181 12.1916C8.69181 12.1499 7.77515 11.2083 7.77515 10.0416C7.77515 8.84994 8.73348 7.8916 9.92514 7.8916C11.1168 7.8916 12.0751 8.85827 12.0751 10.0416C12.0668 11.2083 11.1501 12.1583 10.0001 12.1916Z" stroke="#04102E" stroke-width="1.2" stroke-linecap="round" stroke-linejoin="round"/>
<path d="M7.5751 14.8167C6.4001 15.6 6.4001 16.8833 7.5751 17.6667C8.90843 18.5583 11.0918 18.5583 12.4251 17.6667C13.6001 16.8833 13.6001 15.6 12.4251 14.8167C11.1001 13.9333 8.90843 13.9333 7.5751 14.8167Z" stroke="#04102E" stroke-width="1.2" stroke-linecap="round" stroke-linejoin="round"/>
</svg>
