<svg width="20" height="20" viewBox="0 0 20 20" fill="none" xmlns="http://www.w3.org/2000/svg">
<path d="M6.66685 18.3333H13.3335C16.6835 18.3333 17.2835 16.9917 17.4585 15.3583L18.0835 8.69167C18.3085 6.65833 17.7252 5 14.1668 5H5.83351C2.27518 5 1.69185 6.65833 1.91685 8.69167L2.54185 15.3583C2.71685 16.9917 3.31685 18.3333 6.66685 18.3333Z" stroke="#3874F2" stroke-width="1.2" stroke-miterlimit="10" stroke-linecap="round" stroke-linejoin="round"/>
<path d="M6.66675 4.99996V4.33329C6.66675 2.85829 6.66675 1.66663 9.33341 1.66663H10.6667C13.3334 1.66663 13.3334 2.85829 13.3334 4.33329V4.99996" stroke="#3874F2" stroke-width="1.2" stroke-miterlimit="10" stroke-linecap="round" stroke-linejoin="round"/>
<path d="M11.6666 10.8333V11.6667C11.6666 11.675 11.6666 11.675 11.6666 11.6833C11.6666 12.5917 11.6583 13.3333 9.99992 13.3333C8.34992 13.3333 8.33325 12.6 8.33325 11.6917V10.8333C8.33325 10 8.33325 10 9.16659 10H10.8333C11.6666 10 11.6666 10 11.6666 10.8333Z" stroke="#04102E" stroke-width="1.2" stroke-miterlimit="10" stroke-linecap="round" stroke-linejoin="round"/>
<path d="M16 10.5C15 11 13.9167 11.4 11.6667 11.6833" stroke="#04102E" stroke-width="1.2" stroke-miterlimit="10" stroke-linecap="round" stroke-linejoin="round"/>
<path d="M4 10.5C5 11 6.17502 11.4501 8.33335 11.6917" stroke="#04102E" stroke-width="1.2" stroke-miterlimit="10" stroke-linecap="round" stroke-linejoin="round"/>
</svg>
