<svg width="20" height="21" viewBox="0 0 20 21" fill="none" xmlns="http://www.w3.org/2000/svg">
<path d="M18.3334 10.9083V11.65C18.3334 14.6166 17.5917 15.35 14.6334 15.35H5.36675C2.40841 15.35 1.66675 14.6083 1.66675 11.65V6.36663C1.66675 3.40829 2.40841 2.66663 5.36675 2.66663H6.66675" stroke="#3874F2" stroke-width="1.2" stroke-linecap="round" stroke-linejoin="round"/>
<path d="M10 15.35V19.3333" stroke="#3874F2" stroke-width="1.2" stroke-linecap="round" stroke-linejoin="round"/>
<path d="M1.66675 11.8334H18.3334" stroke="#3874F2" stroke-width="1.2" stroke-linecap="round" stroke-linejoin="round"/>
<path d="M6.25 19.3334H13.75" stroke="#3874F2" stroke-width="1.2" stroke-linecap="round" stroke-linejoin="round"/>
<path d="M18 7.03215V1.86024C18 1.34605 17.608 0.964688 17.132 1.00754H17.108C16.268 1.08467 14.992 1.54315 14.28 2.02307L14.212 2.0702C14.096 2.14733 13.904 2.14733 13.788 2.0702L13.688 2.00593C12.976 1.5303 11.704 1.0761 10.864 1.00325C10.388 0.960403 10 1.34605 10 1.85595V7.03215C10 7.4435 10.312 7.82914 10.696 7.88056L10.812 7.8977C11.68 8.02197 13.02 8.49331 13.788 8.94323L13.804 8.95179C13.912 9.01607 14.084 9.01607 14.188 8.95179C14.956 8.49759 16.3 8.02197 17.172 7.8977L17.304 7.88056C17.688 7.82914 18 7.4435 18 7.03215Z" stroke="#04102E" stroke-width="1.2" stroke-linecap="round" stroke-linejoin="round"/>
<path d="M14 2V9" stroke="#04102E" stroke-width="1.2" stroke-linecap="round" stroke-linejoin="round"/>
</svg>
