<svg xmlns="http://www.w3.org/2000/svg" width="24" height="24" viewBox="0 0 24 24">
  <path id="FontAwsome_phone-alt_" data-name="FontAwsome (phone-alt)" d="M23.315,16.966l-5.25-2.25a1.125,1.125,0,0,0-1.313.323L14.428,17.88A17.375,17.375,0,0,1,6.122,9.574L8.963,7.249a1.122,1.122,0,0,0,.323-1.313L7.036.686A1.133,1.133,0,0,0,5.747.035L.872,1.16A1.125,1.125,0,0,0,0,2.256a21.748,21.748,0,0,0,21.75,21.75,1.125,1.125,0,0,0,1.1-.872l1.125-4.875a1.139,1.139,0,0,0-.657-1.294Z" transform="translate(0 -0.006)" fill="#3874f3"/>
</svg>
