<svg xmlns="http://www.w3.org/2000/svg" width="286.315" height="280.086" viewBox="0 0 286.315 280.086">
  <g id="freepik--Options--inject-131" transform="translate(0.5 0.5)">
    <rect id="Rectangle_56" data-name="Rectangle 56" width="106.771" height="102.377" rx="7.18" transform="translate(6.944 19.422)" fill="#3874f2"/>
    <line id="Line_121" data-name="Line 121" y1="12.872" transform="translate(144.86 62.413)" fill="none" stroke="#263238" stroke-linecap="round" stroke-linejoin="round" stroke-width="1"/>
    <path id="Path_450" data-name="Path 450" d="M299.441,218.713H251.973A14.883,14.883,0,0,1,237.09,203.83V161.42" transform="translate(-92.23 -80.393)" fill="none" stroke="#263238" stroke-linecap="round" stroke-linejoin="round" stroke-width="1"/>
    <line id="Line_122" data-name="Line 122" x1="15.443" transform="translate(217.367 138.32)" fill="none" stroke="#263238" stroke-linecap="round" stroke-linejoin="round" stroke-width="1"/>
    <path id="Path_451" data-name="Path 451" d="M326.768,145v76.384a14.883,14.883,0,0,1-14.883,14.883H284.42" transform="translate(-41.453 -98.009)" fill="none" stroke="#263238" stroke-linecap="round" stroke-linejoin="round" stroke-width="1"/>
    <path id="Path_452" data-name="Path 452" d="M248.24,122.33H350.7a14.883,14.883,0,0,1,14.883,14.883V155.7" transform="translate(-80.268 -122.33)" fill="none" stroke="#263238" stroke-linecap="round" stroke-linejoin="round" stroke-width="1"/>
    <rect id="Rectangle_57" data-name="Rectangle 57" width="120.659" height="115.705" rx="7.18" transform="translate(0 12.769)" fill="none" stroke="#263238" stroke-linecap="round" stroke-linejoin="round" stroke-width="1"/>
    <rect id="Rectangle_58" data-name="Rectangle 58" width="120.659" height="115.705" rx="7.18" transform="translate(154.757 12.769)" fill="#fff" stroke="#263238" stroke-linecap="round" stroke-linejoin="round" stroke-width="1" opacity="0.5"/>
    <rect id="Rectangle_59" data-name="Rectangle 59" width="120.659" height="115.705" rx="7.18" transform="translate(0 163.38)" fill="#fff" stroke="#263238" stroke-linecap="round" stroke-linejoin="round" stroke-width="1" opacity="0.5"/>
    <rect id="Rectangle_60" data-name="Rectangle 60" width="120.659" height="115.705" rx="7.18" transform="translate(154.757 163.38)" fill="#fff" stroke="#263238" stroke-linecap="round" stroke-linejoin="round" stroke-width="1" opacity="0.5"/>
    <rect id="Rectangle_61" data-name="Rectangle 61" width="106.771" height="102.377" rx="7.18" transform="translate(161.701 19.422)" fill="#3874f2" opacity="0.38"/>
    <rect id="Rectangle_62" data-name="Rectangle 62" width="106.771" height="102.377" rx="7.18" transform="translate(6.944 170.055)" fill="#3874f2"/>
    <path id="Path_453" data-name="Path 453" d="M274.261,146.51h0c.788.166,1.161.5,1.161,1.016v32.917q-.207,1.244-1.182,1.244h0c-.85-.166-1.285-.5-1.285-.995V149.412a20.461,20.461,0,0,1-4,1.119q-.684,0-.995-1.182v-.415c0-.6,1.14-1.14,3.379-1.6Z" transform="translate(-213.88 -94.938)" fill="#263238"/>
    <path id="Path_454" data-name="Path 454" d="M349.94,146.52A10.364,10.364,0,0,1,360.3,156.884a12.686,12.686,0,0,1-4.726,9.141l-11.566,13.245h15.671c.6,0,.954.415,1.1,1.223s-.518,1.244-1.2,1.244H341.048c-.809-.166-1.223-.56-1.223-1.2v-.1c0-.415.539-1.14,1.638-2.073l14.9-16.976a7.649,7.649,0,0,0-6.218-12.126h-.29a7.587,7.587,0,0,0-7.317,5.389,12.931,12.931,0,0,0-.414,2.508c-.29.6-.643.891-1.078.891H340.9c-.808-.145-1.223-.518-1.223-1.078a10.364,10.364,0,0,1,5.141-8.851A10.987,10.987,0,0,1,349.94,146.52Z" transform="translate(-136.936 -94.927)" fill="#263238"/>
    <path id="Path_455" data-name="Path 455" d="M275.837,219.24a8.56,8.56,0,0,1,6.82,3.565,7.857,7.857,0,0,1,1.6,4.768v.373a9.431,9.431,0,0,1-3.835,7.027,11.111,11.111,0,0,1,5.348,9.038,10.219,10.219,0,0,1-10.157,10.26h-.352a10.364,10.364,0,0,1-9.348-6.218,12.584,12.584,0,0,1-.808-4.146c0-.539.477-.891,1.409-1.078.56,0,.912.435,1.036,1.306a7.835,7.835,0,0,0,4.705,7.027,9.678,9.678,0,0,0,3.3.642,7.587,7.587,0,0,0,7.068-4.871,8.019,8.019,0,0,0,.539-2.57v-.746a7.566,7.566,0,0,0-4.913-6.882l-3.068-.663a1.327,1.327,0,0,1-.622-1.036v-.1c0-.788.643-1.161,1.948-1.161a6.073,6.073,0,0,0,4.436-2.8,7.669,7.669,0,0,0,.871-3.3,5.8,5.8,0,0,0-3.379-5.327A5.949,5.949,0,0,0,269.971,226a13.614,13.614,0,0,1-.332,2.28c-.456.518-.788.767-.995.767-.891-.207-1.347-.539-1.347-.995v-.477a8.291,8.291,0,0,1,4.643-7.379,9.431,9.431,0,0,1,3.9-.954Z" transform="translate(-216.948 -16.911)" fill="#263238"/>
    <rect id="Rectangle_64" data-name="Rectangle 64" width="106.771" height="102.377" rx="7.18" transform="translate(161.701 170.055)" fill="#3874f2"/>
    <path id="Path_456" data-name="Path 456" d="M356.435,219.32h.58q.58,0,.995,1.057l-.1.85V240.96h4.477c.539,0,.933.456,1.14,1.347,0,.518-.352.912-1.078,1.182l-1.306-.1h-3.234v9.908c0,.477-.415.808-1.244.974h0c-.829-.145-1.244-.539-1.244-1.161v-9.722H341.9l-2.073.1c-.6-.249-.912-.6-.912-1.078v-.394c0-.228.249-.56.788-.954q15.318-19.961,16.147-21.246a1.057,1.057,0,0,1,.58-.5Zm-13.7,21.64H355.44V224.378Z" transform="translate(-137.752 -16.825)" fill="#263238"/>
  </g>
</svg>
