<svg id="freepik--background-simple--inject-288" xmlns="http://www.w3.org/2000/svg" width="551.883" height="464.646" viewBox="0 0 551.883 464.646">
  <path id="Path_351" data-name="Path 351" d="M107.788,132.314s-28.588,16.341-32.7,57.162,40.821,98.013,47.632,149.661S75.091,403.186,96.9,468.517s136.116,80.3,197.355,54.443S384.1,431.774,475.3,431.774s156.518-42.211,151.1-136.131S600.51,173.15,527.008,118.707,197.615,39.753,107.788,132.314Z" transform="translate(-74.827 -70.308)" fill="#3874f2"/>
  <path id="Path_352" data-name="Path 352" d="M107.788,132.314s-28.588,16.341-32.7,57.162,40.821,98.013,47.632,149.661S75.091,403.186,96.9,468.517s136.116,80.3,197.355,54.443S384.1,431.774,475.3,431.774s156.518-42.211,151.1-136.131S600.51,173.15,527.008,118.707,197.615,39.753,107.788,132.314Z" transform="translate(-74.827 -70.308)" fill="#fff" opacity="0.85"/>
</svg>
