<svg xmlns="http://www.w3.org/2000/svg" width="560.614" height="468.589" viewBox="0 0 560.614 468.589">
  <g id="Group_179" data-name="Group 179" transform="translate(-33.802 -2031.679)">
    <g id="freepik--Desk--inject-288" transform="translate(199.89 2291.903)">
      <path id="Path_353" data-name="Path 353" d="M570.366,294.96H175.84v16.722h8.369v170.08H562V311.682h8.369Z" transform="translate(-175.84 -294.96)" fill="#3874f2"/>
      <path id="Path_354" data-name="Path 354" d="M570.366,294.96H175.84v16.722h8.369v170.08H562V311.682h8.369Z" transform="translate(-175.84 -294.96)" fill="#fff" opacity="0.5"/>
      <path id="Path_355" data-name="Path 355" d="M187.94,372.128H290.977V317.15H187.94Zm2.092-52.962h98.792v50.885H190.032Z" transform="translate(-169.461 -283.262)" fill="#fff"/>
      <path id="Path_356" data-name="Path 356" d="M271.73,372.128H374.783V317.15H271.73Zm2.092-52.962H372.69v50.885H273.822Z" transform="translate(-125.291 -283.262)" fill="#fff"/>
      <path id="Path_357" data-name="Path 357" d="M355.53,317.1v54.978H458.567V317.1Zm100.945,52.977H357.622V319.192h98.853Z" transform="translate(-81.115 -283.289)" fill="#fff"/>
      <path id="Path_358" data-name="Path 358" d="M187.94,420.549H290.977V365.48H187.94Zm2.092-52.977h98.792v50.885H190.032Z" transform="translate(-169.461 -257.785)" fill="#fff"/>
      <path id="Path_359" data-name="Path 359" d="M271.73,420.549H374.783V365.48H271.73Zm2.092-52.977H372.69v50.885H273.822Z" transform="translate(-125.291 -257.785)" fill="#fff"/>
      <path id="Path_360" data-name="Path 360" d="M355.53,420.549H458.567V365.48H355.53Zm2.092-52.977h98.853v50.885H357.622Z" transform="translate(-81.115 -257.785)" fill="#fff"/>
      <path id="Path_361" data-name="Path 361" d="M228.2,331.47c-9.239,0-16.8,2.81-16.8,6.277s7.5,6.277,16.8,6.277,16.722-2.81,16.722-6.277S237.438,331.47,228.2,331.47Z" transform="translate(-157.094 -275.713)" fill="#fff"/>
      <path id="Path_362" data-name="Path 362" d="M311.589,331.47c-9.239,0-16.8,2.81-16.8,6.277s7.5,6.277,16.8,6.277,16.722-2.81,16.722-6.277S320.828,331.47,311.589,331.47Z" transform="translate(-113.135 -275.713)" fill="#fff"/>
      <path id="Path_363" data-name="Path 363" d="M397.4,344.023c9.163,0,16.722-2.81,16.722-6.277s-7.483-6.277-16.722-6.277-16.8,2.81-16.8,6.277S388.159,344.023,397.4,344.023Z" transform="translate(-67.899 -275.713)" fill="#fff"/>
      <ellipse id="Ellipse_31" data-name="Ellipse 31" cx="16.722" cy="6.277" rx="16.722" ry="6.277" transform="translate(54.382 129.64)" fill="#fff"/>
      <ellipse id="Ellipse_32" data-name="Ellipse 32" cx="16.722" cy="6.277" rx="16.722" ry="6.277" transform="translate(181.732 129.64)" fill="#fff"/>
      <ellipse id="Ellipse_33" data-name="Ellipse 33" cx="16.722" cy="6.277" rx="16.722" ry="6.277" transform="translate(312.777 129.64)" fill="#fff"/>
    </g>
    <g id="freepik--Character--inject-288" transform="translate(291.279 2032.179)">
      <path id="Path_394" data-name="Path 394" d="M328.99,137.775s-4.581,12.034-3.65,13.637,3.329,5.6,2.046,8.812-6.368,3.757-5.727,6.322,4.169,4.49,4.169,4.49,3.8,17.089,5.406,19.334,10.262.962,10.262.962l.641,8.659,25.672-1.6-.962-15.394-1.283-47.464Z" transform="translate(-190.389 -119.281)" fill="#fff" stroke="#263238" stroke-linecap="round" stroke-linejoin="round" stroke-width="1"/>
      <path id="Path_395" data-name="Path 395" d="M376.942,137.886a17.746,17.746,0,0,0-12.9-7.391h0s-6.552-5.6-13.088-5.6-9.331,3.268-13.531,3.268-7.01-5.131-14.019,2.337,1.878,15.409,1.878,15.409a8.048,8.048,0,0,0,6.933,2.443c-.29,1.42-.886,4.581-1.13,6.918-.321,3.207,5.452,6.735,5.452,6.735a23.753,23.753,0,0,0,.321,6.414c.641,1.6,2.245,1.924,3.207.641s1.6-7.376,2.566-4.811S347.437,186.053,350,188.3s14.126.962,17.333.321,9.3-14.111,12.217-22.129S381.111,144.3,376.942,137.886Z" transform="translate(-190.862 -124.89)" fill="#04102e" stroke="#04102e" stroke-linecap="round" stroke-linejoin="round" stroke-width="1"/>
      <path id="Path_396" data-name="Path 396" d="M333.437,151.129a82.158,82.158,0,0,1,.779,8.995c0,3.528-2.352,5.482-.779,7.055s2.734.779,3.91-1.97a23.213,23.213,0,0,0,1.527-10.171C338.522,152.305,338.125,146.426,333.437,151.129Z" transform="translate(-184.437 -111.988)" fill="#fff" stroke="#263238" stroke-linecap="round" stroke-linejoin="round" stroke-width="1"/>
      <path id="Path_397" data-name="Path 397" d="M322.934,268.51s-8.018,53.451-14.2,106.107S303.31,500.76,303.31,500.76l16.31-.092s18.509-102.839,22.388-114.445,17.028-60.369,17.028-60.369,6.964,55.726,9.285,59.559,33.8,115.972,33.8,115.972l17.043-.214L402.362,380.1l-9.3-111.483Z" transform="translate(-200.049 -49.18)" fill="#04102e" stroke="#04102e" stroke-linecap="round" stroke-linejoin="round" stroke-width="1"/>
      <path id="Path_398" data-name="Path 398" d="M369.768,294.12,347,302.748l-7.208,9.606" transform="translate(-180.802 -35.679)" fill="none" stroke="#fff" stroke-linecap="round" stroke-linejoin="round" stroke-width="0.75"/>
      <line id="Line_101" data-name="Line 101" x2="20.311" transform="translate(134.187 233.212)" fill="none" stroke="#fff" stroke-linecap="round" stroke-linejoin="round" stroke-width="0.75"/>
      <line id="Line_102" data-name="Line 102" x1="8.002" transform="translate(183.422 233.212)" fill="none" stroke="#fff" stroke-linecap="round" stroke-linejoin="round" stroke-width="0.75"/>
      <path id="Path_399" data-name="Path 399" d="M311.815,421.069l-2.825,3.909S285.5,434.553,285.5,435.424s-.214,1.527,1.741,1.527h30.222l3.268-1.084v1.084h8.69l.214-16.081Z" transform="translate(-209.424 31.138)" fill="#263238"/>
      <path id="Path_400" data-name="Path 400" d="M377.16,421.069l-2.825,3.909s-23.472,9.575-23.472,10.446-.229,1.527,1.726,1.527h30.238l3.253-1.084v1.084h8.7L395,420.87Z" transform="translate(-174.97 31.138)" fill="#263238"/>
      <path id="Path_401" data-name="Path 401" d="M333.5,177.992,326.44,190.82s17.639-5.131,27.26-5.131a131.952,131.952,0,0,1,20.22,1.924l-5.085-10.4S345.041,172.54,333.5,177.992Z" transform="translate(-187.84 -98.29)" fill="#3874f2" stroke="#263238" stroke-linecap="round" stroke-linejoin="round" stroke-width="1"/>
      <path id="Path_402" data-name="Path 402" d="M385.594,189.51l21.7,88.254a9.331,9.331,0,0,1-7.8,11.469l-46.762,6.4,1.115-15.1,23.488-11.179-5.04-25.168S377.577,190.151,385.594,189.51Z" transform="translate(-173.981 -90.825)" fill="#3874f2" stroke="#263238" stroke-linecap="round" stroke-linejoin="round" stroke-width="1"/>
      <path id="Path_403" data-name="Path 403" d="M337.418,183.923a81.31,81.31,0,0,0-18.1,5.925,99.134,99.134,0,0,1-9.621,4.169s8.292,107.527,8.292,113.01-.321,5.773,1.527,7.376,11.881,2.337,29.52,2.016,33.353-.092,34.957-.092a8.277,8.277,0,0,0,6.414-3.848c1.924-2.886,17.516-117.438,17.837-118.721s-24.236-8.7-26.5-9.361C369.183,180.685,352.323,180.807,337.418,183.923Z" transform="translate(-196.665 -94.996)" fill="#3874f2" stroke="#263238" stroke-linecap="round" stroke-linejoin="round" stroke-width="1"/>
      <path id="Path_404" data-name="Path 404" d="M355.81,238a55.268,55.268,0,0,1-6.46,5.024" transform="translate(-175.763 -65.263)" fill="none" stroke="#263238" stroke-linecap="round" stroke-linejoin="round" stroke-width="1"/>
      <path id="Path_405" data-name="Path 405" d="M375.031,210.56s-4.459,19.7-17.471,35.415" transform="translate(-171.435 -79.728)" fill="none" stroke="#263238" stroke-linecap="round" stroke-linejoin="round" stroke-width="1"/>
      <path id="Path_406" data-name="Path 406" d="M370.32,242s4.7,6.6,16.2,7.361" transform="translate(-164.708 -63.155)" fill="none" stroke="#263238" stroke-linecap="round" stroke-linejoin="round" stroke-width="1"/>
      <path id="Path_407" data-name="Path 407" d="M368.84,241.81a18.6,18.6,0,0,0,9.621,11.057" transform="translate(-165.488 -63.255)" fill="none" stroke="#263238" stroke-linecap="round" stroke-linejoin="round" stroke-width="1"/>
      <path id="Path_408" data-name="Path 408" d="M343.851,204.144l-45.311,14.2L253.565,162.3l-8.735,7.285,40.3,77.534a12.217,12.217,0,0,0,13.5,6.307l48.075-10.644S352.632,226.593,343.851,204.144Z" transform="translate(-230.861 -105.169)" fill="#3874f2" stroke="#263238" stroke-linecap="round" stroke-linejoin="round" stroke-width="1"/>
      <path id="Path_409" data-name="Path 409" d="M280.428,200.2s-4.413,5.895-3.925,12.217" transform="translate(-214.184 -85.19)" fill="none" stroke="#263238" stroke-linecap="round" stroke-linejoin="round" stroke-width="1"/>
      <path id="Path_410" data-name="Path 410" d="M274.431,203.42s-1.97,8.827,1.527,14.233" transform="translate(-215.548 -83.492)" fill="none" stroke="#263238" stroke-linecap="round" stroke-linejoin="round" stroke-width="1"/>
      <path id="Path_411" data-name="Path 411" d="M311.54,215s11.255,13.179,20.082,17.593" transform="translate(-195.695 -77.388)" fill="none" stroke="#263238" stroke-linecap="round" stroke-linejoin="round" stroke-width="1"/>
      <path id="Path_412" data-name="Path 412" d="M313.44,219.48s6.383,14.737,19.151,21.594" transform="translate(-194.693 -75.026)" fill="none" stroke="#263238" stroke-linecap="round" stroke-linejoin="round" stroke-width="1"/>
      <line id="Line_103" data-name="Line 103" y1="6.307" x2="9.713" transform="translate(17.848 65.866)" fill="none" stroke="#263238" stroke-linecap="round" stroke-linejoin="round" stroke-width="1"/>
      <path id="Path_413" data-name="Path 413" d="M258.387,174.472s3.054-3.787,3.054-7.285-2.443-7.636-1.39-10.492,5.589-6.292,1.741-7.346-6.994,1.054-7.346,3.848,0,3.146,0,3.146-4.2-8.4-6.994-11.194-4.887-5.941-6.643-5.941-3.5,1.038-2.443,2.795,6.292,10.14,6.292,10.14l1.054,3.5s-5.956.351-6.658,1.4-.336,4.2-2.092,6.292-1.4,4.2-.7,6.307,2.795,5.589,4.2,5.589a4.765,4.765,0,0,0,2.443-.7l6.674,7.223Z" transform="translate(-235.683 -117.341)" fill="#fff" stroke="#263238" stroke-linecap="round" stroke-linejoin="round" stroke-width="1"/>
      <line id="Line_104" data-name="Line 104" x1="3.497" y1="5.238" transform="translate(3.798 51.954)" fill="none" stroke="#263238" stroke-linecap="round" stroke-linejoin="round" stroke-width="1"/>
    </g>
    <g id="freepik--Plants--inject-131" transform="translate(33.802 2263.298)">
      <path id="Path_416" data-name="Path 416" d="M467.09,308.553h0v-.063h0c-1.531-.151-17.286-1.505-31.675,5.971a38.473,38.473,0,0,0,8.141-28.3c-3.462-34.71-36.228-54.581-38.75-56.074V230h-.163v.088c-2.509,1.493-35.275,21.326-38.75,56.074a38.6,38.6,0,0,0,3.011,19.745c-18.453-11.027-39.966-9.17-41.949-8.969v0h-.075V297c-.966,2.245-13.285,31.838,1.505,57,13.234,22.492,40.97,16.546,48.509,14.439,6.335,6.649,17.863,21.777,22.969,47.606h-7.188l3.462,48.923h16.17l3.462-48.923h-8.455a149.44,149.44,0,0,1,20.648-49.187c7.527,1.869,27.962,5.018,38.022-12.068C477.866,334.395,467.881,310.372,467.09,308.553Zm-62.935-.188-17.1-23.734a.468.468,0,0,1,.765-.539l16.308,22.718V282.774h0l-17.1-23.734a.477.477,0,0,1,.113-.652.464.464,0,0,1,.652.113L404.1,281.219V246.308a.464.464,0,0,1,.464-.464.477.477,0,0,1,.464.464v33.87l17.813-22.58a.469.469,0,1,1,.74.577l-18.478,23.433v24.035l17.738-22.5a.469.469,0,0,1,.74.577l-18.478,23.433v20.334l17.738-22.5a.464.464,0,0,1,.652-.075.477.477,0,0,1,.088.652l-18.478,23.433v.439h-1.518l-16.534-22.906a.477.477,0,0,1,.113-.652.464.464,0,0,1,.652.113L404.13,328.7V308.378ZM377.009,366.3l-1.694-2.308-24.035-6.7a.39.39,0,0,1,.2-.753l23.094,6.435L364.54,349.235l-24.048-6.711a.376.376,0,0,1-.263-.477.389.389,0,0,1,.477-.263l23.094,6.435-11.88-16.245-24.035-6.636a.389.389,0,1,1,.2-.74l23.094,6.435-16.7-22.843a.4.4,0,0,1,.088-.552.389.389,0,0,1,.539.088l17.274,23.634-.163-23.42a.376.376,0,0,1,.376-.389.389.389,0,0,1,.4.389l.176,24.462h0l11.867,16.232-.176-23.5a.389.389,0,0,1,.389-.389.376.376,0,0,1,.389.376l.176,24.462h0l10.036,13.724-.163-23.433a.389.389,0,0,1,.778,0l.176,24.462h0l1.43,1.969Zm2.722,0c3.512-5.331,13.636-22.856,7.527-39.7a76.649,76.649,0,0,0,15.053,7.665v76.057c-5.545-23.308-16.007-37.307-22.392-44.018Zm26.343,39.327V334.608a76.121,76.121,0,0,0,14.338-6.987c-9.647,15.467,1.154,33.331,4,37.546a148.649,148.649,0,0,0-18.39,40.456ZM466.225,331.5l-19.507,5.432-9.634,13.184,18.741-5.218a.314.314,0,0,1,.389.213.326.326,0,0,1-.226.389l-19.507,5.444-8.141,11.139,18.729-5.231a.326.326,0,0,1,.389.226.314.314,0,0,1-.213.389l-19.557,5.507-1.029,1.392c-.188-.1-.364-.213-.539-.326l.59-.8h0l.151-19.845a.314.314,0,1,1,.627,0l-.138,19,8.141-11.139h0l.151-19.845a.314.314,0,0,1,.627,0l-.213,19.017,9.634-13.172h0l.151-19.858a.314.314,0,0,1,.314-.314.326.326,0,0,1,.314.326l-.138,19,14.025-19.18a.314.314,0,1,1,.5.376l-13.548,18.541,18.741-5.231a.318.318,0,0,1,.163.615Z" transform="translate(-321.155 -230)" fill="#04102e"/>
    </g>
  </g>
</svg>
