<svg xmlns="http://www.w3.org/2000/svg" width="90.711" height="92.486" viewBox="0 0 90.711 92.486">
  <g id="Group_80" data-name="Group 80" transform="translate(385.933 -1242.825)">
    <path id="Path_2" data-name="Path 2" d="M-340.58,1277.816q-20.575,0-41.149,0c-2.455,0-4-1.251-4.187-3.345a3.642,3.642,0,0,1,1.877-3.523q3.319-2.206,6.638-4.414c11.348-7.562,22.711-15.1,34.026-22.713a4.467,4.467,0,0,1,5.593-.02q19.96,13.38,39.974,26.678c.39.26.781.522,1.143.818a3.5,3.5,0,0,1,1.251,3.972,3.508,3.508,0,0,1-3.431,2.531c-2.461.047-4.923.027-7.386.027q-17.175,0-34.349,0Zm36.123-5.342c-.278-.232-.388-.341-.514-.426q-17.315-11.54-34.621-23.093a1.62,1.62,0,0,0-2.1.1q-17.009,11.365-34.039,22.7c-.278.185-.636.293-.8.719Z" fill="#3874f2"/>
    <path id="Path_3" data-name="Path 3" d="M-331.944,1586.887q-17.532,0-35.064-.005c-4.086-.005-7.054-2.768-7.6-6.994-.442-3.445,2.128-7.006,5.736-7.977a7.056,7.056,0,0,1,1.857-.2q35.006-.006,70.012,0a7.623,7.623,0,0,1,7.754,7.6,7.546,7.546,0,0,1-7.751,7.577Q-314.47,1586.9-331.944,1586.887Zm.116-9.91q-15.764,0-31.528,0c-1.25,0-2.5-.02-3.75.041a2.159,2.159,0,0,0-2.128,2.424c.075,1.484,1.011,2.176,2.991,2.176q34.224,0,68.448,0c2.125,0,3.26-.827,3.243-2.343s-1.132-2.3-3.286-2.3Q-314.834,1576.976-331.828,1576.978Z" transform="translate(-8.628 -251.579)" fill="#3874f2"/>
    <path id="Path_4" data-name="Path 4" d="M-76.495,1428.318c0-4.452-.01-8.9.005-13.354.006-1.742.923-2.832,2.387-2.929a2.654,2.654,0,0,1,2.892,2.92c.024,4.139.016,8.278.016,12.417,0,4.8.014,9.606-.019,14.409-.016,2.306-2.007,3.648-3.859,2.649a2.818,2.818,0,0,1-1.415-2.758q.01-6.677,0-13.354Z" transform="translate(-236.704 -129.432)" fill="#04102e"/>
    <path id="Path_5" data-name="Path 5" d="M-161.4,1428.318q0-6.617,0-13.235c0-1.93.873-3,2.465-3.035,1.646-.037,2.75,1.044,2.778,2.938.059,3.981.037,7.964.038,11.946q0,7.085-.012,14.171a6.012,6.012,0,0,1-.179,1.74,2.668,2.668,0,0,1-2.739,1.926,2.609,2.609,0,0,1-2.337-2.632c-.032-3.123-.018-6.246-.022-9.37q0-2.225,0-4.451Z" transform="translate(-171.752 -129.448)" fill="#04102e"/>
    <path id="Path_6" data-name="Path 6" d="M-241.678,1428.435q0,6.626,0,13.252c0,1.837-.98,3.037-2.485,3.093a2.716,2.716,0,0,1-2.758-3c-.03-8.913-.014-17.825-.009-26.738a3.841,3.841,0,0,1,.106-.811,2.529,2.529,0,0,1,2.864-2.169,2.478,2.478,0,0,1,2.275,2.649C-241.667,1419.288-241.68,1423.862-241.678,1428.435Z" transform="translate(-106.323 -129.451)" fill="#04102e"/>
    <path id="Path_7" data-name="Path 7" d="M-326.683,1428.337c0,4.534.019,9.068-.011,13.6a2.658,2.658,0,0,1-2.63,2.859,2.7,2.7,0,0,1-2.634-2.863c-.015-.39-.006-.781-.006-1.172q0-11.55,0-23.1c0-.9-.014-1.8.005-2.7a2.652,2.652,0,0,1,2.58-2.886,2.629,2.629,0,0,1,2.69,2.89C-326.668,1419.425-326.682,1423.881-326.683,1428.337Z" transform="translate(-41.281 -129.472)" fill="#04102e"/>
  </g>
</svg>
