<svg xmlns="http://www.w3.org/2000/svg" width="270.109" height="4.965" viewBox="0 0 270.109 4.965">
  <g id="Group_109" data-name="Group 109" transform="translate(420.851 -108.626)">
    <path id="Path_251" data-name="Path 251" d="M-280.033,110.393l0,0-.011,0,.006,0Z" transform="translate(-32.054 -0.724)" fill="#3874f2"/>
    <path id="Path_252" data-name="Path 252" d="M-110.251,115.835c-.259.231-.054.423.244.564a2.645,2.645,0,0,0,1.41.059,9.548,9.548,0,0,0,1.363.092c.839-.055.8-.387.481-.709A4.232,4.232,0,0,0-110.251,115.835Z" transform="translate(-72.79 -3.176)" fill="#3874f2"/>
    <path id="Path_253" data-name="Path 253" d="M-138.143,115.923c1.421.682,2.768.3,4.343.127C-135.525,115.391-135.525,115.391-138.143,115.923Z" transform="translate(-66.858 -3.19)" fill="#3874f2"/>
    <path id="Path_254" data-name="Path 254" d="M-114.325,116.148c.124.5.975.373,1.582.3.457-.055.839-.22.881-.722-.519,0-.879-.011-1.228.017C-113.6,115.786-114.435,115.706-114.325,116.148Z" transform="translate(-72.101 -3.222)" fill="#3874f2"/>
    <path id="Path_255" data-name="Path 255" d="M-344,113.834c-.646-.012-1.1.158-1.129.555-.015.221.118.489.561.479a1.619,1.619,0,0,0,1.17-.608C-343.3,113.97-343.588,113.842-344,113.834Z" transform="translate(-17.263 -2.35)" fill="#3874f2"/>
    <path id="Path_256" data-name="Path 256" d="M-325.822,115.39l.979-1.505C-326.542,114.269-326.542,114.269-325.822,115.39Z" transform="translate(-21.555 -2.5)" fill="#3874f2"/>
    <path id="Path_257" data-name="Path 257" d="M-311.087,115.392a5.083,5.083,0,0,0,2.272.059c-.245-.331,0-.718-.679-1.087Z" transform="translate(-25.034 -2.985)" fill="#3874f2"/>
    <path id="Path_258" data-name="Path 258" d="M-339.915,113.974c-.606-.009-1.148.1-1.057.516.055.249.481.278.862.226.427-.057.947-.054.99-.351C-339.177,114.034-339.541,113.979-339.915,113.974Z" transform="translate(-18.21 -2.349)" fill="#3874f2"/>
    <path id="Path_259" data-name="Path 259" d="M-150.742,111.4c-1.3.724-1.3.724-2.4.4a7.55,7.55,0,0,1-3.558.378l-.628.182-.5.241c.035.3.182.51,1.082.5a7.474,7.474,0,0,1,2.468-.045,6.041,6.041,0,0,1-3,.484,50.638,50.638,0,0,1-5.839-.173,3.426,3.426,0,0,0-1.257.069,20.1,20.1,0,0,1-5.073-.045c2.037-.634,4.512-.107,6.026-1.1-2.576-.031-4.951.225-7.275.012-.031.152-.893.335-.161.428.829.106.839.221.36.436a4.813,4.813,0,0,1-2.662.212c-.527-.418.592-.574.908-.861a2.585,2.585,0,0,1,1.342-.335l-.9-.447-.133-.041.078.063c-.1.4-1.027.425-1.559.629.04.027.124.057.112.078-.036.068-.145.061-.277-.014-.7.094-.691.094-.8.648-.051.265-.58.243-.989.271-.475.032-.987,0-.944-.261.137-.85-.545-1.806,1.76-2.387-.771-.246-2.5.067-1.856-.709.12-.055.512.06.426-.127l-.448.113c-.786.6-1.524,1.223-1.635,1.92-.056.358-.528.456-1.108.556-1.019.176-.64-.3-.986-.395-.6-.156-.686-.452-1.129-.61s-.512.1-.636.229c.044.031.138.068.124.091-.049.08-.177.074-.327-.011-.677-.035-1.142.934-2.1.063-.166-.152-.907.251-1.3.442a1.362,1.362,0,0,1-1.094.179,5.3,5.3,0,0,0-3.469-.181l-1.119.433c-.152.348-.644.509-1.449.47-.077,0-.209-.13-.174-.181.2-.294.758-.371,1.391-.386.165-.256.545-.406,1.158-.444l.572-.821a14.267,14.267,0,0,1-3.682.763,8,8,0,0,1-3.317-.1c-.306-.093-.38-.254-.357-.415l.12-.065-.151.051c-2.049-.057-4.105.484-6.16-.022-.328-.08-.632.105-.951.139a7.621,7.621,0,0,1-3.931-.184c-.783-.342-2.12.181-2.928-.273a2.811,2.811,0,0,0-.49-.248c-.168-.054-.323.018-.187.09a3.685,3.685,0,0,0,.622.183c-.012.208-.2.388-.7.414-1.28.068-2.567.129-3.855.146-.649.009-.842-.216-.743-.478.047-.076.48-.108.137-.228-.059.071-.118.142-.177.214l-.5.011a.6.6,0,0,1-.647.017,5.586,5.586,0,0,1-2.44.119,3.085,3.085,0,0,0-2.02.2,3.062,3.062,0,0,1-2.476-.07l.131-.058-.164.041c-.717.038-1.507.33-2.13-.012-.7-.386-1.532.457-2.129-.077l.129-.058-.163.041c-.49-.1-1.6.509-1.516-.249l.524-.2c1.868-.2,1.71-.727,1.111-1.439a8.363,8.363,0,0,1-3.734.687c-.442-.02-.959.088-.854.331.146.337.752.238,1.266.178a14.184,14.184,0,0,1,2.04-.217c.64.021.358.268.11.432l-.516.207c-1.07.159-1.829.815-3.268.385l-.148-.044.1.063c-.049.192-.131.4-.7.383-.592-.022-1.177-.1-1.757-.163a3.383,3.383,0,0,0-2.861.635c-.131.081-.215.261-.482.176-.236-.075.045-.2.24-.273-.23-.294-.521-.585-.282-.906l.124-.057-.168.035a25.079,25.079,0,0,1-6.316.14c-.037-.647,1.485-.763,2.2-1.152l.1-.063-.147.041c-1.795-.015-3.08.222-3.418,1.1-.113.295-1.169.587-1.445.165-.488-.745-1.139-.293-1.8-.164-.391.077-.736.4-1.053.288-2.379-.828-4.02.372-6.07.377a2.657,2.657,0,0,1-.48-.09c-.3-.392.87-.464.912-.75.039-.27-.473-.1-.754-.1l-.125-.06.1.07-4.3.78.623.152c-.37.176-.541-.014-.779-.08-.47.219-.987.424-1.39.665-.214.127-.053.425-.746.267-.312-.071-.48-.221-.457-.386.1-.759.107-.75-1.621-.7-.517.015-1.043-.033-1.565-.052-.549-.541-1.142-.129-1.721-.015l-.111.067.161-.044,1.613.015-.5.422a.568.568,0,0,1,.4.5c.3.027.687.011.669.209,0,.045-.209.125-.317.124-.464,0-.4-.171-.43-.3-.652-.031-.764-.209-.655-.449a8.809,8.809,0,0,0-2.957.367,1.282,1.282,0,0,1-1.277-.07c-.259-.232.259-.328.646-.412a2.606,2.606,0,0,0,1.229-.352,19.118,19.118,0,0,0-4.709.057c-.1-.028-.2-.06-.3-.094a2.4,2.4,0,0,0-1.816.159,5.462,5.462,0,0,1-2.389.27l-.115-.055.7-.428.118-.057-.162.035c-1.762,0-3.53.041-5.281-.018a5.758,5.758,0,0,0-2.6.31c-.879.368-2.422-.037-3.439.357.7.077.751.257.412.495a.808.808,0,0,1-.634.124c-.623-.194-.032-.384.083-.576a1.529,1.529,0,0,1-.96-.351c-.043-.052-2.98-.338-3.1-.3a.816.816,0,0,0-.61.485l1.413.253.361-.055-.165.149c-.3.077-.592.159-.9.228a1.64,1.64,0,0,1-1.174,0c-.306-.188.1-.352.285-.516-.7.029-.965-.51-1.855-.265-.43.118-.578.016-.638-.179-.164-.539-.913-.271-1.516-.192a4.157,4.157,0,0,1,.5.236c.17.112.463.25.008.35a1.333,1.333,0,0,1-.5-.2,1.385,1.385,0,0,1-.281-.3c-.521.686-2,.456-3.081.608a.511.511,0,0,0-.117.191l-.565-.214c-.277-.1-.49-.24-.27-.362a1.02,1.02,0,0,1,.995.071c.452-.166,1.23-.224,1.186-.555-.019-.143-.226-.48-.767-.245a4.308,4.308,0,0,1-2.087.391c-.965-.046.291.708-.934.511-.53-.085-.857-.385-1.372-.514a5.2,5.2,0,0,0-1.3-.056,40.412,40.412,0,0,1-7.541-.115,2.469,2.469,0,0,0-1.43.176,10.632,10.632,0,0,1-1.162.475c-1.077.331-1.583.241-2-.321-.134-.183-.276-.365-.434-.544a.508.508,0,0,0-.572-.129c-1.748.49-3.928.264-5.732.658a8.16,8.16,0,0,1-1.559.885c-.712.249-.81-.038-.772-.29l.1-.066-.144.046-1.521-.222a.97.97,0,0,1-.663-.018l-.751.005c.012-.066-.032-.169.046-.192a1.03,1.03,0,0,1,.871.111.982.982,0,0,0,.345.006c1.125-.4,2.672.022,3.8-.369-2.831-.256-5.725-.05-8.569-.217a1.127,1.127,0,0,0-.484.067c-.749.745-2.673.441-3.828.816a.514.514,0,0,1-.568-.014c-.571-.017-1.089.745-1.708.022l-.694-.031c.015-.06-.019-.153.054-.174a1.168,1.168,0,0,1,.826.1,6.694,6.694,0,0,0,1.653-.611c.109-.061.493.046.415-.129l-.439.115c-1.729-.274-3.794,0-5.317-.609a1.485,1.485,0,0,0,.324-.152c.09-.084.226-.185-.047-.263-.052.066-.1.133-.155.2s-.119.13-.179.2c-.948.383-2.482.412-3.1,1.032a2.134,2.134,0,0,1-1.6.036c-.17-.406,1.107-.363,1.113-.686-3.615-.26-7.218.007-10.822-.028a22.77,22.77,0,0,1-5.158-.314c-.668-.16-1.3.4-2.4.268a26.569,26.569,0,0,0-4.206-.1c-1.4.067-3.215-.254-4.03.629a1.5,1.5,0,0,1-1.176-.008c-.3-.134.018-.277.192-.4l.126-.059-.161.041c-1.842-.021-3.686-.068-5.525-.045-.573.007-1.788-.13-1.25.53.22.27-.426.211-.853.133-.561-.1-.533-.667-1.583-.379l-3.523.011a10.144,10.144,0,0,0,3.551.006c.494.166.366.345-.074.449a5.274,5.274,0,0,1-2.218.253c-1.053-.179-2.061-.408-3.088-.616-.175-.024-.253-.211-.533-.06l.5.078c-.883.451-.883.451-2.53.027-.152.222.348.71-.759.543-.5-.076-1.9.422-1.7-.385.09-.36-2.081-.437-2.91-.1-2.05.84-2.275.844-4.443.081a8.2,8.2,0,0,0,2.213-.214,10.5,10.5,0,0,0-2.242.2c-2.378.778-4.954.475-7.4.156a17.459,17.459,0,0,0-2.733-.365,1.87,1.87,0,0,1-.524-.028,33.891,33.891,0,0,0-4.661-1.152c-.6-.144-.718-.4-.09-.67a5.975,5.975,0,0,1,3.436-.476,98.546,98.546,0,0,0,10.143.3c4.595-.041,9.186-.188,13.78-.2,1.124,0,2.26.087,3.4-.007a.705.705,0,0,1,.6.029q6.2-.2,12.416-.137c4.292.04,8.584.064,12.877.1l.14.044-.088-.064c.044-.034.1-.1.129-.1,2.232.208,4.441-.113,6.664-.052.059,0,.11.057.165.088l-.146.058.157-.053c1.481-.373,2.859.042,4.284.1v0a4.6,4.6,0,0,0,1.01.057,8.046,8.046,0,0,1,3.581-.065c1.184.244,2.645-.163,3.792.259,1.347-.593,3.485.1,4.27-.242,1.241-.542,2,1.191,2.7-.008,1.416,0,2.835-.027,4.248,0a4.575,4.575,0,0,1,2.418.314l-.117.067.147-.054c2.308-.7,4.962-.465,7.455-.422a37.8,37.8,0,0,1,6.457.22,1.43,1.43,0,0,0,.263.005c2.626-.034,2.626-.034,2.336,1.045-.076.076-.529-.023-.383.155l.432-.126,1.528-.14c-1.427-.264-1.113-.64-.351-1.043a.678.678,0,0,1,.593.053,2.68,2.68,0,0,0-.407.037l.463.824c1.027-.237,1.027-.237-.043-.86a6.092,6.092,0,0,1,1.474-.206c1.813.306,3.653-.288,5.451.081.627.129,1.123-.192,1.734-.228,1.274-.075,2.611-.366,3.715.189l-.583.224-.1.06.154-.036.566-.232a21.645,21.645,0,0,1,4.6-.114,33.223,33.223,0,0,0,5.681-.209,7.12,7.12,0,0,1,3.892.821c.439.432-1.241.61-.449,1.121.734-.192,1.918-.089,1.294-.845-.494-.6.082-.829,1.585-.868a38.453,38.453,0,0,0,6.015-.116c.311-.057.483.066.524.188.093.278.184.491.777.107a1.365,1.365,0,0,1,1.478-.13c.65.311,1.364-.674,1.7-.042.242.448.965.379,1.461.526,1.064.314.782-.136.911-.343-.374-.078-.82-.134-.678-.381a.308.308,0,0,1,.185-.071c.583-.034.658.166.8.335.4-.063.829-.1,1.2-.192a1.724,1.724,0,0,1,1.349.076c.413.052.538.328,1.274.169a5.247,5.247,0,0,1,2.96.171l-.121.059.164-.038.918-.642c.973.085.031.562,1.062.612.457-.642,1.637-.46,2.8-.306-.037-.027-.116-.058-.1-.079.036-.067.145-.061.279.011l.981.081.153.047-.114-.063c.1-.442.579-.559,1.377-.265.423.156.453.522,1.367.385.623-.093,1.3-.083,1.43.291.112.31-.453.47-.9.66s-1.06-.09-1.484.112c1.547.535,1.79.528,3.982-.1l.147-.057-.171.044c-.283-1.1.266-1.481,2.388-1.483a71.491,71.491,0,0,1,11.21.444l.163.047-.133-.061c.073-.2-.192-.593.575-.5,1.14.137,2.183-.357,3.306.132-.158.359-1.142.674-1.586,1.123.631.217.728-.067.935-.183,1.871-1.044,4.555-1.178,7.3-1.229.358-.006.751.077.52.28-.061.054-.572-.009-.714.053-.314.135-.049.365.159.391.847.106,1.851.4,2.405-.2-.324-.039-.691-.066-.693-.255,0-.04.226-.12.314-.112.426.04.388.206.433.346.758.048,1.118-.652,2.086-.209a1.256,1.256,0,0,1,.181-.046c.021,0,.1.035.093.044a.609.609,0,0,1-.126.074c.1.144.1.353.326.418.48.139.517-.093.61-.221.256-.349.536-.519,1.061-.065a1.263,1.263,0,0,0,.465.047c1.11-.852,3.015-.06,4.372-.4a1.375,1.375,0,0,1,.974.065c.99.778,2.483.275,3.527.163,2.519-.268,5.06-.38,7.615-.491.745-.032,1.506-.012,1.369.469-.23.107-.853-.091-.8.168a1.933,1.933,0,0,0,.844-.138c1.8-.624,1.856-.637,3.35.013a1.368,1.368,0,0,0,1.1.078,3.491,3.491,0,0,1,1.5-.167l.454.239c.169.036-.051.212.33.172l-.276-.191-.45-.242c.945-.425,3.153-.581,3.42-.194.576.836,1.157.394,1.873.1a1.867,1.867,0,0,1,.619-.191c.918-.019.677.222.467.444l-.158.058.174-.05,1.443-.015c-.069-.266.111-.452.82-.422a3.2,3.2,0,0,1,.943.111c.151.245-.7.143-.789.346l2.415.091c.089.126-.023.336.536.273.122-.014.283-.113.276-.168-.036-.253-.521-.064-.758-.131-.206-.125-.49-.29-.15-.4a3.933,3.933,0,0,1,3.339.295l.141.049-.091-.069c.093-.545,1.055-.428,1.811-.43,2.584-.008,5.184-.032,7.747-.015,4.086.025,8.185.052,12.273.071,1.715.008,2.123.752,3.513.851.03,0,.081.081.05.095-2.027.916.918.71,1.349,1.067s1.821.337,2.054.839C-152.13,111.607-151.651,111.162-150.742,111.4Zm-262.066.037a1.629,1.629,0,0,0-.229.028l.128.059a1.2,1.2,0,0,0,.249,0C-412.5,111.486-412.56,111.446-412.809,111.439Zm22.6-.793-.146-.044-.035.058Zm1.077-1.016a3.928,3.928,0,0,0-.425,0A.4.4,0,0,0-389.13,109.631Zm21.2.529a.528.528,0,0,0-.137.032,1.75,1.75,0,0,0-.146.185l-.143.055.175-.038Zm15.326-.369c.08-.05.086-.123.12-.186-.111.044-.272.081-.307.135C-352.845,109.827-352.71,109.859-352.6,109.791Zm11.574,2.655a.464.464,0,0,0-.485-.012l.243,0Zm.334-2.158a2.227,2.227,0,0,0-.441-.02,5.377,5.377,0,0,0-.594.178,3.289,3.289,0,0,0,.484.044C-340.982,110.474-340.754,110.418-340.692,110.287Zm2.261,1.311a.314.314,0,0,0-.366.014c-.029.02,0,.081.032.087a1.2,1.2,0,0,0,.23-.009C-338.5,111.658-338.409,111.615-338.431,111.6Zm14.892-1.152c-.888-.237-1.607-.287-1.9.333Zm16.44.732-.124-.015.031.076Zm4.2-.758-.076-.062-.14-.042.088.063Zm-1.036,1.983-.051-.095a.368.368,0,0,0-.285.092l.168.013Zm5.288-1.527-.158.035-.508.045c-.232.021-.531-.012-.611.132-.015.025.054.076.115.091a1.065,1.065,0,0,0,.681-.086c.134-.047.246-.106.368-.16Zm3.811-.369-.173.048-.539.2c-1.061.145-1.011.314-.059.5l.127.042-.076-.063c.021-.152.041-.3.062-.457l.525-.212Zm4.06,1.185-.168.014.148.035Zm.694-1.155-.164.022.154.031Zm8.97-.188a.085.085,0,0,0-.011-.1.647.647,0,0,0-.158-.019l.026.2A.534.534,0,0,0-281.113,110.35Zm1.8.221-.173.016.151.038Zm1.091.362-.154.043-.108.057.154-.035Zm6.527-.2-.124-.063-.175-.214c-1.481.337-3.21.044-4.9.316.754.22,1.378-.117,1.856.042a5.293,5.293,0,0,0,3.188-.131Zm4.541-.186c-.365.038-.948-.033-.989.237-.022.149.171.3.548.327a1.017,1.017,0,0,0,.926-.3C-266.622,110.65-266.658,110.495-267.152,110.547Zm3.431-.152a.608.608,0,0,0-.538-.009c-.38.143-.992.159-1.277.525,1.04-.036,2.071.015,2.551-.41C-262.751,110.293-263.477,110.458-263.722,110.4Zm3.4.344c.009-.076-.174-.1-.369-.06l-.395.121a2.192,2.192,0,0,0,.436.058C-260.52,110.849-260.324,110.783-260.319,110.739Zm3.13-.4a.746.746,0,0,0-.2-.061c-.047.024-.132.047-.134.071s.047.085.1.092C-257.194,110.468-257.1,110.426-257.19,110.336Zm8.291-.432-1.141.835C-248.47,110.349-248.47,110.349-248.9,109.9Zm11.655.865-.151.038c-.046.079-.466.1-.177.231l.222-.209Zm.392-.5a12.614,12.614,0,0,0-1.785-.327,6.109,6.109,0,0,1-3.3.474.73.73,0,0,0-.467.241c-.067.129.226.192.49.225a5.973,5.973,0,0,0,1.824-.058C-239.026,110.629-237.947,110.451-236.852,110.265Zm10.564-.058c-.013-.1-.133-.129-.345-.083-.147.032-.277.077-.416.116a1.6,1.6,0,0,0,.382.074A1.643,1.643,0,0,0-226.288,110.207Zm.263.758-.173.013.139.042Zm5.4-.7c-1.184.186-2.685-.208-3.739.362C-222.754,111.076-221.854,110.369-220.627,110.262Zm3.595,1.056-.1-.081-.166.028A1.293,1.293,0,0,0-217.032,111.318Zm4.132-1.352-.151.056c-1.052-.078-2.359.444-3.015.083-1.175-.647-1.962-.083-2.912,0l-.144-.05.1.067c-.184.285,0,.459.745.431a15.294,15.294,0,0,1,3.6.147c1.051.2,1.5-.245,1.658-.661Zm4.632.522c-.917-.531-2.115-.193-3.2-.2l-.129-.053.081.072C-210.495,110.58-209.583,111.244-208.268,110.487Zm.544-1.363a.145.145,0,0,0-.117.09c0,.021.088.044.137.067a.783.783,0,0,0,.214-.055C-207.4,109.133-207.5,109.09-207.724,109.124Zm.725,1.309.147.015-.037-.081Zm.363.654-.143.035-.1.057.145-.034Zm1.443-1.778c.028-.09-.089-.139-.3-.124-.059,0-.1.052-.153.08-.009.09.1.139.307.124A.2.2,0,0,0-205.193,109.309Zm4.728-.019a.334.334,0,0,0,.182-.053c.027-.025-.011-.063-.021-.1a1.159,1.159,0,0,0-.209.018C-200.721,109.225-200.7,109.277-200.465,109.29Zm-1.414,2.045-.169.024.158.032Zm5.581-.956a7.936,7.936,0,0,0-3.406-.191c-1.173.278-2.039.137-2.492-.7-.911,1.088-.619,1.332,1.063,1.234C-199.529,110.624-197.99,110.343-196.3,110.379Zm6.4-.238.146-.057-.168.045c-.694.042-1.447.042-1.691.424-.6.113-1.8-.25-1.72.405-.057.079-.49-.011-.363.152l.412-.122a4.2,4.2,0,0,0,1.712-.408C-191.041,110.413-189.338,111.087-189.9,110.142Zm6.669.334-1.356.137c.076.059.157.171.225.169A1.493,1.493,0,0,0-183.228,110.475Zm2.845-1.278a1.872,1.872,0,0,0,.238.132,1,1,0,0,0,.185-.036,2.645,2.645,0,0,0-.249-.137A1.212,1.212,0,0,0-180.383,109.2Zm1.763,1.2a.731.731,0,0,0-.4-.106c-.542.053-.118.234-.212.351l-.539.2a1.606,1.606,0,0,1-.48-.018,1.9,1.9,0,0,0-.261-.323.792.792,0,0,0-.809-.141c-.127.037-.245.12-.255.185-.022.14.25.186.51.218s.511.057.768.085a.751.751,0,0,0,.578.019l.534-.206C-178.965,110.583-178.414,110.628-178.62,110.395Zm1.9-.969-.223-.175c-.108.04-.289.075-.307.122s.1.12.154.182Zm3.91-.1a1.712,1.712,0,0,0,.236-.027.56.56,0,0,0-.144-.06.723.723,0,0,0-.243-.006C-173.125,109.283-173.066,109.323-172.813,109.329Zm.863,1.227c.063-.12-.09-.237-.359-.255a1.147,1.147,0,0,0-.988.269c-.09.142.267.149.51.168C-172.442,110.732-172.052,110.75-171.95,110.555Zm3.059-1.418.155.04.022-.058Zm-1.759.089c-.049-.022-.1-.063-.148-.061a.448.448,0,0,0-.213.049c-.087.091.01.133.233.1C-170.719,109.306-170.692,109.257-170.65,109.226Zm3.48.059-.149-.045.1.065c-.03.143-.059.287-.09.429-1.106.124-2.438-.01-3.272.512,2.394.343,2.394.343,3.326-.491C-166.722,109.616-166.89,109.453-167.17,109.285Zm2.5.2c.3.055.806.1.837-.038.049-.226-.447-.07-.7-.089-.161-.012-.327-.01-.491-.014l-.134-.048.083.068A3.445,3.445,0,0,0-164.673,109.482Zm.887,1.952a1.2,1.2,0,0,0-.439.048c-.185.064-.134.14.1.155a3.634,3.634,0,0,0,.475-.031C-163.549,111.531-163.585,111.455-163.787,111.434Zm.776-.535-.171.011.136.04Zm6.083,1.189c0-.038-.007-.076-.01-.114a27.824,27.824,0,0,0-5.543.713c1.568.248,3.113.5,4.5-.145l.073.031-.073-.031.611-.2Zm1.92-.419-.149.035-.1.058.146-.035Z" transform="translate(0)" fill="#3874f2"/>
    <path id="Path_260" data-name="Path 260" d="M-129.116,115.736c-.28.034-.617.107-.485.314.2.317.706.3,1.181.251.287-.032.534-.116.506-.33A1.391,1.391,0,0,0-129.116,115.736Z" transform="translate(-69.442 -3.219)" fill="#3874f2"/>
    <path id="Path_261" data-name="Path 261" d="M-357.546,113.832a1.472,1.472,0,0,0-1.257.136c-.213.2.035.4.468.459a1.246,1.246,0,0,0,1.158-.242C-356.993,113.96-357.3,113.889-357.546,113.832Z" transform="translate(-10.774 -2.241)" fill="#3874f2"/>
    <path id="Path_262" data-name="Path 262" d="M-369.663,113.826c-.408-.007-.773.085-.841.328-.084.3.362.309.729.335.39-.01.793-.041.844-.31C-368.878,113.9-369.268,113.833-369.663,113.826Z" transform="translate(-8.751 -2.262)" fill="#3874f2"/>
    <path id="Path_263" data-name="Path 263" d="M-361.412,114.006c-.334.042-.853.031-.756.336.074.235.475.331.878.283.38-.045.675-.181.753-.425C-360.66,113.9-361.067,113.963-361.412,114.006Z" transform="translate(-10.2 -2.325)" fill="#3874f2"/>
    <path id="Path_264" data-name="Path 264" d="M-119.241,115.5c-.395-.031-.734.085-.805.318s.15.39.652.438c.283-.03.706-.017.734-.3C-118.639,115.729-118.821,115.533-119.241,115.5Z" transform="translate(-71.106 -3.182)" fill="#3874f2"/>
    <path id="Path_265" data-name="Path 265" d="M-209.98,115.936c-.24.073-.478.232-.245.373.3.18.689.034,1.025-.023.252-.043.483-.126.733-.193-.083-.072-.113-.13-.179-.15A2.278,2.278,0,0,0-209.98,115.936Z" transform="translate(-47.999 -3.242)" fill="#3874f2"/>
    <path id="Path_266" data-name="Path 266" d="M-277.827,114.394c-.483-.01-.986.031-.928.393.031.187.412.195.686.154.348-.052.754-.075.872-.311C-277.288,114.433-277.562,114.4-277.827,114.394Z" transform="translate(-32.388 -2.486)" fill="#3874f2"/>
    <path id="Path_267" data-name="Path 267" d="M-116.338,115.8c-.391.026-.684.179-.6.412.06.167.394.195.674.162s.5-.117.475-.311A.508.508,0,0,0-116.338,115.8Z" transform="translate(-71.646 -3.234)" fill="#3874f2"/>
    <path id="Path_268" data-name="Path 268" d="M-122.229,115.707c-.37.037-.669.176-.663.411,0,.178.249.241.552.221.351-.055.721-.115.663-.382C-121.712,115.794-121.949,115.679-122.229,115.707Z" transform="translate(-70.613 -3.218)" fill="#3874f2"/>
    <path id="Path_269" data-name="Path 269" d="M-234.249,115.728c-.136.154-.023.3.3.3.119,0,.247-.1.372-.15-.073-.083-.115-.211-.226-.234A.736.736,0,0,0-234.249,115.728Z" transform="translate(-42.492 -3.208)" fill="#3874f2"/>
    <path id="Path_270" data-name="Path 270" d="M-335.722,114.8c-.051-.2-.015-.433-.477-.485-.093-.011-.335.106-.331.16.016.267.423.291.766.346.056.2.025.431.492.473.1.008.331-.112.326-.167C-334.969,114.865-335.386,114.859-335.722,114.8Z" transform="translate(-19.22 -2.555)" fill="#3874f2"/>
    <path id="Path_271" data-name="Path 271" d="M-272.3,115.639c-.164.13-.176.284.121.35a.662.662,0,0,0,.627-.18c-.025-.09,0-.224-.088-.263A.656.656,0,0,0-272.3,115.639Z" transform="translate(-33.816 -3.182)" fill="#3874f2"/>
    <path id="Path_272" data-name="Path 272" d="M-275.387,115.559c.058.092.073.222.187.263a1.463,1.463,0,0,0,.464-.065c-.057-.091-.071-.223-.183-.26A1.5,1.5,0,0,0-275.387,115.559Z" transform="translate(-33.132 -3.181)" fill="#3874f2"/>
    <path id="Path_273" data-name="Path 273" d="M-285.871,115.653c-.041.069.036.211.138.248a.566.566,0,0,0,.608-.115c-.047-.087-.05-.216-.153-.252A.512.512,0,0,0-285.871,115.653Z" transform="translate(-30.744 -3.182)" fill="#3874f2"/>
    <path id="Path_274" data-name="Path 274" d="M-349.118,113.953c-.16.131-.084.262.184.34.152-.029.375-.032.444-.093.146-.129.1-.283-.187-.336A.75.75,0,0,0-349.118,113.953Z" transform="translate(-16.321 -2.228)" fill="#3874f2"/>
    <path id="Path_275" data-name="Path 275" d="M-353.934,114.034a.37.37,0,0,0-.214.093c-.091.121-.012.239.19.239.13,0,.259-.107.387-.167C-353.584,114.075-353.708,114.012-353.934,114.034Z" transform="translate(-12.766 -2.28)" fill="#3874f2"/>
    <path id="Path_276" data-name="Path 276" d="M-188.011,115.831c-.016.008.057.112.113.121.217.035.355-.024.4-.149l-.11-.139C-187.745,115.718-187.888,115.768-188.011,115.831Z" transform="translate(-53.027 -3.211)" fill="#3874f2"/>
    <path id="Path_277" data-name="Path 277" d="M-262.27,116.049c.023.121.245.172.429.1.129-.05.188-.159.277-.242a1.576,1.576,0,0,0-.476-.091C-262.153,115.836-262.285,115.973-262.27,116.049Z" transform="translate(-36.121 -3.237)" fill="#3874f2"/>
    <path id="Path_278" data-name="Path 278" d="M-268.224,115.884l-.1-.06-1.066-.323C-269.289,115.907-269.171,116.292-268.224,115.884Z" transform="translate(-34.513 -3.183)" fill="#3874f2"/>
    <path id="Path_279" data-name="Path 279" d="M-269.388,115.5l0-.009-.008,0,0,.008Z" transform="translate(-34.477 -3.18)" fill="#3874f2"/>
    <path id="Path_280" data-name="Path 280" d="M-234.2,114.748a1.2,1.2,0,0,0,.453.043,2.38,2.38,0,0,0,.139-.446,3.379,3.379,0,0,1-.319-.131C-234.233,114.356-234.445,114.528-234.2,114.748Z" transform="translate(-42.491 -2.412)" fill="#3874f2"/>
    <path id="Path_281" data-name="Path 281" d="M-275.138,114.583a3.712,3.712,0,0,0,.409.137c.031.007.173-.073.16-.093a1.183,1.183,0,0,0-.2-.207Z" transform="translate(-33.186 -2.437)" fill="#3874f2"/>
    <path id="Path_282" data-name="Path 282" d="M-334.581,114.183a.583.583,0,0,0,.3.2c.219.032.328-.056.29-.183-.146-.046-.288-.1-.443-.132C-334.46,114.067-334.6,114.164-334.581,114.183Z" transform="translate(-19.648 -2.295)" fill="#3874f2"/>
    <path id="Path_283" data-name="Path 283" d="M-132.931,114.847a1.2,1.2,0,0,0-.472.052c-.124.081,0,.174.218.209l.407-.145C-132.827,114.922-132.88,114.847-132.931,114.847Z" transform="translate(-68.777 -2.608)" fill="#3874f2"/>
    <path id="Path_284" data-name="Path 284" d="M-296.686,115.321a.388.388,0,0,0-.185.1c-.084.112.013.2.234.182a1.02,1.02,0,0,0,.351-.177C-296.331,115.3-296.468,115.256-296.686,115.321Z" transform="translate(-28.231 -2.808)" fill="#3874f2"/>
    <path id="Path_285" data-name="Path 285" d="M-172.647,115.473c-.053.049.066.158.11.24.148-.03.368-.039.423-.1s-.067-.164-.112-.249A1.3,1.3,0,0,0-172.647,115.473Z" transform="translate(-56.525 -3.16)" fill="#3874f2"/>
    <path id="Path_286" data-name="Path 286" d="M-141.61,115.652a.241.241,0,0,0,.166.24,1.368,1.368,0,0,0,.44-.064c-.067-.083-.1-.188-.208-.246C-141.372,115.5-141.577,115.532-141.61,115.652Z" transform="translate(-63.599 -3.189)" fill="#3874f2"/>
    <path id="Path_287" data-name="Path 287" d="M-169.435,115.557c-.02.074.086.2.2.232a1.457,1.457,0,0,0,.45-.056c-.077-.083-.124-.185-.239-.244C-169.193,115.4-169.4,115.439-169.435,115.557Z" transform="translate(-57.263 -3.173)" fill="#3874f2"/>
    <path id="Path_288" data-name="Path 288" d="M-146.4,115.494a1.037,1.037,0,0,0,.191.086c.131-.055.245-.124.365-.188l-.208-.089Z" transform="translate(-62.505 -2.803)" fill="#3874f2"/>
    <path id="Path_289" data-name="Path 289" d="M-177.446,115.044a.653.653,0,0,0-.406.109c-.177.2-.011.373.286.506.154.111.283.118.33.014.014-.031-.079-.079-.123-.121C-177.259,115.374-177,115.178-177.446,115.044Z" transform="translate(-55.334 -3.103)" fill="#3874f2"/>
    <path id="Path_290" data-name="Path 290" d="M-224.973,116.239c-.19.063-.173.134.04.174a.694.694,0,0,0,.207-.036c-.009-.036,0-.089-.033-.107A.4.4,0,0,0-224.973,116.239Z" transform="translate(-44.574 -3.31)" fill="#3874f2"/>
    <path id="Path_291" data-name="Path 291" d="M-285.484,114.718c-.021.007.025.074.04.113l.233-.031C-285.178,114.672-285.274,114.64-285.484,114.718Z" transform="translate(-30.822 -2.513)" fill="#3874f2"/>
    <path id="Path_292" data-name="Path 292" d="M-298.876,114.782c-.283.2-.637.392-.328.682a.487.487,0,0,0,.21.018c.128-.189.24-.382.356-.574.256-.121.6-.229.2-.446Z" transform="translate(-27.689 -2.631)" fill="#3874f2"/>
    <path id="Path_293" data-name="Path 293" d="M-282.431,115.041c-.007.033.07.071.108.107.065-.017.164-.025.188-.053a.087.087,0,0,0-.017-.125C-282.289,114.889-282.4,114.918-282.431,115.041Z" transform="translate(-31.519 -2.632)" fill="#3874f2"/>
    <path id="Path_294" data-name="Path 294" d="M-166.287,115.527l.215-.039-.185-.071Z" transform="translate(-57.961 -3.168)" fill="#3874f2"/>
    <path id="Path_295" data-name="Path 295" d="M-279.173,115.668c-.207-.027-.3.024-.243.12.018.028.126.036.193.055l.19-.075C-279.079,115.734-279.116,115.676-279.173,115.668Z" transform="translate(-32.203 -3.211)" fill="#3874f2"/>
    <path id="Path_296" data-name="Path 296" d="M-264.659,115.857a.732.732,0,0,0,.189.052l.074-.1-.2-.05C-264.617,115.794-264.678,115.845-264.659,115.857Z" transform="translate(-35.563 -3.228)" fill="#3874f2"/>
    <path id="Path_297" data-name="Path 297" d="M-185.059,109.266l-.214.038.184.071Z" transform="translate(-53.638 -0.111)" fill="#3874f2"/>
    <path id="Path_298" data-name="Path 298" d="M-200.7,115.886c.01.039,0,.093.036.112a.415.415,0,0,0,.223.032c.195-.066.177-.142-.043-.183A.736.736,0,0,0-200.7,115.886Z" transform="translate(-50.132 -3.243)" fill="#3874f2"/>
    <path id="Path_299" data-name="Path 299" d="M-267.82,115.844l-.1-.064-.173.093.1.06Z" transform="translate(-34.782 -3.232)" fill="#3874f2"/>
    <path id="Path_300" data-name="Path 300" d="M-243.936,114.736l.107-.107-.125.1-.687.244c-.87.048-1.5.32-1.256.809.161.32.778.028,1.187-.03.221.15.418.35.81.118l-.6-.247c.018-.175.036-.349.055-.525Z" transform="translate(-39.885 -3.031)" fill="#3874f2"/>
    <path id="Path_301" data-name="Path 301" d="M-239.61,114.939c-.007.007.077.059.089.056a1.257,1.257,0,0,0,.178-.072l-.123-.077A.906.906,0,0,0-239.61,114.939Z" transform="translate(-41.268 -2.583)" fill="#3874f2"/>
    <path id="Path_302" data-name="Path 302" d="M-217.561,111.65a2.322,2.322,0,0,0-.515-.02C-217.926,111.821-217.756,111.838-217.561,111.65Z" transform="translate(-46.18 -1.246)" fill="#3874f2"/>
  </g>
</svg>
