<svg xmlns="http://www.w3.org/2000/svg" width="16" height="16" viewBox="0 0 16 16">
  <path id="material-symbols_cancel-outline-rounded" d="M6.56,13.44a.823.823,0,0,0,1.12,0L10,11.12l2.34,2.34a.713.713,0,0,0,.55.21.78.78,0,0,0,.55-.23.823.823,0,0,0,0-1.12L11.12,10l2.34-2.34a.713.713,0,0,0,.21-.55.78.78,0,0,0-.23-.55.823.823,0,0,0-1.12,0L10,8.88,7.66,6.54a.714.714,0,0,0-.55-.21.784.784,0,0,0-.55.23.823.823,0,0,0,0,1.12L8.88,10,6.54,12.34a.712.712,0,0,0-.21.55A.781.781,0,0,0,6.56,13.44ZM10,18a7.786,7.786,0,0,1-3.12-.63,7.982,7.982,0,0,1-4.25-4.25A7.786,7.786,0,0,1,2,10a7.786,7.786,0,0,1,.63-3.12A7.987,7.987,0,0,1,6.88,2.63,7.794,7.794,0,0,1,10,2a7.794,7.794,0,0,1,3.12.63,7.987,7.987,0,0,1,4.25,4.25A7.786,7.786,0,0,1,18,10a7.786,7.786,0,0,1-.63,3.12,7.982,7.982,0,0,1-4.25,4.25A7.786,7.786,0,0,1,10,18Zm0-1.6a6.172,6.172,0,0,0,4.53-1.87A6.172,6.172,0,0,0,16.4,10a6.172,6.172,0,0,0-1.87-4.53A6.172,6.172,0,0,0,10,3.6,6.169,6.169,0,0,0,5.47,5.47,6.17,6.17,0,0,0,3.6,10a6.17,6.17,0,0,0,1.87,4.53A6.169,6.169,0,0,0,10,16.4Z" transform="translate(-2 -2)" fill="#fff"/>
</svg>
