<svg xmlns="http://www.w3.org/2000/svg" xmlns:xlink="http://www.w3.org/1999/xlink" width="200" height="200" viewBox="0 0 200 200">
  <defs>
    <clipPath id="clip-path">
      <rect id="Rectangle_112" data-name="Rectangle 112" width="200" height="200" transform="translate(0.374 0.374)" fill="none"/>
    </clipPath>
    <linearGradient id="linear-gradient" x1="0.496" y1="1.612" x2="0.506" y2="-0.144" gradientUnits="objectBoundingBox">
      <stop offset="0" stop-color="#f8f9fa"/>
      <stop offset="1" stop-color="#efefef"/>
    </linearGradient>
    <linearGradient id="linear-gradient-2" x1="0.5" y1="1.797" x2="0.5" y2="0.797" gradientUnits="objectBoundingBox">
      <stop offset="0" stop-color="#fff"/>
      <stop offset="0.719" stop-color="#fafafa"/>
    </linearGradient>
  </defs>
  <g id="Group_187" data-name="Group 187" transform="translate(-879.445 -136.526)">
    <g id="Group_186" data-name="Group 186" transform="translate(879.071 136.152)">
      <g id="Group_185" data-name="Group 185" clip-path="url(#clip-path)">
        <g id="Group_184" data-name="Group 184" transform="translate(4.684 19.406)">
          <path id="Path_704" data-name="Path 704" d="M989.37,325.751a80.3,80.3,0,1,0-80.3-80.3A80.3,80.3,0,0,0,989.37,325.751Z" transform="translate(-893.681 -165.152)" fill="url(#linear-gradient)"/>
          <g id="Group_181" data-name="Group 181" transform="translate(54.871 23.124)">
            <rect id="Rectangle_107" data-name="Rectangle 107" width="83.335" height="103.739" rx="16" fill="url(#linear-gradient-2)"/>
          </g>
          <rect id="Rectangle_108" data-name="Rectangle 108" width="33.458" height="6.558" rx="3.279" transform="translate(62.232 36.507)" fill="#04102e"/>
          <rect id="Rectangle_109" data-name="Rectangle 109" width="66.916" height="6.558" rx="3.279" transform="translate(62.232 55.109)" fill="#c7cbd6"/>
          <rect id="Rectangle_110" data-name="Rectangle 110" width="66.916" height="6.558" rx="3.279" transform="translate(62.232 73.712)" fill="#c7cbd6"/>
          <rect id="Rectangle_111" data-name="Rectangle 111" width="66.916" height="6.558" rx="3.279" transform="translate(62.232 92.315)" fill="#c7cbd6"/>
          <path id="Path_705" data-name="Path 705" d="M982.35,330.908h60.358a3.279,3.279,0,0,1,3.279,3.279h0a3.279,3.279,0,0,1-3.279,3.279H982.35a3.279,3.279,0,0,1-3.279-3.279h0A3.279,3.279,0,0,1,982.35,330.908Z" transform="translate(-916.839 -219.99)" fill="#c7cbd6"/>
          <g id="Group_182" data-name="Group 182" transform="translate(144.539 11.659)">
            <path id="Path_706" data-name="Path 706" d="M1145.667,182.576h-40.2a3.484,3.484,0,0,0-3.392,3.57v19.887a3.485,3.485,0,0,0,3.392,3.57h40.2a3.484,3.484,0,0,0,3.392-3.57V186.146A3.484,3.484,0,0,0,1145.667,182.576Z" transform="translate(-1102.071 -182.576)" fill="#fff"/>
          </g>
          <path id="Path_707" data-name="Path 707" d="M1115.086,205.182a4.015,4.015,0,1,0-4.015-4.015A4.015,4.015,0,0,0,1115.086,205.182Z" transform="translate(-960.51 -175.739)" fill="#78829b"/>
          <path id="Path_708" data-name="Path 708" d="M1135.086,197.152h13.383a4.015,4.015,0,0,1,4.015,4.015h0a4.015,4.015,0,0,1-4.015,4.015h-13.383a4.015,4.015,0,0,1-4.015-4.015h0A4.015,4.015,0,0,1,1135.086,197.152Z" transform="translate(-967.127 -175.739)" fill="#c7cbd6"/>
          <path id="Path_709" data-name="Path 709" d="M1043.5,320.36a41.627,41.627,0,0,0,23.283-7.076l27.234,26,9.878-11.459-26.28-25.087A41.825,41.825,0,1,0,1043.5,320.36Zm35.672-41.823a35.408,35.408,0,1,1-35.408-35.407A35.408,35.408,0,0,1,1079.176,278.538Z" transform="translate(-924.32 -188.828)" fill="#3874f3" fill-rule="evenodd"/>
          <g id="Group_183" data-name="Group 183" transform="translate(82.976 53.533)">
            <path id="Path_710" data-name="Path 710" d="M1046.54,317.421a36.136,36.136,0,1,0-36.469-36.135A36.3,36.3,0,0,0,1046.54,317.421Z" transform="translate(-1010.071 -245.152)" fill="rgba(255,255,255,0.3)"/>
          </g>
          <path id="Path_711" data-name="Path 711" d="M1062.44,290.881l8.826-8.791a4.577,4.577,0,0,0-.091-6.407,4.646,4.646,0,0,0-6.447-.091l-8.845,8.791-8.826-8.791a4.643,4.643,0,0,0-6.632-.093,4.579,4.579,0,0,0,.094,6.591l8.84,8.791-8.84,8.791a4.579,4.579,0,0,0-.094,6.591,4.644,4.644,0,0,0,6.632-.093l8.845-8.791,8.846,8.791a4.646,4.646,0,0,0,6.332-.2,4.576,4.576,0,0,0,.186-6.294Z" transform="translate(-936.69 -201.213)" fill="#04102e"/>
          <path id="Path_712" data-name="Path 712" d="M1139.672,384.329l9.877-11.46,1.488,1.421a8.02,8.02,0,0,1,.506,10.923,7.206,7.206,0,0,1-5.085,2.528,7.133,7.133,0,0,1-5.294-2l-1.488-1.42Z" transform="translate(-969.972 -233.873)" fill="#719bf2"/>
          <path id="Path_713" data-name="Path 713" d="M919.07,217.2a12.659,12.659,0,0,0-.371-2.886c-.84-3.4-4.586-5.584-8.573-6.1s-8.13.655-9.727,3.613a5.6,5.6,0,0,0-.666,4.378,5.7,5.7,0,0,0,2.451,3.026c3.338,2.2,9.184,2.649,11.851,1.729a29.829,29.829,0,0,0,3.611-1.527c-.671,3.845-3.171,7.487-6.507,10.77-7.251,7.134-18.5,12.549-24.63,14.54a.657.657,0,0,0-.41.816.619.619,0,0,0,.781.43c6.249-2.03,17.719-7.56,25.114-14.835,3.82-3.757,6.542-7.988,7.007-12.435,8.636-4.819,15.727-13.561,21.79-20.919a.671.671,0,0,0-.066-.919.607.607,0,0,0-.881.069C934.029,204.007,927.279,212.4,919.07,217.2Zm-1.255.7a11.39,11.39,0,0,0-.326-3.261c-.726-2.944-4.064-4.684-7.515-5.128a11.161,11.161,0,0,0-6,.749,5.247,5.247,0,0,0-2.489,2.212,4.315,4.315,0,0,0-.564,3.342,4.406,4.406,0,0,0,1.926,2.317c3.042,2.005,8.365,2.432,10.792,1.594A29.357,29.357,0,0,0,917.815,217.9Z" transform="translate(-886.072 -175.597)" fill="#04102e" fill-rule="evenodd"/>
          <circle id="Ellipse_63" data-name="Ellipse 63" cx="4" cy="4" r="4" transform="translate(181.69 99.969)" fill="#78829b"/>
          <path id="Path_714" data-name="Path 714" d="M936.537,357.85a6.548,6.548,0,0,0,2.052-1.143,3.973,3.973,0,0,0,1.16-2.237c.242-1.07.339-2.209.633-3.28a1.027,1.027,0,0,1,.407-.615.961.961,0,0,1,.672-.2.975.975,0,0,1,.838.572,1.214,1.214,0,0,1,.1.3c.021.1.035.408.057.535.056.314.1.628.146.943a9.213,9.213,0,0,0,.688,2.907,4.5,4.5,0,0,0,2.094,2.466,5.108,5.108,0,0,0,3.048.009q.179-.045.353-.078a1.034,1.034,0,0,1,1.187.858,1.084,1.084,0,0,1-.789,1.267c-.114.027-.226.052-.337.075a10.774,10.774,0,0,0-4.784,3.387c-.35.424-.863,1.611-1.387,2.367a2.754,2.754,0,0,1-1.185,1.057,1.016,1.016,0,0,1-.62.029,1.044,1.044,0,0,1-.61-.429,1.248,1.248,0,0,1-.2-.5,3.862,3.862,0,0,1-.019-.474c-.107-.386-.238-.763-.333-1.152a6.679,6.679,0,0,0-1.2-2.3,4.183,4.183,0,0,0-1.8-1.55c-.1-.026-.919-.237-1.207-.357a1.316,1.316,0,0,1-.7-.634,1.272,1.272,0,0,1-.112-.706,1.173,1.173,0,0,1,.382-.743,1.32,1.32,0,0,1,.614-.306A7.977,7.977,0,0,1,936.537,357.85Zm4.8-1.515c.037.089.078.178.121.268a6.435,6.435,0,0,0,3.173,3.508l.042.017a14.115,14.115,0,0,0-2.155,2.068,12.632,12.632,0,0,0-.888,1.49,9.282,9.282,0,0,0-1.441-2.724,6.268,6.268,0,0,0-1.61-1.678,7.1,7.1,0,0,0,1.343-.921A5.381,5.381,0,0,0,941.333,356.335Z" transform="translate(-902.153 -226.431)" fill="#78829b" fill-rule="evenodd"/>
        </g>
      </g>
    </g>
  </g>
</svg>
