<svg xmlns="http://www.w3.org/2000/svg" width="17.534" height="17.53" viewBox="0 0 17.534 17.53">
  <path id="instagram-brands" d="M8.694,36.1a4.495,4.495,0,1,0,4.495,4.495A4.487,4.487,0,0,0,8.694,36.1Zm0,7.417a2.922,2.922,0,1,1,2.922-2.922A2.927,2.927,0,0,1,8.694,43.512Zm5.727-7.6a1.048,1.048,0,1,1-1.048-1.048A1.046,1.046,0,0,1,14.421,35.912ZM17.4,36.976A5.188,5.188,0,0,0,15.982,33.3a5.222,5.222,0,0,0-3.673-1.416c-1.447-.082-5.785-.082-7.233,0A5.215,5.215,0,0,0,1.4,33.3,5.2,5.2,0,0,0-.013,36.972C-.1,38.419-.1,42.757-.013,44.2A5.188,5.188,0,0,0,1.4,47.878a5.229,5.229,0,0,0,3.673,1.416c1.447.082,5.785.082,7.233,0a5.188,5.188,0,0,0,3.673-1.416A5.222,5.222,0,0,0,17.4,44.2C17.48,42.757,17.48,38.423,17.4,36.976Zm-1.87,8.782a2.958,2.958,0,0,1-1.666,1.666c-1.154.458-3.892.352-5.167.352s-4.017.1-5.167-.352A2.958,2.958,0,0,1,1.86,45.758C1.4,44.6,1.508,41.865,1.508,40.59s-.1-4.017.352-5.167a2.958,2.958,0,0,1,1.666-1.666C4.681,33.3,7.419,33.4,8.694,33.4s4.017-.1,5.167.352a2.958,2.958,0,0,1,1.666,1.666c.458,1.154.352,3.892.352,5.167S15.985,44.607,15.528,45.758Z" transform="translate(0.075 -31.825)" fill="#3874f3"/>
</svg>
