<svg xmlns="http://www.w3.org/2000/svg" width="21.363" height="15.021" viewBox="0 0 21.363 15.021">
  <path id="youtube-brands" d="M35.85,66.35a2.684,2.684,0,0,0-1.889-1.9C32.3,64,25.615,64,25.615,64s-6.68,0-8.346.449a2.684,2.684,0,0,0-1.889,1.9,30.224,30.224,0,0,0,0,10.351,2.644,2.644,0,0,0,1.889,1.871c1.666.449,8.346.449,8.346.449s6.68,0,8.346-.449A2.644,2.644,0,0,0,35.85,76.7a30.224,30.224,0,0,0,0-10.351ZM23.43,74.7V68.349l5.584,3.177Z" transform="translate(-14.933 -64)" fill="#3874f3"/>
</svg>
